G04 #@! TF.GenerationSoftware,KiCad,Pcbnew,5.0.2-1.fc29*
G04 #@! TF.CreationDate,2019-03-11T05:09:13+00:00*
G04 #@! TF.ProjectId,fuccs-shitty-addon,66756363-732d-4736-9869-7474792d6164,rev?*
G04 #@! TF.SameCoordinates,Original*
G04 #@! TF.FileFunction,Legend,Top*
G04 #@! TF.FilePolarity,Positive*
%FSLAX46Y46*%
G04 Gerber Fmt 4.6, Leading zero omitted, Abs format (unit mm)*
G04 Created by KiCad (PCBNEW 5.0.2-1.fc29) date Mon 11 Mar 2019 05:09:13 GMT*
%MOMM*%
%LPD*%
G01*
G04 APERTURE LIST*
%ADD10C,0.010000*%
G04 APERTURE END LIST*
D10*
G04 #@! TO.C,G\002A\002A\002A*
G36*
X22200967Y40331559D02*
X22155414Y40218714D01*
X22081254Y40037151D01*
X21980448Y39791595D01*
X21854956Y39486771D01*
X21706741Y39127404D01*
X21537764Y38718218D01*
X21349984Y38263940D01*
X21145365Y37769294D01*
X20925866Y37239006D01*
X20693449Y36677799D01*
X20450076Y36090400D01*
X20197706Y35481532D01*
X19938302Y34855923D01*
X19673825Y34218295D01*
X19406235Y33573376D01*
X19137495Y32925888D01*
X18869564Y32280558D01*
X18604404Y31642111D01*
X18343977Y31015271D01*
X18090244Y30404764D01*
X17845165Y29815315D01*
X17610701Y29251648D01*
X17388815Y28718489D01*
X17181467Y28220563D01*
X16990618Y27762595D01*
X16818230Y27349310D01*
X16666263Y26985433D01*
X16536679Y26675689D01*
X16431438Y26424802D01*
X16352503Y26237499D01*
X16301834Y26118504D01*
X16281392Y26072543D01*
X16281202Y26072251D01*
X16237594Y26065239D01*
X16117014Y26051644D01*
X15926841Y26032167D01*
X15674457Y26007508D01*
X15367242Y25978368D01*
X15012575Y25945446D01*
X14617837Y25909444D01*
X14190410Y25871061D01*
X13759789Y25832943D01*
X13300398Y25792511D01*
X12860597Y25753716D01*
X12448617Y25717290D01*
X12072688Y25683963D01*
X11741038Y25654468D01*
X11461898Y25629536D01*
X11243497Y25609900D01*
X11094066Y25596290D01*
X11026644Y25589930D01*
X10896924Y25579084D01*
X10832722Y25584654D01*
X10815467Y25613196D01*
X10824087Y25661403D01*
X10841616Y25713041D01*
X10886510Y25838900D01*
X10956861Y26033756D01*
X11050760Y26292384D01*
X11166297Y26609562D01*
X11301564Y26980064D01*
X11454650Y27398668D01*
X11623648Y27860149D01*
X11806648Y28359284D01*
X12001741Y28890849D01*
X12207018Y29449619D01*
X12420569Y30030371D01*
X12451459Y30114332D01*
X14055215Y34473167D01*
X18129778Y37428794D01*
X18652211Y37807579D01*
X19155388Y38172051D01*
X19635091Y38519171D01*
X20087099Y38845902D01*
X20507194Y39149206D01*
X20891154Y39426043D01*
X21234761Y39673376D01*
X21533795Y39888167D01*
X21784036Y40067376D01*
X21981265Y40207967D01*
X22121262Y40306900D01*
X22199808Y40361138D01*
X22215952Y40370961D01*
X22200967Y40331559D01*
X22200967Y40331559D01*
G37*
X22200967Y40331559D02*
X22155414Y40218714D01*
X22081254Y40037151D01*
X21980448Y39791595D01*
X21854956Y39486771D01*
X21706741Y39127404D01*
X21537764Y38718218D01*
X21349984Y38263940D01*
X21145365Y37769294D01*
X20925866Y37239006D01*
X20693449Y36677799D01*
X20450076Y36090400D01*
X20197706Y35481532D01*
X19938302Y34855923D01*
X19673825Y34218295D01*
X19406235Y33573376D01*
X19137495Y32925888D01*
X18869564Y32280558D01*
X18604404Y31642111D01*
X18343977Y31015271D01*
X18090244Y30404764D01*
X17845165Y29815315D01*
X17610701Y29251648D01*
X17388815Y28718489D01*
X17181467Y28220563D01*
X16990618Y27762595D01*
X16818230Y27349310D01*
X16666263Y26985433D01*
X16536679Y26675689D01*
X16431438Y26424802D01*
X16352503Y26237499D01*
X16301834Y26118504D01*
X16281392Y26072543D01*
X16281202Y26072251D01*
X16237594Y26065239D01*
X16117014Y26051644D01*
X15926841Y26032167D01*
X15674457Y26007508D01*
X15367242Y25978368D01*
X15012575Y25945446D01*
X14617837Y25909444D01*
X14190410Y25871061D01*
X13759789Y25832943D01*
X13300398Y25792511D01*
X12860597Y25753716D01*
X12448617Y25717290D01*
X12072688Y25683963D01*
X11741038Y25654468D01*
X11461898Y25629536D01*
X11243497Y25609900D01*
X11094066Y25596290D01*
X11026644Y25589930D01*
X10896924Y25579084D01*
X10832722Y25584654D01*
X10815467Y25613196D01*
X10824087Y25661403D01*
X10841616Y25713041D01*
X10886510Y25838900D01*
X10956861Y26033756D01*
X11050760Y26292384D01*
X11166297Y26609562D01*
X11301564Y26980064D01*
X11454650Y27398668D01*
X11623648Y27860149D01*
X11806648Y28359284D01*
X12001741Y28890849D01*
X12207018Y29449619D01*
X12420569Y30030371D01*
X12451459Y30114332D01*
X14055215Y34473167D01*
X18129778Y37428794D01*
X18652211Y37807579D01*
X19155388Y38172051D01*
X19635091Y38519171D01*
X20087099Y38845902D01*
X20507194Y39149206D01*
X20891154Y39426043D01*
X21234761Y39673376D01*
X21533795Y39888167D01*
X21784036Y40067376D01*
X21981265Y40207967D01*
X22121262Y40306900D01*
X22199808Y40361138D01*
X22215952Y40370961D01*
X22200967Y40331559D01*
G36*
X-22124949Y40336928D02*
X-22025073Y40267898D01*
X-21865159Y40155190D01*
X-21649439Y40001845D01*
X-21382146Y39810901D01*
X-21067513Y39585399D01*
X-20709772Y39328378D01*
X-20313156Y39042879D01*
X-19881897Y38731940D01*
X-19420227Y38398601D01*
X-18932380Y38045903D01*
X-18422588Y37676884D01*
X-18082476Y37430447D01*
X-14020183Y34485869D01*
X-12379766Y30035034D01*
X-12163205Y29447357D01*
X-11955007Y28882184D01*
X-11757025Y28344555D01*
X-11571111Y27839511D01*
X-11399119Y27372092D01*
X-11242901Y26947336D01*
X-11104311Y26570286D01*
X-10985201Y26245980D01*
X-10887425Y25979459D01*
X-10812835Y25775762D01*
X-10763285Y25639930D01*
X-10740626Y25577003D01*
X-10739349Y25573100D01*
X-10772935Y25566007D01*
X-10792266Y25567098D01*
X-10842669Y25571683D01*
X-10970128Y25583183D01*
X-11167371Y25600944D01*
X-11427128Y25624313D01*
X-11742125Y25652634D01*
X-12105093Y25685256D01*
X-12508759Y25721523D01*
X-12945852Y25760782D01*
X-13409100Y25802380D01*
X-13522716Y25812580D01*
X-13990596Y25855155D01*
X-14433589Y25896569D01*
X-14844482Y25936074D01*
X-15216061Y25972926D01*
X-15541114Y26006378D01*
X-15812428Y26035684D01*
X-16022791Y26060097D01*
X-16164990Y26078872D01*
X-16231811Y26091263D01*
X-16235857Y26093233D01*
X-16256259Y26136635D01*
X-16306910Y26253232D01*
X-16385846Y26438294D01*
X-16491102Y26687089D01*
X-16620714Y26994886D01*
X-16772715Y27356954D01*
X-16945141Y27768562D01*
X-17136028Y28224978D01*
X-17343411Y28721472D01*
X-17565324Y29253311D01*
X-17799803Y29815765D01*
X-18044883Y30404103D01*
X-18298598Y31013593D01*
X-18558985Y31639504D01*
X-18824078Y32277104D01*
X-19091912Y32921663D01*
X-19360522Y33568450D01*
X-19627944Y34212732D01*
X-19892213Y34849779D01*
X-20151363Y35474860D01*
X-20403430Y36083244D01*
X-20646449Y36670198D01*
X-20878455Y37230992D01*
X-21097483Y37760895D01*
X-21301569Y38255176D01*
X-21488747Y38709102D01*
X-21657052Y39117944D01*
X-21804520Y39476969D01*
X-21929186Y39781446D01*
X-22029084Y40026645D01*
X-22102250Y40207834D01*
X-22146720Y40320282D01*
X-22160554Y40359241D01*
X-22124949Y40336928D01*
X-22124949Y40336928D01*
G37*
X-22124949Y40336928D02*
X-22025073Y40267898D01*
X-21865159Y40155190D01*
X-21649439Y40001845D01*
X-21382146Y39810901D01*
X-21067513Y39585399D01*
X-20709772Y39328378D01*
X-20313156Y39042879D01*
X-19881897Y38731940D01*
X-19420227Y38398601D01*
X-18932380Y38045903D01*
X-18422588Y37676884D01*
X-18082476Y37430447D01*
X-14020183Y34485869D01*
X-12379766Y30035034D01*
X-12163205Y29447357D01*
X-11955007Y28882184D01*
X-11757025Y28344555D01*
X-11571111Y27839511D01*
X-11399119Y27372092D01*
X-11242901Y26947336D01*
X-11104311Y26570286D01*
X-10985201Y26245980D01*
X-10887425Y25979459D01*
X-10812835Y25775762D01*
X-10763285Y25639930D01*
X-10740626Y25577003D01*
X-10739349Y25573100D01*
X-10772935Y25566007D01*
X-10792266Y25567098D01*
X-10842669Y25571683D01*
X-10970128Y25583183D01*
X-11167371Y25600944D01*
X-11427128Y25624313D01*
X-11742125Y25652634D01*
X-12105093Y25685256D01*
X-12508759Y25721523D01*
X-12945852Y25760782D01*
X-13409100Y25802380D01*
X-13522716Y25812580D01*
X-13990596Y25855155D01*
X-14433589Y25896569D01*
X-14844482Y25936074D01*
X-15216061Y25972926D01*
X-15541114Y26006378D01*
X-15812428Y26035684D01*
X-16022791Y26060097D01*
X-16164990Y26078872D01*
X-16231811Y26091263D01*
X-16235857Y26093233D01*
X-16256259Y26136635D01*
X-16306910Y26253232D01*
X-16385846Y26438294D01*
X-16491102Y26687089D01*
X-16620714Y26994886D01*
X-16772715Y27356954D01*
X-16945141Y27768562D01*
X-17136028Y28224978D01*
X-17343411Y28721472D01*
X-17565324Y29253311D01*
X-17799803Y29815765D01*
X-18044883Y30404103D01*
X-18298598Y31013593D01*
X-18558985Y31639504D01*
X-18824078Y32277104D01*
X-19091912Y32921663D01*
X-19360522Y33568450D01*
X-19627944Y34212732D01*
X-19892213Y34849779D01*
X-20151363Y35474860D01*
X-20403430Y36083244D01*
X-20646449Y36670198D01*
X-20878455Y37230992D01*
X-21097483Y37760895D01*
X-21301569Y38255176D01*
X-21488747Y38709102D01*
X-21657052Y39117944D01*
X-21804520Y39476969D01*
X-21929186Y39781446D01*
X-22029084Y40026645D01*
X-22102250Y40207834D01*
X-22146720Y40320282D01*
X-22160554Y40359241D01*
X-22124949Y40336928D01*
G36*
X-16694143Y16337405D02*
X-16150771Y15656000D01*
X-15755849Y15654812D01*
X-14972683Y13489435D01*
X-14824873Y13080421D01*
X-14685674Y12694586D01*
X-14557767Y12339409D01*
X-14443835Y12022368D01*
X-14346559Y11750940D01*
X-14268621Y11532603D01*
X-14212702Y11374834D01*
X-14181485Y11285112D01*
X-14175829Y11267530D01*
X-14185239Y11252337D01*
X-14226384Y11240010D01*
X-14306495Y11230278D01*
X-14432804Y11222868D01*
X-14612540Y11217512D01*
X-14852934Y11213937D01*
X-15161219Y11211872D01*
X-15544623Y11211047D01*
X-15684171Y11211000D01*
X-17206201Y11211000D01*
X-17235943Y13761584D01*
X-17241107Y14230444D01*
X-17245516Y14683282D01*
X-17249123Y15111387D01*
X-17251880Y15506048D01*
X-17253740Y15858554D01*
X-17254657Y16160193D01*
X-17254583Y16402254D01*
X-17253472Y16576026D01*
X-17251600Y16665489D01*
X-17237516Y17018810D01*
X-16694143Y16337405D01*
X-16694143Y16337405D01*
G37*
X-16694143Y16337405D02*
X-16150771Y15656000D01*
X-15755849Y15654812D01*
X-14972683Y13489435D01*
X-14824873Y13080421D01*
X-14685674Y12694586D01*
X-14557767Y12339409D01*
X-14443835Y12022368D01*
X-14346559Y11750940D01*
X-14268621Y11532603D01*
X-14212702Y11374834D01*
X-14181485Y11285112D01*
X-14175829Y11267530D01*
X-14185239Y11252337D01*
X-14226384Y11240010D01*
X-14306495Y11230278D01*
X-14432804Y11222868D01*
X-14612540Y11217512D01*
X-14852934Y11213937D01*
X-15161219Y11211872D01*
X-15544623Y11211047D01*
X-15684171Y11211000D01*
X-17206201Y11211000D01*
X-17235943Y13761584D01*
X-17241107Y14230444D01*
X-17245516Y14683282D01*
X-17249123Y15111387D01*
X-17251880Y15506048D01*
X-17253740Y15858554D01*
X-17254657Y16160193D01*
X-17254583Y16402254D01*
X-17253472Y16576026D01*
X-17251600Y16665489D01*
X-17237516Y17018810D01*
X-16694143Y16337405D01*
G36*
X-9659849Y22639763D02*
X-4622183Y21087820D01*
X-542575Y16396834D01*
X-825546Y16364201D01*
X-903125Y16357915D01*
X-1059821Y16347610D01*
X-1290197Y16333585D01*
X-1588813Y16316138D01*
X-1950230Y16295571D01*
X-2369010Y16272182D01*
X-2839714Y16246271D01*
X-3356903Y16218138D01*
X-3915138Y16188082D01*
X-4508981Y16156402D01*
X-5132993Y16123400D01*
X-5781735Y16089373D01*
X-6379016Y16058289D01*
X-7043191Y16023836D01*
X-7686152Y15990456D01*
X-8302588Y15958424D01*
X-8887184Y15928019D01*
X-9434627Y15899518D01*
X-9939606Y15873198D01*
X-10396805Y15849336D01*
X-10800913Y15828210D01*
X-11146617Y15810097D01*
X-11428602Y15795274D01*
X-11641557Y15784019D01*
X-11780167Y15776608D01*
X-11837497Y15773422D01*
X-12025479Y15761834D01*
X-9961182Y13666334D01*
X-7896886Y11570834D01*
X-6034137Y8987384D01*
X-4171387Y6403935D01*
X-3307295Y5960551D01*
X-3011835Y5806278D01*
X-2775106Y5677026D01*
X-2601579Y5575420D01*
X-2495725Y5504082D01*
X-2462016Y5465635D01*
X-2462250Y5464766D01*
X-2478833Y5393783D01*
X-2499087Y5273799D01*
X-2508353Y5208401D01*
X-2535410Y5004438D01*
X-1451546Y4251436D01*
X-1184795Y4065614D01*
X-941876Y3895434D01*
X-731144Y3746825D01*
X-560955Y3625717D01*
X-439665Y3538040D01*
X-375630Y3489723D01*
X-367683Y3482244D01*
X-400633Y3453387D01*
X-487481Y3392403D01*
X-610226Y3311869D01*
X-624669Y3302661D01*
X-881656Y3139268D01*
X-1376086Y3258339D01*
X-1574843Y3304982D01*
X-1747442Y3343224D01*
X-1875015Y3369032D01*
X-1937863Y3378372D01*
X-1988101Y3346663D01*
X-2032228Y3244166D01*
X-2057316Y3146500D01*
X-2096595Y3004552D01*
X-2137907Y2933502D01*
X-2180469Y2918717D01*
X-2237115Y2929459D01*
X-2366144Y2957718D01*
X-2557623Y3001200D01*
X-2801617Y3057612D01*
X-3088194Y3124660D01*
X-3407419Y3200049D01*
X-3692794Y3267967D01*
X-5134071Y3612167D01*
X-5682101Y4016285D01*
X-6818655Y7476060D01*
X-6990828Y7999779D01*
X-7156369Y8502569D01*
X-7313250Y8978311D01*
X-7459441Y9420884D01*
X-7592912Y9824170D01*
X-7711635Y10182049D01*
X-7813580Y10488403D01*
X-7896718Y10737112D01*
X-7959020Y10922056D01*
X-7998456Y11037117D01*
X-8011619Y11073417D01*
X-8068029Y11211000D01*
X-10917106Y11211069D01*
X-13766183Y11211137D01*
X-14560159Y13401819D01*
X-14708698Y13812227D01*
X-14848185Y14198735D01*
X-14976008Y14554026D01*
X-15089553Y14870784D01*
X-15186207Y15141689D01*
X-15263356Y15359425D01*
X-15318387Y15516676D01*
X-15348687Y15606122D01*
X-15353909Y15624250D01*
X-15314920Y15639428D01*
X-15211993Y15650655D01*
X-15065834Y15655862D01*
X-15036183Y15656000D01*
X-14718683Y15656000D01*
X-14718683Y16058595D01*
X-8379266Y16392326D01*
X-7648640Y16430858D01*
X-6937968Y16468474D01*
X-6252160Y16504906D01*
X-5596126Y16539889D01*
X-4974778Y16573157D01*
X-4393025Y16604442D01*
X-3855777Y16633479D01*
X-3367947Y16660002D01*
X-2934444Y16683745D01*
X-2560178Y16704440D01*
X-2250060Y16721822D01*
X-2009002Y16735624D01*
X-1841912Y16745580D01*
X-1753702Y16751425D01*
X-1747407Y16751945D01*
X-1454964Y16777834D01*
X-3165573Y18743085D01*
X-4876183Y20708337D01*
X-9776399Y22218079D01*
X-10399461Y22410174D01*
X-10999953Y22595566D01*
X-11572919Y22772714D01*
X-12113405Y22940073D01*
X-12616457Y23096101D01*
X-13077121Y23239255D01*
X-13490441Y23367994D01*
X-13851464Y23480773D01*
X-14155234Y23576051D01*
X-14396799Y23652284D01*
X-14571202Y23707929D01*
X-14673491Y23741445D01*
X-14700024Y23751230D01*
X-14711176Y23803646D01*
X-14713474Y23911069D01*
X-14710474Y23983172D01*
X-14697516Y24191705D01*
X-9659849Y22639763D01*
X-9659849Y22639763D01*
G37*
X-9659849Y22639763D02*
X-4622183Y21087820D01*
X-542575Y16396834D01*
X-825546Y16364201D01*
X-903125Y16357915D01*
X-1059821Y16347610D01*
X-1290197Y16333585D01*
X-1588813Y16316138D01*
X-1950230Y16295571D01*
X-2369010Y16272182D01*
X-2839714Y16246271D01*
X-3356903Y16218138D01*
X-3915138Y16188082D01*
X-4508981Y16156402D01*
X-5132993Y16123400D01*
X-5781735Y16089373D01*
X-6379016Y16058289D01*
X-7043191Y16023836D01*
X-7686152Y15990456D01*
X-8302588Y15958424D01*
X-8887184Y15928019D01*
X-9434627Y15899518D01*
X-9939606Y15873198D01*
X-10396805Y15849336D01*
X-10800913Y15828210D01*
X-11146617Y15810097D01*
X-11428602Y15795274D01*
X-11641557Y15784019D01*
X-11780167Y15776608D01*
X-11837497Y15773422D01*
X-12025479Y15761834D01*
X-9961182Y13666334D01*
X-7896886Y11570834D01*
X-6034137Y8987384D01*
X-4171387Y6403935D01*
X-3307295Y5960551D01*
X-3011835Y5806278D01*
X-2775106Y5677026D01*
X-2601579Y5575420D01*
X-2495725Y5504082D01*
X-2462016Y5465635D01*
X-2462250Y5464766D01*
X-2478833Y5393783D01*
X-2499087Y5273799D01*
X-2508353Y5208401D01*
X-2535410Y5004438D01*
X-1451546Y4251436D01*
X-1184795Y4065614D01*
X-941876Y3895434D01*
X-731144Y3746825D01*
X-560955Y3625717D01*
X-439665Y3538040D01*
X-375630Y3489723D01*
X-367683Y3482244D01*
X-400633Y3453387D01*
X-487481Y3392403D01*
X-610226Y3311869D01*
X-624669Y3302661D01*
X-881656Y3139268D01*
X-1376086Y3258339D01*
X-1574843Y3304982D01*
X-1747442Y3343224D01*
X-1875015Y3369032D01*
X-1937863Y3378372D01*
X-1988101Y3346663D01*
X-2032228Y3244166D01*
X-2057316Y3146500D01*
X-2096595Y3004552D01*
X-2137907Y2933502D01*
X-2180469Y2918717D01*
X-2237115Y2929459D01*
X-2366144Y2957718D01*
X-2557623Y3001200D01*
X-2801617Y3057612D01*
X-3088194Y3124660D01*
X-3407419Y3200049D01*
X-3692794Y3267967D01*
X-5134071Y3612167D01*
X-5682101Y4016285D01*
X-6818655Y7476060D01*
X-6990828Y7999779D01*
X-7156369Y8502569D01*
X-7313250Y8978311D01*
X-7459441Y9420884D01*
X-7592912Y9824170D01*
X-7711635Y10182049D01*
X-7813580Y10488403D01*
X-7896718Y10737112D01*
X-7959020Y10922056D01*
X-7998456Y11037117D01*
X-8011619Y11073417D01*
X-8068029Y11211000D01*
X-10917106Y11211069D01*
X-13766183Y11211137D01*
X-14560159Y13401819D01*
X-14708698Y13812227D01*
X-14848185Y14198735D01*
X-14976008Y14554026D01*
X-15089553Y14870784D01*
X-15186207Y15141689D01*
X-15263356Y15359425D01*
X-15318387Y15516676D01*
X-15348687Y15606122D01*
X-15353909Y15624250D01*
X-15314920Y15639428D01*
X-15211993Y15650655D01*
X-15065834Y15655862D01*
X-15036183Y15656000D01*
X-14718683Y15656000D01*
X-14718683Y16058595D01*
X-8379266Y16392326D01*
X-7648640Y16430858D01*
X-6937968Y16468474D01*
X-6252160Y16504906D01*
X-5596126Y16539889D01*
X-4974778Y16573157D01*
X-4393025Y16604442D01*
X-3855777Y16633479D01*
X-3367947Y16660002D01*
X-2934444Y16683745D01*
X-2560178Y16704440D01*
X-2250060Y16721822D01*
X-2009002Y16735624D01*
X-1841912Y16745580D01*
X-1753702Y16751425D01*
X-1747407Y16751945D01*
X-1454964Y16777834D01*
X-3165573Y18743085D01*
X-4876183Y20708337D01*
X-9776399Y22218079D01*
X-10399461Y22410174D01*
X-10999953Y22595566D01*
X-11572919Y22772714D01*
X-12113405Y22940073D01*
X-12616457Y23096101D01*
X-13077121Y23239255D01*
X-13490441Y23367994D01*
X-13851464Y23480773D01*
X-14155234Y23576051D01*
X-14396799Y23652284D01*
X-14571202Y23707929D01*
X-14673491Y23741445D01*
X-14700024Y23751230D01*
X-14711176Y23803646D01*
X-14713474Y23911069D01*
X-14710474Y23983172D01*
X-14697516Y24191705D01*
X-9659849Y22639763D01*
G36*
X15231250Y18830943D02*
X15337958Y18761825D01*
X15496515Y18657327D01*
X15697797Y18523502D01*
X15932680Y18366400D01*
X16192037Y18192072D01*
X16274625Y18136394D01*
X17317099Y17433095D01*
X17300446Y15263964D01*
X17296537Y14803520D01*
X17291881Y14336438D01*
X17286655Y13875940D01*
X17281037Y13435247D01*
X17275204Y13027580D01*
X17269333Y12666161D01*
X17263603Y12364212D01*
X17258682Y12153106D01*
X17233571Y11211377D01*
X12659220Y11200606D01*
X8084870Y11189834D01*
X7797946Y10322000D01*
X7733801Y10127765D01*
X7646395Y9862757D01*
X7538908Y9536635D01*
X7414521Y9159058D01*
X7276415Y8739684D01*
X7127771Y8288172D01*
X6971768Y7814181D01*
X6811589Y7327370D01*
X6650413Y6837397D01*
X6618196Y6739440D01*
X5725369Y4024712D01*
X4317022Y2961190D01*
X4013657Y2733266D01*
X3729813Y2522247D01*
X3472864Y2333450D01*
X3250186Y2172193D01*
X3069152Y2043793D01*
X2937136Y1953570D01*
X2861514Y1906839D01*
X2847413Y1901419D01*
X2798491Y1924883D01*
X2687819Y1989757D01*
X2524132Y2090548D01*
X2316167Y2221760D01*
X2072658Y2377900D01*
X1802344Y2553472D01*
X1607963Y2680968D01*
X1326416Y2866515D01*
X1068034Y3037096D01*
X841172Y3187175D01*
X654184Y3311210D01*
X515424Y3403664D01*
X433246Y3458998D01*
X413878Y3472662D01*
X443405Y3499656D01*
X534574Y3568706D01*
X679218Y3673959D01*
X869169Y3809563D01*
X1096259Y3969667D01*
X1352322Y4148418D01*
X1497202Y4248863D01*
X1810328Y4466349D01*
X2059557Y4641839D01*
X2251370Y4780407D01*
X2392248Y4887125D01*
X2488673Y4967064D01*
X2547125Y5025297D01*
X2574086Y5066896D01*
X2576894Y5093834D01*
X2557705Y5189928D01*
X2534736Y5321465D01*
X2529575Y5353348D01*
X2501784Y5528195D01*
X3360803Y5967181D01*
X4219823Y6406167D01*
X7950817Y11583473D01*
X11544851Y15230522D01*
X12002287Y15694169D01*
X12443609Y16140434D01*
X12865149Y16565661D01*
X13263236Y16966194D01*
X13634203Y17338377D01*
X13974380Y17678555D01*
X14280100Y17983070D01*
X14547693Y18248266D01*
X14773490Y18470489D01*
X14953823Y18646080D01*
X15085023Y18771386D01*
X15163422Y18842749D01*
X15185517Y18858631D01*
X15231250Y18830943D01*
X15231250Y18830943D01*
G37*
X15231250Y18830943D02*
X15337958Y18761825D01*
X15496515Y18657327D01*
X15697797Y18523502D01*
X15932680Y18366400D01*
X16192037Y18192072D01*
X16274625Y18136394D01*
X17317099Y17433095D01*
X17300446Y15263964D01*
X17296537Y14803520D01*
X17291881Y14336438D01*
X17286655Y13875940D01*
X17281037Y13435247D01*
X17275204Y13027580D01*
X17269333Y12666161D01*
X17263603Y12364212D01*
X17258682Y12153106D01*
X17233571Y11211377D01*
X12659220Y11200606D01*
X8084870Y11189834D01*
X7797946Y10322000D01*
X7733801Y10127765D01*
X7646395Y9862757D01*
X7538908Y9536635D01*
X7414521Y9159058D01*
X7276415Y8739684D01*
X7127771Y8288172D01*
X6971768Y7814181D01*
X6811589Y7327370D01*
X6650413Y6837397D01*
X6618196Y6739440D01*
X5725369Y4024712D01*
X4317022Y2961190D01*
X4013657Y2733266D01*
X3729813Y2522247D01*
X3472864Y2333450D01*
X3250186Y2172193D01*
X3069152Y2043793D01*
X2937136Y1953570D01*
X2861514Y1906839D01*
X2847413Y1901419D01*
X2798491Y1924883D01*
X2687819Y1989757D01*
X2524132Y2090548D01*
X2316167Y2221760D01*
X2072658Y2377900D01*
X1802344Y2553472D01*
X1607963Y2680968D01*
X1326416Y2866515D01*
X1068034Y3037096D01*
X841172Y3187175D01*
X654184Y3311210D01*
X515424Y3403664D01*
X433246Y3458998D01*
X413878Y3472662D01*
X443405Y3499656D01*
X534574Y3568706D01*
X679218Y3673959D01*
X869169Y3809563D01*
X1096259Y3969667D01*
X1352322Y4148418D01*
X1497202Y4248863D01*
X1810328Y4466349D01*
X2059557Y4641839D01*
X2251370Y4780407D01*
X2392248Y4887125D01*
X2488673Y4967064D01*
X2547125Y5025297D01*
X2574086Y5066896D01*
X2576894Y5093834D01*
X2557705Y5189928D01*
X2534736Y5321465D01*
X2529575Y5353348D01*
X2501784Y5528195D01*
X3360803Y5967181D01*
X4219823Y6406167D01*
X7950817Y11583473D01*
X11544851Y15230522D01*
X12002287Y15694169D01*
X12443609Y16140434D01*
X12865149Y16565661D01*
X13263236Y16966194D01*
X13634203Y17338377D01*
X13974380Y17678555D01*
X14280100Y17983070D01*
X14547693Y18248266D01*
X14773490Y18470489D01*
X14953823Y18646080D01*
X15085023Y18771386D01*
X15163422Y18842749D01*
X15185517Y18858631D01*
X15231250Y18830943D01*
G36*
X-4287469Y3023862D02*
X-4176714Y3001261D01*
X-4010493Y2965447D01*
X-3802288Y2919490D01*
X-3565577Y2866458D01*
X-3313841Y2809420D01*
X-3060560Y2751444D01*
X-2819215Y2695600D01*
X-2603286Y2644957D01*
X-2426253Y2602582D01*
X-2301596Y2571546D01*
X-2244727Y2555633D01*
X-2217243Y2516189D01*
X-2226426Y2420262D01*
X-2237108Y2374729D01*
X-2273078Y2275620D01*
X-2335558Y2194406D01*
X-2444127Y2109633D01*
X-2529417Y2054444D01*
X-2662154Y1976389D01*
X-2770978Y1921272D01*
X-2832740Y1900792D01*
X-2833370Y1900818D01*
X-2881345Y1926504D01*
X-2985619Y1996583D01*
X-3135644Y2103485D01*
X-3320871Y2239642D01*
X-3530754Y2397485D01*
X-3613996Y2460977D01*
X-3826385Y2624543D01*
X-4013214Y2770242D01*
X-4164981Y2890511D01*
X-4272183Y2977789D01*
X-4325317Y3024514D01*
X-4329279Y3030182D01*
X-4287469Y3023862D01*
X-4287469Y3023862D01*
G37*
X-4287469Y3023862D02*
X-4176714Y3001261D01*
X-4010493Y2965447D01*
X-3802288Y2919490D01*
X-3565577Y2866458D01*
X-3313841Y2809420D01*
X-3060560Y2751444D01*
X-2819215Y2695600D01*
X-2603286Y2644957D01*
X-2426253Y2602582D01*
X-2301596Y2571546D01*
X-2244727Y2555633D01*
X-2217243Y2516189D01*
X-2226426Y2420262D01*
X-2237108Y2374729D01*
X-2273078Y2275620D01*
X-2335558Y2194406D01*
X-2444127Y2109633D01*
X-2529417Y2054444D01*
X-2662154Y1976389D01*
X-2770978Y1921272D01*
X-2832740Y1900792D01*
X-2833370Y1900818D01*
X-2881345Y1926504D01*
X-2985619Y1996583D01*
X-3135644Y2103485D01*
X-3320871Y2239642D01*
X-3530754Y2397485D01*
X-3613996Y2460977D01*
X-3826385Y2624543D01*
X-4013214Y2770242D01*
X-4164981Y2890511D01*
X-4272183Y2977789D01*
X-4325317Y3024514D01*
X-4329279Y3030182D01*
X-4287469Y3023862D01*
G04 #@! TD*
M02*
