G04 #@! TF.GenerationSoftware,KiCad,Pcbnew,5.0.2-1.fc29*
G04 #@! TF.CreationDate,2019-03-11T05:09:13+00:00*
G04 #@! TF.ProjectId,fuccs-shitty-addon,66756363-732d-4736-9869-7474792d6164,rev?*
G04 #@! TF.SameCoordinates,Original*
G04 #@! TF.FileFunction,Copper,L2,Bot*
G04 #@! TF.FilePolarity,Positive*
%FSLAX46Y46*%
G04 Gerber Fmt 4.6, Leading zero omitted, Abs format (unit mm)*
G04 Created by KiCad (PCBNEW 5.0.2-1.fc29) date Mon 11 Mar 2019 05:09:13 GMT*
%MOMM*%
%LPD*%
G01*
G04 APERTURE LIST*
G04 #@! TA.AperFunction,SMDPad,CuDef*
%ADD10R,1.000000X3.150000*%
G04 #@! TD*
G04 #@! TA.AperFunction,SMDPad,CuDef*
%ADD11R,1.250000X1.500000*%
G04 #@! TD*
G04 #@! TA.AperFunction,SMDPad,CuDef*
%ADD12R,1.500000X1.300000*%
G04 #@! TD*
G04 #@! TA.AperFunction,SMDPad,CuDef*
%ADD13C,1.300000*%
G04 #@! TD*
G04 #@! TA.AperFunction,Conductor*
%ADD14C,0.100000*%
G04 #@! TD*
G04 #@! TA.AperFunction,SMDPad,CuDef*
%ADD15R,1.700000X0.650000*%
G04 #@! TD*
G04 #@! TA.AperFunction,SMDPad,CuDef*
%ADD16C,2.000000*%
G04 #@! TD*
G04 #@! TA.AperFunction,Conductor*
%ADD17C,0.400000*%
G04 #@! TD*
G04 #@! TA.AperFunction,Conductor*
%ADD18C,0.200000*%
G04 #@! TD*
G04 #@! TA.AperFunction,NonConductor*
%ADD19C,0.254000*%
G04 #@! TD*
G04 #@! TA.AperFunction,Conductor*
%ADD20C,0.254000*%
G04 #@! TD*
G04 APERTURE END LIST*
D10*
G04 #@! TO.P,J1,1*
G04 #@! TO.N,/MISO*
X-3809777Y9905030D03*
G04 #@! TO.P,J1,2*
G04 #@! TO.N,/~RESET~*
X-3809777Y4855030D03*
G04 #@! TO.P,J1,3*
G04 #@! TO.N,+3V3*
X-1269777Y9905030D03*
G04 #@! TO.P,J1,4*
G04 #@! TO.N,GND*
X-1269777Y4855030D03*
G04 #@! TO.P,J1,5*
G04 #@! TO.N,/SDA_MOSI*
X1270223Y9905030D03*
G04 #@! TO.P,J1,6*
G04 #@! TO.N,/SCL_SCK*
X1270223Y4855030D03*
G04 #@! TD*
D11*
G04 #@! TO.P,C1,1*
G04 #@! TO.N,+3V3*
X223Y17250030D03*
G04 #@! TO.P,C1,2*
G04 #@! TO.N,GND*
X223Y14750030D03*
G04 #@! TD*
D12*
G04 #@! TO.P,R1,1*
G04 #@! TO.N,+3V3*
X-1459777Y22000030D03*
G04 #@! TO.P,R1,2*
G04 #@! TO.N,/~RESET~*
X1240223Y22000030D03*
G04 #@! TD*
D13*
G04 #@! TO.P,R2,1*
G04 #@! TO.N,Net-(D1-Pad1)*
X-10394371Y20885436D03*
D14*
G04 #@! TD*
G04 #@! TO.N,Net-(D1-Pad1)*
G04 #@! TO.C,R2*
G36*
X-10465082Y19895487D02*
X-11384320Y20814725D01*
X-10323660Y21875385D01*
X-9404422Y20956147D01*
X-10465082Y19895487D01*
X-10465082Y19895487D01*
G37*
D13*
G04 #@! TO.P,R2,2*
G04 #@! TO.N,/LED_L*
X-8485183Y22794624D03*
D14*
G04 #@! TD*
G04 #@! TO.N,/LED_L*
G04 #@! TO.C,R2*
G36*
X-8555894Y21804675D02*
X-9475132Y22723913D01*
X-8414472Y23784573D01*
X-7495234Y22865335D01*
X-8555894Y21804675D01*
X-8555894Y21804675D01*
G37*
D13*
G04 #@! TO.P,R3,1*
G04 #@! TO.N,Net-(D2-Pad1)*
X10394817Y20885436D03*
D14*
G04 #@! TD*
G04 #@! TO.N,Net-(D2-Pad1)*
G04 #@! TO.C,R3*
G36*
X11384766Y20814725D02*
X10465528Y19895487D01*
X9404868Y20956147D01*
X10324106Y21875385D01*
X11384766Y20814725D01*
X11384766Y20814725D01*
G37*
D13*
G04 #@! TO.P,R3,2*
G04 #@! TO.N,/LED_R*
X8485629Y22794624D03*
D14*
G04 #@! TD*
G04 #@! TO.N,/LED_R*
G04 #@! TO.C,R3*
G36*
X9475578Y22723913D02*
X8556340Y21804675D01*
X7495680Y22865335D01*
X8414918Y23784573D01*
X9475578Y22723913D01*
X9475578Y22723913D01*
G37*
D15*
G04 #@! TO.P,U1,8*
G04 #@! TO.N,+3V3*
X3650223Y26095030D03*
G04 #@! TO.P,U1,7*
G04 #@! TO.N,/SCL_SCK*
X3650223Y27365030D03*
G04 #@! TO.P,U1,6*
G04 #@! TO.N,/MISO*
X3650223Y28635030D03*
G04 #@! TO.P,U1,5*
G04 #@! TO.N,/SDA_MOSI*
X3650223Y29905030D03*
G04 #@! TO.P,U1,4*
G04 #@! TO.N,GND*
X-3649777Y29905030D03*
G04 #@! TO.P,U1,3*
G04 #@! TO.N,/LED_R*
X-3649777Y28635030D03*
G04 #@! TO.P,U1,2*
G04 #@! TO.N,/LED_L*
X-3649777Y27365030D03*
G04 #@! TO.P,U1,1*
G04 #@! TO.N,/~RESET~*
X-3649777Y26095030D03*
G04 #@! TD*
D16*
G04 #@! TO.P,D1,1*
G04 #@! TO.N,Net-(D1-Pad1)*
X-8395828Y17203979D03*
D14*
G04 #@! TD*
G04 #@! TO.N,Net-(D1-Pad1)*
G04 #@! TO.C,D1*
G36*
X-8183696Y15577633D02*
X-10022174Y17416111D01*
X-8607960Y18830325D01*
X-6769482Y16991847D01*
X-8183696Y15577633D01*
X-8183696Y15577633D01*
G37*
D16*
G04 #@! TO.P,D1,2*
G04 #@! TO.N,+3V3*
X-4803726Y20796081D03*
D14*
G04 #@! TD*
G04 #@! TO.N,+3V3*
G04 #@! TO.C,D1*
G36*
X-4591594Y19169735D02*
X-6430072Y21008213D01*
X-5015858Y22422427D01*
X-3177380Y20583949D01*
X-4591594Y19169735D01*
X-4591594Y19169735D01*
G37*
D16*
G04 #@! TO.P,D2,2*
G04 #@! TO.N,+3V3*
X4804172Y20796081D03*
D14*
G04 #@! TD*
G04 #@! TO.N,+3V3*
G04 #@! TO.C,D2*
G36*
X6430518Y21008213D02*
X4592040Y19169735D01*
X3177826Y20583949D01*
X5016304Y22422427D01*
X6430518Y21008213D01*
X6430518Y21008213D01*
G37*
D16*
G04 #@! TO.P,D2,1*
G04 #@! TO.N,Net-(D2-Pad1)*
X8396274Y17203979D03*
D14*
G04 #@! TD*
G04 #@! TO.N,Net-(D2-Pad1)*
G04 #@! TO.C,D2*
G36*
X10022620Y17416111D02*
X8184142Y15577633D01*
X6769928Y16991847D01*
X8608406Y18830325D01*
X10022620Y17416111D01*
X10022620Y17416111D01*
G37*
D17*
G04 #@! TO.N,+3V3*
X3650223Y21950030D02*
X4804172Y20796081D01*
X3650223Y26095030D02*
X3650223Y21950030D01*
X1258121Y17250030D02*
X223Y17250030D01*
X4804172Y20796081D02*
X1258121Y17250030D01*
X-1257675Y17250030D02*
X-4803726Y20796081D01*
X223Y17250030D02*
X-1257675Y17250030D01*
X-3599777Y22000030D02*
X-4803726Y20796081D01*
X-1459777Y22000030D02*
X-3599777Y22000030D01*
X-1257675Y9917132D02*
X-1269777Y9905030D01*
X-1257675Y17250030D02*
X-1257675Y9917132D01*
G04 #@! TO.N,Net-(D1-Pad1)*
X-10394371Y19202522D02*
X-8395828Y17203979D01*
X-10394371Y20885436D02*
X-10394371Y19202522D01*
G04 #@! TO.N,Net-(D2-Pad1)*
X10394817Y19202522D02*
X8396274Y17203979D01*
X10394817Y20885436D02*
X10394817Y19202522D01*
D18*
G04 #@! TO.N,/SCL_SCK*
X4700223Y27365030D02*
X5200223Y27865030D01*
X3650223Y27365030D02*
X4700223Y27365030D01*
X5200223Y27865030D02*
X5200223Y29000030D01*
X5200223Y29000030D02*
X4920224Y29280029D01*
X4920224Y29280029D02*
X2320224Y29280029D01*
D17*
X6855223Y4855030D02*
X1270223Y4855030D01*
X14600223Y12600030D02*
X6855223Y4855030D01*
X1800223Y29800030D02*
X1800223Y30400030D01*
X2320224Y29280029D02*
X1800223Y29800030D01*
X1800223Y30400030D02*
X2400223Y31000030D01*
X2400223Y31000030D02*
X8200223Y31000030D01*
X8200223Y31000030D02*
X14600223Y24600030D01*
X14600223Y24600030D02*
X14600223Y12600030D01*
G04 #@! TO.N,/SDA_MOSI*
X7105223Y9905030D02*
X1270223Y9905030D01*
X13600223Y16400030D02*
X7105223Y9905030D01*
X13600223Y24200030D02*
X13600223Y16400030D01*
X3650223Y29905030D02*
X7895223Y29905030D01*
X7895223Y29905030D02*
X13600223Y24200030D01*
G04 #@! TO.N,/~RESET~*
X-3649777Y26095030D02*
X-3649777Y25050030D01*
X-3649777Y25050030D02*
X-2599777Y24000030D01*
X-2599777Y24000030D02*
X600223Y24000030D01*
X1240223Y23360030D02*
X1240223Y22000030D01*
X600223Y24000030D02*
X1240223Y23360030D01*
X-3649777Y26095030D02*
X-3649777Y25150030D01*
X-3649777Y25150030D02*
X-7199777Y21600030D01*
X-7199777Y21600030D02*
X-7199777Y19400030D01*
X-7199777Y19400030D02*
X-2599777Y14800030D01*
X-2599777Y14800030D02*
X-2599777Y7400030D01*
X-3809777Y6190030D02*
X-3809777Y4855030D01*
X-2599777Y7400030D02*
X-3809777Y6190030D01*
D18*
G04 #@! TO.N,/MISO*
X-1259778Y29260031D02*
X-5259778Y29260031D01*
D17*
X-6704777Y9905030D02*
X-3809777Y9905030D01*
X-13599777Y16800030D02*
X-6704777Y9905030D01*
X-13599777Y26800030D02*
X-13599777Y16800030D01*
X-11199777Y29200030D02*
X-13599777Y26800030D01*
X-5259778Y29260031D02*
X-5319779Y29200030D01*
X-5319779Y29200030D02*
X-11199777Y29200030D01*
X1165223Y28635030D02*
X-634777Y28635030D01*
X3650223Y28635030D02*
X1165223Y28635030D01*
X-634777Y28635030D02*
X-1259778Y29260031D01*
G04 #@! TO.N,/LED_L*
X-3649777Y27365030D02*
X-6234777Y27365030D01*
X-6234777Y27365030D02*
X-7399777Y26200030D01*
X-7399777Y23880030D02*
X-8485183Y22794624D01*
X-7399777Y26200030D02*
X-7399777Y23880030D01*
D18*
G04 #@! TO.N,/LED_R*
X5579460Y26720031D02*
X280222Y26720031D01*
X8485629Y22794624D02*
X8485629Y23813862D01*
X8485629Y23813862D02*
X5579460Y26720031D01*
D17*
X280222Y26720031D02*
X-1634777Y28635030D01*
X-1634777Y28635030D02*
X-3649777Y28635030D01*
G04 #@! TD*
D19*
G36*
X-1114380Y32119095D02*
X-1051400Y32077013D01*
X-926849Y32052238D01*
X-802934Y32024649D01*
X-728333Y32037733D01*
X728417Y32037733D01*
X803018Y32024649D01*
X926927Y32052237D01*
X1051484Y32077013D01*
X1114466Y32119096D01*
X2823690Y32873030D01*
X3873223Y32873030D01*
X3873223Y31827030D01*
X2481665Y31827030D01*
X2400222Y31843230D01*
X2318779Y31827030D01*
X2318775Y31827030D01*
X2077544Y31779046D01*
X1803990Y31596263D01*
X1757852Y31527213D01*
X1273040Y31042400D01*
X1203991Y30996263D01*
X1021207Y30722709D01*
X973223Y30481478D01*
X973223Y30481474D01*
X957023Y30400030D01*
X973223Y30318586D01*
X973223Y29881474D01*
X957023Y29800030D01*
X973223Y29718586D01*
X973223Y29718583D01*
X1021207Y29477352D01*
X1031445Y29462030D01*
X-292223Y29462030D01*
X-732594Y29902400D01*
X-937100Y30039047D01*
X-1259778Y30103231D01*
X-1582456Y30039047D01*
X-1660304Y29987031D01*
X-2160494Y29987031D01*
X-2160494Y30230030D01*
X-2209157Y30474673D01*
X-2347736Y30682071D01*
X-2555134Y30820650D01*
X-2799777Y30869313D01*
X-4499777Y30869313D01*
X-4744420Y30820650D01*
X-4951818Y30682071D01*
X-5090397Y30474673D01*
X-5139060Y30230030D01*
X-5139060Y30079218D01*
X-5259779Y30103231D01*
X-5582457Y30039046D01*
X-5600440Y30027030D01*
X-11118329Y30027030D01*
X-11199777Y30043231D01*
X-11522456Y29979046D01*
X-11726962Y29842400D01*
X-11726964Y29842398D01*
X-11796010Y29796263D01*
X-11842145Y29727216D01*
X-14126958Y27442402D01*
X-14196010Y27396263D01*
X-14378793Y27122708D01*
X-14426777Y26881477D01*
X-14426777Y26881474D01*
X-14442977Y26800030D01*
X-14426777Y26718586D01*
X-14426776Y16881479D01*
X-14442977Y16800030D01*
X-14378793Y16477352D01*
X-14300900Y16360778D01*
X-14196009Y16203797D01*
X-14126960Y16157660D01*
X-7347145Y9377843D01*
X-7301010Y9308797D01*
X-7231964Y9262662D01*
X-7231962Y9262660D01*
X-7028977Y9127030D01*
X-16872777Y9127030D01*
X-16872777Y32873030D01*
X-2823607Y32873030D01*
X-1114380Y32119095D01*
X-1114380Y32119095D01*
G37*
X-1114380Y32119095D02*
X-1051400Y32077013D01*
X-926849Y32052238D01*
X-802934Y32024649D01*
X-728333Y32037733D01*
X728417Y32037733D01*
X803018Y32024649D01*
X926927Y32052237D01*
X1051484Y32077013D01*
X1114466Y32119096D01*
X2823690Y32873030D01*
X3873223Y32873030D01*
X3873223Y31827030D01*
X2481665Y31827030D01*
X2400222Y31843230D01*
X2318779Y31827030D01*
X2318775Y31827030D01*
X2077544Y31779046D01*
X1803990Y31596263D01*
X1757852Y31527213D01*
X1273040Y31042400D01*
X1203991Y30996263D01*
X1021207Y30722709D01*
X973223Y30481478D01*
X973223Y30481474D01*
X957023Y30400030D01*
X973223Y30318586D01*
X973223Y29881474D01*
X957023Y29800030D01*
X973223Y29718586D01*
X973223Y29718583D01*
X1021207Y29477352D01*
X1031445Y29462030D01*
X-292223Y29462030D01*
X-732594Y29902400D01*
X-937100Y30039047D01*
X-1259778Y30103231D01*
X-1582456Y30039047D01*
X-1660304Y29987031D01*
X-2160494Y29987031D01*
X-2160494Y30230030D01*
X-2209157Y30474673D01*
X-2347736Y30682071D01*
X-2555134Y30820650D01*
X-2799777Y30869313D01*
X-4499777Y30869313D01*
X-4744420Y30820650D01*
X-4951818Y30682071D01*
X-5090397Y30474673D01*
X-5139060Y30230030D01*
X-5139060Y30079218D01*
X-5259779Y30103231D01*
X-5582457Y30039046D01*
X-5600440Y30027030D01*
X-11118329Y30027030D01*
X-11199777Y30043231D01*
X-11522456Y29979046D01*
X-11726962Y29842400D01*
X-11726964Y29842398D01*
X-11796010Y29796263D01*
X-11842145Y29727216D01*
X-14126958Y27442402D01*
X-14196010Y27396263D01*
X-14378793Y27122708D01*
X-14426777Y26881477D01*
X-14426777Y26881474D01*
X-14442977Y26800030D01*
X-14426777Y26718586D01*
X-14426776Y16881479D01*
X-14442977Y16800030D01*
X-14378793Y16477352D01*
X-14300900Y16360778D01*
X-14196009Y16203797D01*
X-14126960Y16157660D01*
X-7347145Y9377843D01*
X-7301010Y9308797D01*
X-7231964Y9262662D01*
X-7231962Y9262660D01*
X-7028977Y9127030D01*
X-16872777Y9127030D01*
X-16872777Y32873030D01*
X-2823607Y32873030D01*
X-1114380Y32119095D01*
G36*
X3873223Y10732030D02*
X2409506Y10732030D01*
X2409506Y11480030D01*
X2360843Y11724673D01*
X2222264Y11932071D01*
X2014866Y12070650D01*
X1770223Y12119313D01*
X770223Y12119313D01*
X525580Y12070650D01*
X318182Y11932071D01*
X179603Y11724673D01*
X130940Y11480030D01*
X130940Y9127030D01*
X-130494Y9127030D01*
X-130494Y11480030D01*
X-179157Y11724673D01*
X-317736Y11932071D01*
X-430675Y12007534D01*
X-430675Y13360747D01*
X625223Y13360747D01*
X869866Y13409410D01*
X1077264Y13547989D01*
X1215843Y13755387D01*
X1264506Y14000030D01*
X1264506Y15500030D01*
X1215843Y15744673D01*
X1077264Y15952071D01*
X1005488Y16000030D01*
X1077264Y16047989D01*
X1215843Y16255387D01*
X1246430Y16409156D01*
X1258121Y16406830D01*
X1339565Y16423030D01*
X1339569Y16423030D01*
X1580800Y16471014D01*
X1854354Y16653797D01*
X1900493Y16722849D01*
X3873223Y18695578D01*
X3873223Y10732030D01*
X3873223Y10732030D01*
G37*
X3873223Y10732030D02*
X2409506Y10732030D01*
X2409506Y11480030D01*
X2360843Y11724673D01*
X2222264Y11932071D01*
X2014866Y12070650D01*
X1770223Y12119313D01*
X770223Y12119313D01*
X525580Y12070650D01*
X318182Y11932071D01*
X179603Y11724673D01*
X130940Y11480030D01*
X130940Y9127030D01*
X-130494Y9127030D01*
X-130494Y11480030D01*
X-179157Y11724673D01*
X-317736Y11932071D01*
X-430675Y12007534D01*
X-430675Y13360747D01*
X625223Y13360747D01*
X869866Y13409410D01*
X1077264Y13547989D01*
X1215843Y13755387D01*
X1264506Y14000030D01*
X1264506Y15500030D01*
X1215843Y15744673D01*
X1077264Y15952071D01*
X1005488Y16000030D01*
X1077264Y16047989D01*
X1215843Y16255387D01*
X1246430Y16409156D01*
X1258121Y16406830D01*
X1339565Y16423030D01*
X1339569Y16423030D01*
X1580800Y16471014D01*
X1854354Y16653797D01*
X1900493Y16722849D01*
X3873223Y18695578D01*
X3873223Y10732030D01*
G36*
X-5139060Y28310030D02*
X-5115588Y28192030D01*
X-6153333Y28192030D01*
X-6234777Y28208230D01*
X-6316221Y28192030D01*
X-6316225Y28192030D01*
X-6557456Y28144046D01*
X-6831010Y27961263D01*
X-6877147Y27892213D01*
X-7926958Y26842402D01*
X-7996010Y26796263D01*
X-8178793Y26522708D01*
X-8226777Y26281477D01*
X-8226777Y26281474D01*
X-8242977Y26200030D01*
X-8226777Y26118586D01*
X-8226776Y24386521D01*
X-8414472Y24423856D01*
X-8659115Y24375193D01*
X-8866513Y24236614D01*
X-9927173Y23175954D01*
X-10065752Y22968556D01*
X-10114415Y22723913D01*
X-10065752Y22479270D01*
X-10039041Y22439294D01*
X-10079017Y22466005D01*
X-10323660Y22514668D01*
X-10568303Y22466005D01*
X-10775701Y22327426D01*
X-11836361Y21266766D01*
X-11974940Y21059368D01*
X-12023603Y20814725D01*
X-11974940Y20570082D01*
X-11836361Y20362684D01*
X-11221370Y19747693D01*
X-11221370Y19283970D01*
X-11237571Y19202522D01*
X-11173387Y18879844D01*
X-11080019Y18740109D01*
X-10990603Y18606289D01*
X-10921554Y18560152D01*
X-10351885Y17990482D01*
X-10474215Y17868152D01*
X-10612794Y17660754D01*
X-10661457Y17416111D01*
X-10612794Y17171468D01*
X-10474215Y16964070D01*
X-8635737Y15125592D01*
X-8428339Y14987013D01*
X-8183696Y14938350D01*
X-7939053Y14987013D01*
X-7731655Y15125592D01*
X-6317441Y16539806D01*
X-6178862Y16747204D01*
X-6130199Y16991847D01*
X-6172175Y17202875D01*
X-3426777Y14457475D01*
X-3426777Y12119313D01*
X-4309777Y12119313D01*
X-4554420Y12070650D01*
X-4761818Y11932071D01*
X-4900397Y11724673D01*
X-4949060Y11480030D01*
X-4949060Y10732030D01*
X-6362222Y10732030D01*
X-12772777Y17142583D01*
X-12772777Y26457477D01*
X-10857222Y28373030D01*
X-5401223Y28373030D01*
X-5319779Y28356830D01*
X-5238335Y28373030D01*
X-5238331Y28373030D01*
X-5139060Y28392776D01*
X-5139060Y28310030D01*
X-5139060Y28310030D01*
G37*
X-5139060Y28310030D02*
X-5115588Y28192030D01*
X-6153333Y28192030D01*
X-6234777Y28208230D01*
X-6316221Y28192030D01*
X-6316225Y28192030D01*
X-6557456Y28144046D01*
X-6831010Y27961263D01*
X-6877147Y27892213D01*
X-7926958Y26842402D01*
X-7996010Y26796263D01*
X-8178793Y26522708D01*
X-8226777Y26281477D01*
X-8226777Y26281474D01*
X-8242977Y26200030D01*
X-8226777Y26118586D01*
X-8226776Y24386521D01*
X-8414472Y24423856D01*
X-8659115Y24375193D01*
X-8866513Y24236614D01*
X-9927173Y23175954D01*
X-10065752Y22968556D01*
X-10114415Y22723913D01*
X-10065752Y22479270D01*
X-10039041Y22439294D01*
X-10079017Y22466005D01*
X-10323660Y22514668D01*
X-10568303Y22466005D01*
X-10775701Y22327426D01*
X-11836361Y21266766D01*
X-11974940Y21059368D01*
X-12023603Y20814725D01*
X-11974940Y20570082D01*
X-11836361Y20362684D01*
X-11221370Y19747693D01*
X-11221370Y19283970D01*
X-11237571Y19202522D01*
X-11173387Y18879844D01*
X-11080019Y18740109D01*
X-10990603Y18606289D01*
X-10921554Y18560152D01*
X-10351885Y17990482D01*
X-10474215Y17868152D01*
X-10612794Y17660754D01*
X-10661457Y17416111D01*
X-10612794Y17171468D01*
X-10474215Y16964070D01*
X-8635737Y15125592D01*
X-8428339Y14987013D01*
X-8183696Y14938350D01*
X-7939053Y14987013D01*
X-7731655Y15125592D01*
X-6317441Y16539806D01*
X-6178862Y16747204D01*
X-6130199Y16991847D01*
X-6172175Y17202875D01*
X-3426777Y14457475D01*
X-3426777Y12119313D01*
X-4309777Y12119313D01*
X-4554420Y12070650D01*
X-4761818Y11932071D01*
X-4900397Y11724673D01*
X-4949060Y11480030D01*
X-4949060Y10732030D01*
X-6362222Y10732030D01*
X-12772777Y17142583D01*
X-12772777Y26457477D01*
X-10857222Y28373030D01*
X-5401223Y28373030D01*
X-5319779Y28356830D01*
X-5238335Y28373030D01*
X-5238331Y28373030D01*
X-5139060Y28392776D01*
X-5139060Y28310030D01*
G36*
X-5043635Y18717694D02*
X-4836237Y18579115D01*
X-4591594Y18530452D01*
X-4346951Y18579115D01*
X-4139553Y18717694D01*
X-4017223Y18840024D01*
X-2084675Y16907475D01*
X-2084675Y15454483D01*
X-6372777Y19742583D01*
X-6372777Y20046836D01*
X-5043635Y18717694D01*
X-5043635Y18717694D01*
G37*
X-5043635Y18717694D02*
X-4836237Y18579115D01*
X-4591594Y18530452D01*
X-4346951Y18579115D01*
X-4139553Y18717694D01*
X-4017223Y18840024D01*
X-2084675Y16907475D01*
X-2084675Y15454483D01*
X-6372777Y19742583D01*
X-6372777Y20046836D01*
X-5043635Y18717694D01*
G36*
X-246963Y26077661D02*
X-42457Y25941015D01*
X280222Y25876830D01*
X602901Y25941015D01*
X680748Y25993031D01*
X2160940Y25993031D01*
X2160940Y25770030D01*
X2209603Y25525387D01*
X2348182Y25317989D01*
X2555580Y25179410D01*
X2800223Y25130747D01*
X2823223Y25130747D01*
X2823224Y22031479D01*
X2807023Y21950030D01*
X2871207Y21627352D01*
X2968550Y21481669D01*
X3049826Y21360031D01*
X2725785Y21035990D01*
X2587206Y20828592D01*
X2538543Y20583949D01*
X2587206Y20339306D01*
X2725785Y20131908D01*
X2848115Y20009578D01*
X1162718Y18324180D01*
X1077264Y18452071D01*
X869866Y18590650D01*
X625223Y18639313D01*
X-624777Y18639313D01*
X-869420Y18590650D01*
X-1076818Y18452071D01*
X-1162271Y18324181D01*
X-2847669Y20009578D01*
X-2725339Y20131908D01*
X-2586760Y20339306D01*
X-2538097Y20583949D01*
X-2586760Y20828592D01*
X-2609991Y20863359D01*
X-2454420Y20759410D01*
X-2209777Y20710747D01*
X-709777Y20710747D01*
X-465134Y20759410D01*
X-257736Y20897989D01*
X-119157Y21105387D01*
X-109777Y21152543D01*
X-100397Y21105387D01*
X38182Y20897989D01*
X245580Y20759410D01*
X490223Y20710747D01*
X1990223Y20710747D01*
X2234866Y20759410D01*
X2442264Y20897989D01*
X2580843Y21105387D01*
X2629506Y21350030D01*
X2629506Y22650030D01*
X2580843Y22894673D01*
X2442264Y23102071D01*
X2234866Y23240650D01*
X2067223Y23273997D01*
X2067223Y23278582D01*
X2083424Y23360030D01*
X2019239Y23682709D01*
X1882592Y23887215D01*
X1836456Y23956263D01*
X1767407Y24002400D01*
X1242595Y24527211D01*
X1196456Y24596263D01*
X922902Y24779046D01*
X681671Y24827030D01*
X681667Y24827030D01*
X600223Y24843230D01*
X518779Y24827030D01*
X-2257223Y24827030D01*
X-2600566Y25170373D01*
X-2555134Y25179410D01*
X-2347736Y25317989D01*
X-2209157Y25525387D01*
X-2160494Y25770030D01*
X-2160494Y26420030D01*
X-2209157Y26664673D01*
X-2252827Y26730030D01*
X-2209157Y26795387D01*
X-2160494Y27040030D01*
X-2160494Y27690030D01*
X-2183966Y27808030D01*
X-1977330Y27808030D01*
X-246963Y26077661D01*
X-246963Y26077661D01*
G37*
X-246963Y26077661D02*
X-42457Y25941015D01*
X280222Y25876830D01*
X602901Y25941015D01*
X680748Y25993031D01*
X2160940Y25993031D01*
X2160940Y25770030D01*
X2209603Y25525387D01*
X2348182Y25317989D01*
X2555580Y25179410D01*
X2800223Y25130747D01*
X2823223Y25130747D01*
X2823224Y22031479D01*
X2807023Y21950030D01*
X2871207Y21627352D01*
X2968550Y21481669D01*
X3049826Y21360031D01*
X2725785Y21035990D01*
X2587206Y20828592D01*
X2538543Y20583949D01*
X2587206Y20339306D01*
X2725785Y20131908D01*
X2848115Y20009578D01*
X1162718Y18324180D01*
X1077264Y18452071D01*
X869866Y18590650D01*
X625223Y18639313D01*
X-624777Y18639313D01*
X-869420Y18590650D01*
X-1076818Y18452071D01*
X-1162271Y18324181D01*
X-2847669Y20009578D01*
X-2725339Y20131908D01*
X-2586760Y20339306D01*
X-2538097Y20583949D01*
X-2586760Y20828592D01*
X-2609991Y20863359D01*
X-2454420Y20759410D01*
X-2209777Y20710747D01*
X-709777Y20710747D01*
X-465134Y20759410D01*
X-257736Y20897989D01*
X-119157Y21105387D01*
X-109777Y21152543D01*
X-100397Y21105387D01*
X38182Y20897989D01*
X245580Y20759410D01*
X490223Y20710747D01*
X1990223Y20710747D01*
X2234866Y20759410D01*
X2442264Y20897989D01*
X2580843Y21105387D01*
X2629506Y21350030D01*
X2629506Y22650030D01*
X2580843Y22894673D01*
X2442264Y23102071D01*
X2234866Y23240650D01*
X2067223Y23273997D01*
X2067223Y23278582D01*
X2083424Y23360030D01*
X2019239Y23682709D01*
X1882592Y23887215D01*
X1836456Y23956263D01*
X1767407Y24002400D01*
X1242595Y24527211D01*
X1196456Y24596263D01*
X922902Y24779046D01*
X681671Y24827030D01*
X681667Y24827030D01*
X600223Y24843230D01*
X518779Y24827030D01*
X-2257223Y24827030D01*
X-2600566Y25170373D01*
X-2555134Y25179410D01*
X-2347736Y25317989D01*
X-2209157Y25525387D01*
X-2160494Y25770030D01*
X-2160494Y26420030D01*
X-2209157Y26664673D01*
X-2252827Y26730030D01*
X-2209157Y26795387D01*
X-2160494Y27040030D01*
X-2160494Y27690030D01*
X-2183966Y27808030D01*
X-1977330Y27808030D01*
X-246963Y26077661D01*
G36*
X-8026776Y19481478D02*
X-8042977Y19400030D01*
X-7985718Y19112165D01*
X-8155919Y19282366D01*
X-8363317Y19420945D01*
X-8607960Y19469608D01*
X-8852603Y19420945D01*
X-9060001Y19282366D01*
X-9182331Y19160036D01*
X-9567371Y19545075D01*
X-9567371Y19889116D01*
X-8952381Y20504106D01*
X-8813802Y20711504D01*
X-8765139Y20956147D01*
X-8813802Y21200790D01*
X-8840513Y21240766D01*
X-8800537Y21214055D01*
X-8555894Y21165392D01*
X-8311251Y21214055D01*
X-8103853Y21352634D01*
X-8026777Y21429710D01*
X-8026776Y19481478D01*
X-8026776Y19481478D01*
G37*
X-8026776Y19481478D02*
X-8042977Y19400030D01*
X-7985718Y19112165D01*
X-8155919Y19282366D01*
X-8363317Y19420945D01*
X-8607960Y19469608D01*
X-8852603Y19420945D01*
X-9060001Y19282366D01*
X-9182331Y19160036D01*
X-9567371Y19545075D01*
X-9567371Y19889116D01*
X-8952381Y20504106D01*
X-8813802Y20711504D01*
X-8765139Y20956147D01*
X-8813802Y21200790D01*
X-8840513Y21240766D01*
X-8800537Y21214055D01*
X-8555894Y21165392D01*
X-8311251Y21214055D01*
X-8103853Y21352634D01*
X-8026777Y21429710D01*
X-8026776Y19481478D01*
G36*
X-2801803Y21112454D02*
X-2862379Y21173030D01*
X-2813852Y21173030D01*
X-2801803Y21112454D01*
X-2801803Y21112454D01*
G37*
X-2801803Y21112454D02*
X-2862379Y21173030D01*
X-2813852Y21173030D01*
X-2801803Y21112454D01*
G36*
X-3242146Y23472844D02*
X-3196010Y23403797D01*
X-2922456Y23221014D01*
X-2681225Y23173030D01*
X-2681221Y23173030D01*
X-2599778Y23156830D01*
X-2571425Y23162470D01*
X-2661818Y23102071D01*
X-2800397Y22894673D01*
X-2813852Y22827030D01*
X-3518334Y22827030D01*
X-3599778Y22843230D01*
X-3681222Y22827030D01*
X-3681225Y22827030D01*
X-3922456Y22779046D01*
X-4196010Y22596263D01*
X-4231900Y22542551D01*
X-4563817Y22874468D01*
X-4678894Y22951360D01*
X-3699777Y23930476D01*
X-3242146Y23472844D01*
X-3242146Y23472844D01*
G37*
X-3242146Y23472844D02*
X-3196010Y23403797D01*
X-2922456Y23221014D01*
X-2681225Y23173030D01*
X-2681221Y23173030D01*
X-2599778Y23156830D01*
X-2571425Y23162470D01*
X-2661818Y23102071D01*
X-2800397Y22894673D01*
X-2813852Y22827030D01*
X-3518334Y22827030D01*
X-3599778Y22843230D01*
X-3681222Y22827030D01*
X-3681225Y22827030D01*
X-3922456Y22779046D01*
X-4196010Y22596263D01*
X-4231900Y22542551D01*
X-4563817Y22874468D01*
X-4678894Y22951360D01*
X-3699777Y23930476D01*
X-3242146Y23472844D01*
G36*
X38182Y23102071D02*
X-100397Y22894673D01*
X-109777Y22847517D01*
X-119157Y22894673D01*
X-257736Y23102071D01*
X-363934Y23173030D01*
X144380Y23173030D01*
X38182Y23102071D01*
X38182Y23102071D01*
G37*
X38182Y23102071D02*
X-100397Y22894673D01*
X-109777Y22847517D01*
X-119157Y22894673D01*
X-257736Y23102071D01*
X-363934Y23173030D01*
X144380Y23173030D01*
X38182Y23102071D01*
G36*
X-5139060Y26420030D02*
X-5139060Y25770030D01*
X-5090397Y25525387D01*
X-4951818Y25317989D01*
X-4771714Y25197647D01*
X-6897110Y23072251D01*
X-6904614Y23109978D01*
X-6942930Y23167323D01*
X-6872594Y23237660D01*
X-6803544Y23283797D01*
X-6620761Y23557351D01*
X-6572777Y23798582D01*
X-6572777Y23798586D01*
X-6556577Y23880030D01*
X-6572777Y23961474D01*
X-6572777Y25857477D01*
X-5892223Y26538030D01*
X-5115588Y26538030D01*
X-5139060Y26420030D01*
X-5139060Y26420030D01*
G37*
X-5139060Y26420030D02*
X-5139060Y25770030D01*
X-5090397Y25525387D01*
X-4951818Y25317989D01*
X-4771714Y25197647D01*
X-6897110Y23072251D01*
X-6904614Y23109978D01*
X-6942930Y23167323D01*
X-6872594Y23237660D01*
X-6803544Y23283797D01*
X-6620761Y23557351D01*
X-6572777Y23798582D01*
X-6572777Y23798586D01*
X-6556577Y23880030D01*
X-6572777Y23961474D01*
X-6572777Y25857477D01*
X-5892223Y26538030D01*
X-5115588Y26538030D01*
X-5139060Y26420030D01*
G36*
X2160940Y27690030D02*
X2160940Y27447031D01*
X722777Y27447031D01*
X361777Y27808030D01*
X2184412Y27808030D01*
X2160940Y27690030D01*
X2160940Y27690030D01*
G37*
X2160940Y27690030D02*
X2160940Y27447031D01*
X722777Y27447031D01*
X361777Y27808030D01*
X2184412Y27808030D01*
X2160940Y27690030D01*
D20*
G04 #@! TO.N,GND*
G36*
X-12976908Y37355130D02*
X-12929870Y37322130D01*
X-12920690Y37318081D01*
X-12912307Y37312556D01*
X-12859044Y37290889D01*
X-1118241Y32112054D01*
X-1054521Y32069478D01*
X-928505Y32044412D01*
X-803120Y32016495D01*
X-727641Y32029733D01*
X727724Y32029733D01*
X803203Y32016495D01*
X928585Y32044411D01*
X1054605Y32069478D01*
X1118325Y32112054D01*
X12859102Y37290880D01*
X12912295Y37312509D01*
X12920717Y37318058D01*
X12929947Y37322129D01*
X12976966Y37355116D01*
X22534576Y43651903D01*
X24337557Y42271891D01*
X21615762Y25652463D01*
X17597359Y18150834D01*
X17541365Y18068970D01*
X17519555Y17965220D01*
X17488689Y17863796D01*
X17498321Y17765084D01*
X17426680Y11161633D01*
X17423182Y11118023D01*
X17425950Y11094335D01*
X17425691Y11070487D01*
X17433761Y11027485D01*
X17868930Y7303082D01*
X12057113Y4439112D01*
X3106081Y1932692D01*
X2999932Y1912173D01*
X2918922Y1858676D01*
X2832351Y1814769D01*
X2761995Y1732704D01*
X1702870Y684973D01*
X-1702979Y684973D01*
X-2761833Y1732699D01*
X-2832259Y1814836D01*
X-2918793Y1858718D01*
X-2999727Y1912180D01*
X-3105921Y1932721D01*
X-12059070Y4439160D01*
X-17870864Y7303121D01*
X-17435714Y11027430D01*
X-17427650Y11070334D01*
X-17427903Y11094279D01*
X-17425124Y11118064D01*
X-17428614Y11161578D01*
X-17491763Y17137489D01*
X-17484685Y17158975D01*
X-17493194Y17272997D01*
X-17493676Y17318569D01*
X-17498206Y17340148D01*
X-17504966Y17430729D01*
X-17525956Y17472339D01*
X-17535530Y17517949D01*
X-17586787Y17592933D01*
X-17596719Y17612623D01*
X-17624793Y17648533D01*
X-17689313Y17742920D01*
X-17708253Y17755288D01*
X-18242270Y18438357D01*
X-18240823Y19143515D01*
X-18230749Y19246584D01*
X-18260328Y19343832D01*
X-18279952Y19443561D01*
X-18337307Y19529781D01*
X-21615752Y25652445D01*
X-21803694Y26800030D01*
X-14451134Y26800030D01*
X-14434777Y26717797D01*
X-14434776Y16882268D01*
X-14451134Y16800030D01*
X-14386329Y16474230D01*
X-14336749Y16400029D01*
X-14201777Y16198029D01*
X-14132059Y16151445D01*
X-7353362Y9372747D01*
X-7306778Y9303029D01*
X-7030578Y9118478D01*
X-6787014Y9070030D01*
X-6704777Y9053672D01*
X-6622540Y9070030D01*
X-4957217Y9070030D01*
X-4957217Y8330030D01*
X-4907934Y8082265D01*
X-4767586Y7872221D01*
X-4557542Y7731873D01*
X-4309777Y7682590D01*
X-3498085Y7682590D01*
X-4103205Y7077470D01*
X-4309777Y7077470D01*
X-4557542Y7028187D01*
X-4767586Y6887839D01*
X-4907934Y6677795D01*
X-4957217Y6430030D01*
X-4957217Y3280030D01*
X-4907934Y3032265D01*
X-4767586Y2822221D01*
X-4557542Y2681873D01*
X-4309777Y2632590D01*
X-3309777Y2632590D01*
X-3062012Y2681873D01*
X-2851968Y2822221D01*
X-2711620Y3032265D01*
X-2662337Y3280030D01*
X-2662337Y4569280D01*
X-2404777Y4569280D01*
X-2404777Y3153721D01*
X-2308104Y2920332D01*
X-2129476Y2741703D01*
X-1896087Y2645030D01*
X-1555527Y2645030D01*
X-1396777Y2803780D01*
X-1396777Y4728030D01*
X-1142777Y4728030D01*
X-1142777Y2803780D01*
X-984027Y2645030D01*
X-643467Y2645030D01*
X-410078Y2741703D01*
X-231450Y2920332D01*
X-134777Y3153721D01*
X-134777Y4569280D01*
X-293527Y4728030D01*
X-1142777Y4728030D01*
X-1396777Y4728030D01*
X-2246027Y4728030D01*
X-2404777Y4569280D01*
X-2662337Y4569280D01*
X-2662337Y6156602D01*
X-2404777Y6414162D01*
X-2404777Y5140780D01*
X-2246027Y4982030D01*
X-1396777Y4982030D01*
X-1396777Y6906280D01*
X-1142777Y6906280D01*
X-1142777Y4982030D01*
X-293527Y4982030D01*
X-134777Y5140780D01*
X-134777Y6556339D01*
X-231450Y6789728D01*
X-410078Y6968357D01*
X-643467Y7065030D01*
X-984027Y7065030D01*
X-1142777Y6906280D01*
X-1396777Y6906280D01*
X-1555527Y7065030D01*
X-1819372Y7065030D01*
X-1813225Y7074229D01*
X-1785997Y7211113D01*
X-1764777Y7317793D01*
X-1764777Y7317796D01*
X-1748420Y7400029D01*
X-1764777Y7482262D01*
X-1764777Y7682590D01*
X-769777Y7682590D01*
X-522012Y7731873D01*
X-311968Y7872221D01*
X-171620Y8082265D01*
X-122337Y8330030D01*
X-122337Y11480030D01*
X-171620Y11727795D01*
X-311968Y11937839D01*
X-422675Y12011812D01*
X-422675Y13365030D01*
X-285527Y13365030D01*
X-126777Y13523780D01*
X-126777Y14623030D01*
X127223Y14623030D01*
X127223Y13523780D01*
X285973Y13365030D01*
X751533Y13365030D01*
X984922Y13461703D01*
X1163550Y13640332D01*
X1260223Y13873721D01*
X1260223Y14464280D01*
X1101473Y14623030D01*
X127223Y14623030D01*
X-126777Y14623030D01*
X-146777Y14623030D01*
X-146777Y14877030D01*
X-126777Y14877030D01*
X-126777Y14897030D01*
X127223Y14897030D01*
X127223Y14877030D01*
X1101473Y14877030D01*
X1260223Y15035780D01*
X1260223Y15626339D01*
X1163550Y15859728D01*
X1021903Y16001376D01*
X1083032Y16042221D01*
X1223380Y16252265D01*
X1252716Y16399748D01*
X1258121Y16398673D01*
X1340354Y16415030D01*
X1340358Y16415030D01*
X1583922Y16463478D01*
X1860122Y16648029D01*
X1906708Y16717750D01*
X4017558Y18828599D01*
X4134231Y18711926D01*
X4344275Y18571578D01*
X4592040Y18522295D01*
X4839805Y18571578D01*
X5049849Y18711926D01*
X6888327Y20550404D01*
X7028675Y20760448D01*
X7077958Y21008213D01*
X7028675Y21255978D01*
X6888327Y21466022D01*
X5474113Y22880236D01*
X5264069Y23020584D01*
X5016304Y23069867D01*
X4768539Y23020584D01*
X4558495Y22880236D01*
X4485223Y22806964D01*
X4485223Y25122590D01*
X4500223Y25122590D01*
X4747988Y25171873D01*
X4958032Y25312221D01*
X5098380Y25522265D01*
X5147663Y25770030D01*
X5147663Y25985031D01*
X5275014Y25985031D01*
X7487386Y23772659D01*
X7037871Y23323144D01*
X6897523Y23113100D01*
X6848240Y22865335D01*
X6897523Y22617570D01*
X7037871Y22407526D01*
X8098531Y21346866D01*
X8308575Y21206518D01*
X8556340Y21157235D01*
X8804105Y21206518D01*
X8811959Y21211766D01*
X8806711Y21203912D01*
X8757428Y20956147D01*
X8806711Y20708382D01*
X8947059Y20498338D01*
X9559818Y19885579D01*
X9559818Y19548391D01*
X9182888Y19171461D01*
X9066215Y19288134D01*
X8856171Y19428482D01*
X8608406Y19477765D01*
X8360641Y19428482D01*
X8150597Y19288134D01*
X6312119Y17449656D01*
X6171771Y17239612D01*
X6122488Y16991847D01*
X6171771Y16744082D01*
X6312119Y16534038D01*
X7726333Y15119824D01*
X7936377Y14979476D01*
X8184142Y14930193D01*
X8431907Y14979476D01*
X8641951Y15119824D01*
X10480429Y16958302D01*
X10620777Y17168346D01*
X10670060Y17416111D01*
X10620777Y17663876D01*
X10480429Y17873920D01*
X10363756Y17990593D01*
X10927100Y18553937D01*
X10996818Y18600521D01*
X11181369Y18876721D01*
X11229817Y19120285D01*
X11246175Y19202522D01*
X11229817Y19284759D01*
X11229817Y19744158D01*
X11842575Y20356916D01*
X11982923Y20566960D01*
X12032206Y20814725D01*
X11982923Y21062490D01*
X11842575Y21272534D01*
X10781915Y22333194D01*
X10571871Y22473542D01*
X10324106Y22522825D01*
X10076341Y22473542D01*
X10068487Y22468294D01*
X10073735Y22476148D01*
X10123018Y22723913D01*
X10073735Y22971678D01*
X9933387Y23181722D01*
X9218585Y23896524D01*
X9177983Y24100644D01*
X9177983Y24100645D01*
X9015534Y24343767D01*
X8954166Y24384771D01*
X6150371Y27188566D01*
X6109365Y27249936D01*
X5866243Y27412385D01*
X5791664Y27427220D01*
X5892577Y27578247D01*
X5935223Y27792642D01*
X5935223Y27792646D01*
X5949621Y27865030D01*
X5935223Y27937414D01*
X5935223Y28927647D01*
X5949621Y29000031D01*
X5935697Y29070030D01*
X7549356Y29070030D01*
X12765223Y23854161D01*
X12765224Y16745899D01*
X6759356Y10740030D01*
X2417663Y10740030D01*
X2417663Y11480030D01*
X2368380Y11727795D01*
X2228032Y11937839D01*
X2017988Y12078187D01*
X1770223Y12127470D01*
X770223Y12127470D01*
X522458Y12078187D01*
X312414Y11937839D01*
X172066Y11727795D01*
X122783Y11480030D01*
X122783Y8330030D01*
X172066Y8082265D01*
X312414Y7872221D01*
X522458Y7731873D01*
X770223Y7682590D01*
X1770223Y7682590D01*
X2017988Y7731873D01*
X2228032Y7872221D01*
X2368380Y8082265D01*
X2417663Y8330030D01*
X2417663Y9070030D01*
X7022990Y9070030D01*
X7105223Y9053673D01*
X7187456Y9070030D01*
X7187460Y9070030D01*
X7431024Y9118478D01*
X7707224Y9303029D01*
X7753810Y9372750D01*
X13765224Y15384163D01*
X13765224Y12945899D01*
X6509356Y5690030D01*
X2417663Y5690030D01*
X2417663Y6430030D01*
X2368380Y6677795D01*
X2228032Y6887839D01*
X2017988Y7028187D01*
X1770223Y7077470D01*
X770223Y7077470D01*
X522458Y7028187D01*
X312414Y6887839D01*
X172066Y6677795D01*
X122783Y6430030D01*
X122783Y3280030D01*
X172066Y3032265D01*
X312414Y2822221D01*
X522458Y2681873D01*
X770223Y2632590D01*
X1770223Y2632590D01*
X2017988Y2681873D01*
X2228032Y2822221D01*
X2368380Y3032265D01*
X2417663Y3280030D01*
X2417663Y4020030D01*
X6772990Y4020030D01*
X6855223Y4003673D01*
X6937456Y4020030D01*
X6937460Y4020030D01*
X7181024Y4068478D01*
X7457224Y4253029D01*
X7503810Y4322750D01*
X15132506Y11951445D01*
X15202224Y11998029D01*
X15386775Y12274229D01*
X15435223Y12517793D01*
X15435223Y12517796D01*
X15451580Y12600029D01*
X15435223Y12682262D01*
X15435223Y24517793D01*
X15451581Y24600030D01*
X15386775Y24925831D01*
X15296231Y25061339D01*
X15202224Y25202031D01*
X15132506Y25248615D01*
X8848810Y31532310D01*
X8802224Y31602031D01*
X8526024Y31786582D01*
X8282460Y31835030D01*
X8282456Y31835030D01*
X8200223Y31851387D01*
X8117990Y31835030D01*
X2482455Y31835030D01*
X2400222Y31851387D01*
X2317989Y31835030D01*
X2317986Y31835030D01*
X2074422Y31786582D01*
X1798222Y31602031D01*
X1751637Y31532312D01*
X1267941Y31048615D01*
X1198223Y31002031D01*
X1013671Y30725831D01*
X965223Y30482267D01*
X965223Y30482263D01*
X948866Y30400030D01*
X965223Y30317797D01*
X965223Y29882263D01*
X948866Y29800030D01*
X965223Y29717797D01*
X965223Y29717794D01*
X1013671Y29474230D01*
X1016477Y29470030D01*
X-288909Y29470030D01*
X-727495Y29908615D01*
X-933978Y30046583D01*
X-1259778Y30111388D01*
X-1585578Y30046583D01*
X-1662731Y29995031D01*
X-2164777Y29995031D01*
X-2164777Y30032032D01*
X-2323525Y30032032D01*
X-2164777Y30190780D01*
X-2164777Y30356340D01*
X-2261450Y30589729D01*
X-2440079Y30768357D01*
X-2673468Y30865030D01*
X-3364027Y30865030D01*
X-3522777Y30706280D01*
X-3522777Y30032030D01*
X-3502777Y30032030D01*
X-3502777Y29995031D01*
X-3796777Y29995031D01*
X-3796777Y30032030D01*
X-3776777Y30032030D01*
X-3776777Y30706280D01*
X-3935527Y30865030D01*
X-4626086Y30865030D01*
X-4859475Y30768357D01*
X-5038104Y30589729D01*
X-5134777Y30356340D01*
X-5134777Y30190780D01*
X-5004634Y30060637D01*
X-5259779Y30111388D01*
X-5585578Y30046583D01*
X-5602868Y30035030D01*
X-11117540Y30035030D01*
X-11199777Y30051388D01*
X-11282014Y30035030D01*
X-11525578Y29986582D01*
X-11801778Y29802031D01*
X-11848362Y29732313D01*
X-14132057Y27448617D01*
X-14201778Y27402031D01*
X-14386329Y27125830D01*
X-14434777Y26882266D01*
X-14434777Y26882263D01*
X-14451134Y26800030D01*
X-21803694Y26800030D01*
X-24337595Y42272158D01*
X-22534342Y43653788D01*
X-12976908Y37355130D01*
X-12976908Y37355130D01*
G37*
X-12976908Y37355130D02*
X-12929870Y37322130D01*
X-12920690Y37318081D01*
X-12912307Y37312556D01*
X-12859044Y37290889D01*
X-1118241Y32112054D01*
X-1054521Y32069478D01*
X-928505Y32044412D01*
X-803120Y32016495D01*
X-727641Y32029733D01*
X727724Y32029733D01*
X803203Y32016495D01*
X928585Y32044411D01*
X1054605Y32069478D01*
X1118325Y32112054D01*
X12859102Y37290880D01*
X12912295Y37312509D01*
X12920717Y37318058D01*
X12929947Y37322129D01*
X12976966Y37355116D01*
X22534576Y43651903D01*
X24337557Y42271891D01*
X21615762Y25652463D01*
X17597359Y18150834D01*
X17541365Y18068970D01*
X17519555Y17965220D01*
X17488689Y17863796D01*
X17498321Y17765084D01*
X17426680Y11161633D01*
X17423182Y11118023D01*
X17425950Y11094335D01*
X17425691Y11070487D01*
X17433761Y11027485D01*
X17868930Y7303082D01*
X12057113Y4439112D01*
X3106081Y1932692D01*
X2999932Y1912173D01*
X2918922Y1858676D01*
X2832351Y1814769D01*
X2761995Y1732704D01*
X1702870Y684973D01*
X-1702979Y684973D01*
X-2761833Y1732699D01*
X-2832259Y1814836D01*
X-2918793Y1858718D01*
X-2999727Y1912180D01*
X-3105921Y1932721D01*
X-12059070Y4439160D01*
X-17870864Y7303121D01*
X-17435714Y11027430D01*
X-17427650Y11070334D01*
X-17427903Y11094279D01*
X-17425124Y11118064D01*
X-17428614Y11161578D01*
X-17491763Y17137489D01*
X-17484685Y17158975D01*
X-17493194Y17272997D01*
X-17493676Y17318569D01*
X-17498206Y17340148D01*
X-17504966Y17430729D01*
X-17525956Y17472339D01*
X-17535530Y17517949D01*
X-17586787Y17592933D01*
X-17596719Y17612623D01*
X-17624793Y17648533D01*
X-17689313Y17742920D01*
X-17708253Y17755288D01*
X-18242270Y18438357D01*
X-18240823Y19143515D01*
X-18230749Y19246584D01*
X-18260328Y19343832D01*
X-18279952Y19443561D01*
X-18337307Y19529781D01*
X-21615752Y25652445D01*
X-21803694Y26800030D01*
X-14451134Y26800030D01*
X-14434777Y26717797D01*
X-14434776Y16882268D01*
X-14451134Y16800030D01*
X-14386329Y16474230D01*
X-14336749Y16400029D01*
X-14201777Y16198029D01*
X-14132059Y16151445D01*
X-7353362Y9372747D01*
X-7306778Y9303029D01*
X-7030578Y9118478D01*
X-6787014Y9070030D01*
X-6704777Y9053672D01*
X-6622540Y9070030D01*
X-4957217Y9070030D01*
X-4957217Y8330030D01*
X-4907934Y8082265D01*
X-4767586Y7872221D01*
X-4557542Y7731873D01*
X-4309777Y7682590D01*
X-3498085Y7682590D01*
X-4103205Y7077470D01*
X-4309777Y7077470D01*
X-4557542Y7028187D01*
X-4767586Y6887839D01*
X-4907934Y6677795D01*
X-4957217Y6430030D01*
X-4957217Y3280030D01*
X-4907934Y3032265D01*
X-4767586Y2822221D01*
X-4557542Y2681873D01*
X-4309777Y2632590D01*
X-3309777Y2632590D01*
X-3062012Y2681873D01*
X-2851968Y2822221D01*
X-2711620Y3032265D01*
X-2662337Y3280030D01*
X-2662337Y4569280D01*
X-2404777Y4569280D01*
X-2404777Y3153721D01*
X-2308104Y2920332D01*
X-2129476Y2741703D01*
X-1896087Y2645030D01*
X-1555527Y2645030D01*
X-1396777Y2803780D01*
X-1396777Y4728030D01*
X-1142777Y4728030D01*
X-1142777Y2803780D01*
X-984027Y2645030D01*
X-643467Y2645030D01*
X-410078Y2741703D01*
X-231450Y2920332D01*
X-134777Y3153721D01*
X-134777Y4569280D01*
X-293527Y4728030D01*
X-1142777Y4728030D01*
X-1396777Y4728030D01*
X-2246027Y4728030D01*
X-2404777Y4569280D01*
X-2662337Y4569280D01*
X-2662337Y6156602D01*
X-2404777Y6414162D01*
X-2404777Y5140780D01*
X-2246027Y4982030D01*
X-1396777Y4982030D01*
X-1396777Y6906280D01*
X-1142777Y6906280D01*
X-1142777Y4982030D01*
X-293527Y4982030D01*
X-134777Y5140780D01*
X-134777Y6556339D01*
X-231450Y6789728D01*
X-410078Y6968357D01*
X-643467Y7065030D01*
X-984027Y7065030D01*
X-1142777Y6906280D01*
X-1396777Y6906280D01*
X-1555527Y7065030D01*
X-1819372Y7065030D01*
X-1813225Y7074229D01*
X-1785997Y7211113D01*
X-1764777Y7317793D01*
X-1764777Y7317796D01*
X-1748420Y7400029D01*
X-1764777Y7482262D01*
X-1764777Y7682590D01*
X-769777Y7682590D01*
X-522012Y7731873D01*
X-311968Y7872221D01*
X-171620Y8082265D01*
X-122337Y8330030D01*
X-122337Y11480030D01*
X-171620Y11727795D01*
X-311968Y11937839D01*
X-422675Y12011812D01*
X-422675Y13365030D01*
X-285527Y13365030D01*
X-126777Y13523780D01*
X-126777Y14623030D01*
X127223Y14623030D01*
X127223Y13523780D01*
X285973Y13365030D01*
X751533Y13365030D01*
X984922Y13461703D01*
X1163550Y13640332D01*
X1260223Y13873721D01*
X1260223Y14464280D01*
X1101473Y14623030D01*
X127223Y14623030D01*
X-126777Y14623030D01*
X-146777Y14623030D01*
X-146777Y14877030D01*
X-126777Y14877030D01*
X-126777Y14897030D01*
X127223Y14897030D01*
X127223Y14877030D01*
X1101473Y14877030D01*
X1260223Y15035780D01*
X1260223Y15626339D01*
X1163550Y15859728D01*
X1021903Y16001376D01*
X1083032Y16042221D01*
X1223380Y16252265D01*
X1252716Y16399748D01*
X1258121Y16398673D01*
X1340354Y16415030D01*
X1340358Y16415030D01*
X1583922Y16463478D01*
X1860122Y16648029D01*
X1906708Y16717750D01*
X4017558Y18828599D01*
X4134231Y18711926D01*
X4344275Y18571578D01*
X4592040Y18522295D01*
X4839805Y18571578D01*
X5049849Y18711926D01*
X6888327Y20550404D01*
X7028675Y20760448D01*
X7077958Y21008213D01*
X7028675Y21255978D01*
X6888327Y21466022D01*
X5474113Y22880236D01*
X5264069Y23020584D01*
X5016304Y23069867D01*
X4768539Y23020584D01*
X4558495Y22880236D01*
X4485223Y22806964D01*
X4485223Y25122590D01*
X4500223Y25122590D01*
X4747988Y25171873D01*
X4958032Y25312221D01*
X5098380Y25522265D01*
X5147663Y25770030D01*
X5147663Y25985031D01*
X5275014Y25985031D01*
X7487386Y23772659D01*
X7037871Y23323144D01*
X6897523Y23113100D01*
X6848240Y22865335D01*
X6897523Y22617570D01*
X7037871Y22407526D01*
X8098531Y21346866D01*
X8308575Y21206518D01*
X8556340Y21157235D01*
X8804105Y21206518D01*
X8811959Y21211766D01*
X8806711Y21203912D01*
X8757428Y20956147D01*
X8806711Y20708382D01*
X8947059Y20498338D01*
X9559818Y19885579D01*
X9559818Y19548391D01*
X9182888Y19171461D01*
X9066215Y19288134D01*
X8856171Y19428482D01*
X8608406Y19477765D01*
X8360641Y19428482D01*
X8150597Y19288134D01*
X6312119Y17449656D01*
X6171771Y17239612D01*
X6122488Y16991847D01*
X6171771Y16744082D01*
X6312119Y16534038D01*
X7726333Y15119824D01*
X7936377Y14979476D01*
X8184142Y14930193D01*
X8431907Y14979476D01*
X8641951Y15119824D01*
X10480429Y16958302D01*
X10620777Y17168346D01*
X10670060Y17416111D01*
X10620777Y17663876D01*
X10480429Y17873920D01*
X10363756Y17990593D01*
X10927100Y18553937D01*
X10996818Y18600521D01*
X11181369Y18876721D01*
X11229817Y19120285D01*
X11246175Y19202522D01*
X11229817Y19284759D01*
X11229817Y19744158D01*
X11842575Y20356916D01*
X11982923Y20566960D01*
X12032206Y20814725D01*
X11982923Y21062490D01*
X11842575Y21272534D01*
X10781915Y22333194D01*
X10571871Y22473542D01*
X10324106Y22522825D01*
X10076341Y22473542D01*
X10068487Y22468294D01*
X10073735Y22476148D01*
X10123018Y22723913D01*
X10073735Y22971678D01*
X9933387Y23181722D01*
X9218585Y23896524D01*
X9177983Y24100644D01*
X9177983Y24100645D01*
X9015534Y24343767D01*
X8954166Y24384771D01*
X6150371Y27188566D01*
X6109365Y27249936D01*
X5866243Y27412385D01*
X5791664Y27427220D01*
X5892577Y27578247D01*
X5935223Y27792642D01*
X5935223Y27792646D01*
X5949621Y27865030D01*
X5935223Y27937414D01*
X5935223Y28927647D01*
X5949621Y29000031D01*
X5935697Y29070030D01*
X7549356Y29070030D01*
X12765223Y23854161D01*
X12765224Y16745899D01*
X6759356Y10740030D01*
X2417663Y10740030D01*
X2417663Y11480030D01*
X2368380Y11727795D01*
X2228032Y11937839D01*
X2017988Y12078187D01*
X1770223Y12127470D01*
X770223Y12127470D01*
X522458Y12078187D01*
X312414Y11937839D01*
X172066Y11727795D01*
X122783Y11480030D01*
X122783Y8330030D01*
X172066Y8082265D01*
X312414Y7872221D01*
X522458Y7731873D01*
X770223Y7682590D01*
X1770223Y7682590D01*
X2017988Y7731873D01*
X2228032Y7872221D01*
X2368380Y8082265D01*
X2417663Y8330030D01*
X2417663Y9070030D01*
X7022990Y9070030D01*
X7105223Y9053673D01*
X7187456Y9070030D01*
X7187460Y9070030D01*
X7431024Y9118478D01*
X7707224Y9303029D01*
X7753810Y9372750D01*
X13765224Y15384163D01*
X13765224Y12945899D01*
X6509356Y5690030D01*
X2417663Y5690030D01*
X2417663Y6430030D01*
X2368380Y6677795D01*
X2228032Y6887839D01*
X2017988Y7028187D01*
X1770223Y7077470D01*
X770223Y7077470D01*
X522458Y7028187D01*
X312414Y6887839D01*
X172066Y6677795D01*
X122783Y6430030D01*
X122783Y3280030D01*
X172066Y3032265D01*
X312414Y2822221D01*
X522458Y2681873D01*
X770223Y2632590D01*
X1770223Y2632590D01*
X2017988Y2681873D01*
X2228032Y2822221D01*
X2368380Y3032265D01*
X2417663Y3280030D01*
X2417663Y4020030D01*
X6772990Y4020030D01*
X6855223Y4003673D01*
X6937456Y4020030D01*
X6937460Y4020030D01*
X7181024Y4068478D01*
X7457224Y4253029D01*
X7503810Y4322750D01*
X15132506Y11951445D01*
X15202224Y11998029D01*
X15386775Y12274229D01*
X15435223Y12517793D01*
X15435223Y12517796D01*
X15451580Y12600029D01*
X15435223Y12682262D01*
X15435223Y24517793D01*
X15451581Y24600030D01*
X15386775Y24925831D01*
X15296231Y25061339D01*
X15202224Y25202031D01*
X15132506Y25248615D01*
X8848810Y31532310D01*
X8802224Y31602031D01*
X8526024Y31786582D01*
X8282460Y31835030D01*
X8282456Y31835030D01*
X8200223Y31851387D01*
X8117990Y31835030D01*
X2482455Y31835030D01*
X2400222Y31851387D01*
X2317989Y31835030D01*
X2317986Y31835030D01*
X2074422Y31786582D01*
X1798222Y31602031D01*
X1751637Y31532312D01*
X1267941Y31048615D01*
X1198223Y31002031D01*
X1013671Y30725831D01*
X965223Y30482267D01*
X965223Y30482263D01*
X948866Y30400030D01*
X965223Y30317797D01*
X965223Y29882263D01*
X948866Y29800030D01*
X965223Y29717797D01*
X965223Y29717794D01*
X1013671Y29474230D01*
X1016477Y29470030D01*
X-288909Y29470030D01*
X-727495Y29908615D01*
X-933978Y30046583D01*
X-1259778Y30111388D01*
X-1585578Y30046583D01*
X-1662731Y29995031D01*
X-2164777Y29995031D01*
X-2164777Y30032032D01*
X-2323525Y30032032D01*
X-2164777Y30190780D01*
X-2164777Y30356340D01*
X-2261450Y30589729D01*
X-2440079Y30768357D01*
X-2673468Y30865030D01*
X-3364027Y30865030D01*
X-3522777Y30706280D01*
X-3522777Y30032030D01*
X-3502777Y30032030D01*
X-3502777Y29995031D01*
X-3796777Y29995031D01*
X-3796777Y30032030D01*
X-3776777Y30032030D01*
X-3776777Y30706280D01*
X-3935527Y30865030D01*
X-4626086Y30865030D01*
X-4859475Y30768357D01*
X-5038104Y30589729D01*
X-5134777Y30356340D01*
X-5134777Y30190780D01*
X-5004634Y30060637D01*
X-5259779Y30111388D01*
X-5585578Y30046583D01*
X-5602868Y30035030D01*
X-11117540Y30035030D01*
X-11199777Y30051388D01*
X-11282014Y30035030D01*
X-11525578Y29986582D01*
X-11801778Y29802031D01*
X-11848362Y29732313D01*
X-14132057Y27448617D01*
X-14201778Y27402031D01*
X-14386329Y27125830D01*
X-14434777Y26882266D01*
X-14434777Y26882263D01*
X-14451134Y26800030D01*
X-21803694Y26800030D01*
X-24337595Y42272158D01*
X-22534342Y43653788D01*
X-12976908Y37355130D01*
G04 #@! TD*
M02*
