G04 #@! TF.GenerationSoftware,KiCad,Pcbnew,5.0.2-1.fc29*
G04 #@! TF.CreationDate,2019-03-18T00:33:18+01:00*
G04 #@! TF.ProjectId,fuccs-shitty-addon,66756363-732d-4736-9869-7474792d6164,rev?*
G04 #@! TF.SameCoordinates,Original*
G04 #@! TF.FileFunction,Soldermask,Top*
G04 #@! TF.FilePolarity,Negative*
%FSLAX46Y46*%
G04 Gerber Fmt 4.6, Leading zero omitted, Abs format (unit mm)*
G04 Created by KiCad (PCBNEW 5.0.2-1.fc29) date Mon 18 Mar 2019 00:33:18 CET*
%MOMM*%
%LPD*%
G01*
G04 APERTURE LIST*
%ADD10C,0.010000*%
G04 APERTURE END LIST*
D10*
G04 #@! TO.C,G\002A\002A\002A*
G36*
X23847828Y43523273D02*
X24175483Y43273249D01*
X24441564Y43068750D01*
X24652227Y42904497D01*
X24813626Y42775211D01*
X24931919Y42675612D01*
X25013261Y42600420D01*
X25063807Y42544358D01*
X25089715Y42502144D01*
X25097138Y42468501D01*
X25095800Y42453000D01*
X25087247Y42401315D01*
X25065697Y42270064D01*
X25031802Y42063245D01*
X24986218Y41784852D01*
X24929596Y41438880D01*
X24862590Y41029323D01*
X24785853Y40560178D01*
X24700039Y40035438D01*
X24605801Y39459099D01*
X24503791Y38835155D01*
X24394664Y38167603D01*
X24279072Y37460436D01*
X24157670Y36717650D01*
X24031109Y35943240D01*
X23900043Y35141200D01*
X23765126Y34315526D01*
X23694046Y33880500D01*
X22310681Y25413834D01*
X20266335Y21595888D01*
X18221989Y17777941D01*
X18181837Y14483888D01*
X18141685Y11189834D01*
X18391638Y9035165D01*
X18439797Y8617972D01*
X18484468Y8226989D01*
X18524780Y7870131D01*
X18559861Y7555314D01*
X18588839Y7290451D01*
X18610841Y7083456D01*
X18624997Y6942245D01*
X18630433Y6874731D01*
X18630204Y6869996D01*
X18591374Y6850138D01*
X18482182Y6795690D01*
X18308242Y6709424D01*
X18075171Y6594113D01*
X17788583Y6452527D01*
X17454093Y6287439D01*
X17077318Y6101620D01*
X16663870Y5897844D01*
X16219367Y5678880D01*
X15749423Y5447502D01*
X15472068Y5310999D01*
X12325320Y3762502D01*
X3336484Y1247238D01*
X2659151Y599388D01*
X1981817Y-48461D01*
X13144Y-49064D01*
X-1955530Y-49666D01*
X-3235481Y1230285D01*
X-6859076Y2243426D01*
X-1961873Y2243426D01*
X-1556361Y2150168D01*
X-1384417Y2110233D01*
X-1151421Y2055560D01*
X-878650Y1991172D01*
X-587381Y1922090D01*
X-304183Y1854601D01*
X-47967Y1793500D01*
X179931Y1739381D01*
X366799Y1695246D01*
X499925Y1664093D01*
X566595Y1648922D01*
X571381Y1647980D01*
X605035Y1678626D01*
X620405Y1717750D01*
X668182Y1904418D01*
X710148Y2087903D01*
X742553Y2249286D01*
X761648Y2369651D01*
X763683Y2430078D01*
X762156Y2432939D01*
X714616Y2450071D01*
X597577Y2482203D01*
X423347Y2526501D01*
X204232Y2580130D01*
X-47459Y2640258D01*
X-319418Y2704049D01*
X-599339Y2768670D01*
X-874913Y2831287D01*
X-1133833Y2889066D01*
X-1363791Y2939173D01*
X-1552480Y2978775D01*
X-1687591Y3005036D01*
X-1756818Y3015124D01*
X-1763120Y3014408D01*
X-1782267Y2965809D01*
X-1814424Y2854461D01*
X-1854047Y2700220D01*
X-1873861Y2617752D01*
X-1961873Y2243426D01*
X-6859076Y2243426D01*
X-7759999Y2495320D01*
X-12284516Y3760355D01*
X-15224163Y5207376D01*
X-2079912Y5207376D01*
X-2068490Y5165754D01*
X-2055908Y5153924D01*
X-2007278Y5121552D01*
X-1898753Y5046936D01*
X-1739665Y4936569D01*
X-1539348Y4796948D01*
X-1307137Y4634568D01*
X-1052366Y4455923D01*
X-1002683Y4421032D01*
X-746169Y4242309D01*
X-511236Y4081422D01*
X-306976Y3944374D01*
X-142481Y3837170D01*
X-26842Y3765812D01*
X30849Y3736303D01*
X34765Y3735989D01*
X79198Y3762835D01*
X183968Y3831989D01*
X339999Y3937280D01*
X538214Y4072537D01*
X769538Y4231587D01*
X1024894Y4408260D01*
X1093099Y4455622D01*
X1352109Y4636694D01*
X1587778Y4803518D01*
X1791281Y4949680D01*
X1953791Y5068768D01*
X2066483Y5154368D01*
X2120532Y5200067D01*
X2123889Y5204617D01*
X2120145Y5259411D01*
X2099929Y5378173D01*
X2067316Y5542738D01*
X2026384Y5734941D01*
X1981210Y5936615D01*
X1935871Y6129595D01*
X1894444Y6295715D01*
X1861006Y6416809D01*
X1839634Y6474711D01*
X1838521Y6476119D01*
X1790414Y6488265D01*
X1670765Y6506503D01*
X1492350Y6529236D01*
X1267946Y6554870D01*
X1010328Y6581809D01*
X923484Y6590393D01*
X626338Y6619003D01*
X392910Y6639399D01*
X202660Y6651646D01*
X35044Y6655807D01*
X-130479Y6651946D01*
X-314452Y6640126D01*
X-537417Y6620412D01*
X-791016Y6595715D01*
X-1051911Y6570400D01*
X-1288523Y6548173D01*
X-1486157Y6530358D01*
X-1630115Y6518275D01*
X-1705701Y6513248D01*
X-1708348Y6513190D01*
X-1744393Y6506167D01*
X-1775570Y6478307D01*
X-1806283Y6417869D01*
X-1840940Y6313115D01*
X-1883945Y6152303D01*
X-1939704Y5923695D01*
X-1957239Y5849997D01*
X-2016396Y5595103D01*
X-2055482Y5410641D01*
X-2076115Y5285202D01*
X-2079912Y5207376D01*
X-15224163Y5207376D01*
X-15396016Y5291969D01*
X-15876312Y5528659D01*
X-16335066Y5755252D01*
X-16766540Y5968885D01*
X-17164999Y6166694D01*
X-17524707Y6345813D01*
X-17839928Y6503378D01*
X-18104925Y6636527D01*
X-18309477Y6740122D01*
X-3880982Y6740122D01*
X-3845377Y6711229D01*
X-3748120Y6651770D01*
X-3603225Y6569171D01*
X-3424704Y6470858D01*
X-3226570Y6364258D01*
X-3022836Y6256796D01*
X-2827515Y6155899D01*
X-2654619Y6068993D01*
X-2518160Y6003504D01*
X-2432153Y5966859D01*
X-2412079Y5961667D01*
X-2385549Y6000167D01*
X-2349703Y6103151D01*
X-2310605Y6251844D01*
X-2293595Y6328522D01*
X-2257608Y6497868D01*
X-2222305Y6631346D01*
X-2177669Y6734206D01*
X-2113683Y6811698D01*
X-2020328Y6869070D01*
X-1887588Y6911573D01*
X-1705444Y6944455D01*
X-1463878Y6972967D01*
X-1152874Y7002357D01*
X-977494Y7018181D01*
X42528Y7110426D01*
X1033339Y7017429D01*
X1369871Y6984614D01*
X1631588Y6955980D01*
X1828152Y6930046D01*
X1969225Y6905331D01*
X2064469Y6880355D01*
X2123547Y6853635D01*
X2129984Y6849315D01*
X2184782Y6796402D01*
X2230704Y6713654D01*
X2274750Y6583965D01*
X2323918Y6390226D01*
X2331898Y6355756D01*
X2427979Y5937313D01*
X3188548Y6319907D01*
X3469159Y6463357D01*
X3678103Y6575710D01*
X3821031Y6660361D01*
X3903598Y6720709D01*
X3931456Y6760150D01*
X3930912Y6766000D01*
X3921782Y6815212D01*
X3899741Y6942722D01*
X3865665Y7143292D01*
X3820427Y7411683D01*
X3764902Y7742657D01*
X3699964Y8130975D01*
X3626487Y8571399D01*
X3545347Y9058690D01*
X3457416Y9587608D01*
X3363571Y10152917D01*
X3264684Y10749377D01*
X3161630Y11371750D01*
X3098285Y11754687D01*
X2342221Y16326940D01*
X2781977Y16326940D01*
X3512682Y11916887D01*
X3633726Y11186156D01*
X3741636Y10534493D01*
X3837193Y9957451D01*
X3921180Y9450581D01*
X3994377Y9009436D01*
X4057565Y8629569D01*
X4111527Y8306531D01*
X4157043Y8035877D01*
X4194895Y7813157D01*
X4225865Y7633924D01*
X4250734Y7493731D01*
X4270282Y7388130D01*
X4285293Y7312675D01*
X4296546Y7262916D01*
X4304824Y7234406D01*
X4310908Y7222699D01*
X4315579Y7223347D01*
X4319618Y7231901D01*
X4323808Y7243914D01*
X4328929Y7254940D01*
X4331241Y7257903D01*
X4361742Y7297944D01*
X4437396Y7400808D01*
X4553924Y7560585D01*
X4707041Y7771364D01*
X4892465Y8027235D01*
X5105914Y8322287D01*
X5343106Y8650609D01*
X5599759Y9006290D01*
X5871589Y9383420D01*
X5937027Y9474266D01*
X7506460Y11653366D01*
X7199472Y11964532D01*
X7116578Y12047703D01*
X6979270Y12184425D01*
X6793462Y12368847D01*
X6565070Y12595115D01*
X6300010Y12857379D01*
X6004197Y13149786D01*
X5683547Y13466485D01*
X5343975Y13801624D01*
X4991398Y14149351D01*
X4837230Y14301319D01*
X2781977Y16326940D01*
X2342221Y16326940D01*
X2294494Y16615566D01*
X3160105Y16615566D01*
X3185832Y16583284D01*
X3266497Y16497341D01*
X3396503Y16363272D01*
X3570254Y16186612D01*
X3782153Y15972895D01*
X4026603Y15727656D01*
X4298009Y15456429D01*
X4590773Y15164748D01*
X4899299Y14858148D01*
X5217991Y14542164D01*
X5541250Y14222330D01*
X5863483Y13904180D01*
X6179090Y13593249D01*
X6482477Y13295072D01*
X6768046Y13015182D01*
X7030200Y12759115D01*
X7263344Y12532404D01*
X7461881Y12340585D01*
X7620213Y12189191D01*
X7732745Y12083757D01*
X7793880Y12029819D01*
X7803351Y12023853D01*
X7837038Y12055084D01*
X7926296Y12142791D01*
X8067294Y12283116D01*
X8256204Y12472199D01*
X8489197Y12706182D01*
X8762443Y12981208D01*
X9072113Y13293418D01*
X9414379Y13638954D01*
X9785410Y14013957D01*
X10181377Y14414569D01*
X10598452Y14836932D01*
X11032805Y15277188D01*
X11129777Y15375531D01*
X11572330Y15825013D01*
X11994455Y16254986D01*
X12392645Y16661813D01*
X12763394Y17041859D01*
X13103193Y17391488D01*
X13408535Y17707063D01*
X13675914Y17984948D01*
X13901822Y18221508D01*
X14082751Y18413106D01*
X14215195Y18556107D01*
X14295645Y18646873D01*
X14320595Y18681770D01*
X14319050Y18681880D01*
X14262411Y18665173D01*
X14130973Y18627138D01*
X13931355Y18569671D01*
X13670176Y18494669D01*
X13354056Y18404029D01*
X12989614Y18299648D01*
X12583468Y18183422D01*
X12142240Y18057249D01*
X11672547Y17923025D01*
X11196844Y17787168D01*
X8177538Y16925138D01*
X7027011Y16842108D01*
X6667756Y16817429D01*
X6249343Y16790745D01*
X5797207Y16763549D01*
X5336783Y16737333D01*
X4893508Y16713590D01*
X4526357Y16695385D01*
X4197184Y16679392D01*
X3896025Y16663871D01*
X3633061Y16649415D01*
X3418474Y16636620D01*
X3262444Y16626080D01*
X3175153Y16618390D01*
X3160105Y16615566D01*
X2294494Y16615566D01*
X2283860Y16679874D01*
X1328505Y16644187D01*
X1007802Y16633752D01*
X674230Y16625597D01*
X351303Y16620108D01*
X62537Y16617673D01*
X-168556Y16618677D01*
X-195729Y16619128D01*
X-764609Y16629756D01*
X-647914Y16507954D01*
X-531220Y16386151D01*
X-798702Y16361105D01*
X-940863Y16349961D01*
X-1143162Y16336955D01*
X-1381138Y16323533D01*
X-1630325Y16311140D01*
X-1690599Y16308412D01*
X-1909548Y16297018D01*
X-2094941Y16284129D01*
X-2232037Y16271027D01*
X-2306096Y16258993D01*
X-2314937Y16254133D01*
X-2321713Y16209695D01*
X-2341479Y16087030D01*
X-2373363Y15891434D01*
X-2416491Y15628201D01*
X-2469992Y15302628D01*
X-2532991Y14920012D01*
X-2604616Y14485649D01*
X-2683995Y14004834D01*
X-2770253Y13482863D01*
X-2862519Y12925033D01*
X-2959919Y12336639D01*
X-3061580Y11722978D01*
X-3098104Y11502622D01*
X-3201076Y10881101D01*
X-3300087Y10282820D01*
X-3394262Y9713090D01*
X-3482729Y9177225D01*
X-3564614Y8680536D01*
X-3639044Y8228336D01*
X-3705146Y7825936D01*
X-3762046Y7478650D01*
X-3808871Y7191790D01*
X-3844749Y6970668D01*
X-3868805Y6820596D01*
X-3880166Y6746886D01*
X-3880982Y6740122D01*
X-18309477Y6740122D01*
X-18313962Y6742393D01*
X-18461304Y6818114D01*
X-18541214Y6860825D01*
X-18554058Y6868875D01*
X-18562469Y6906709D01*
X-18562372Y6998627D01*
X-18553368Y7148837D01*
X-18535058Y7361552D01*
X-18507044Y7640980D01*
X-18468927Y7991332D01*
X-18420307Y8416818D01*
X-18360788Y8921649D01*
X-18355335Y8967334D01*
X-18110071Y11020500D01*
X-18114553Y11655500D01*
X-7466851Y11655500D01*
X-5875183Y9447450D01*
X-5599214Y9065362D01*
X-5337771Y8704842D01*
X-5095040Y8371569D01*
X-4875207Y8071220D01*
X-4682457Y7809474D01*
X-4520978Y7592008D01*
X-4394955Y7424501D01*
X-4308574Y7312630D01*
X-4266020Y7262073D01*
X-4262349Y7259766D01*
X-4252713Y7303423D01*
X-4230221Y7425189D01*
X-4195796Y7619635D01*
X-4150358Y7881334D01*
X-4094830Y8204856D01*
X-4030133Y8584773D01*
X-3957188Y9015655D01*
X-3876917Y9492073D01*
X-3790242Y10008600D01*
X-3698083Y10559806D01*
X-3601363Y11140263D01*
X-3501003Y11744541D01*
X-3497441Y11766026D01*
X-3364078Y12573100D01*
X-3244680Y13301312D01*
X-3139320Y13950185D01*
X-3048073Y14519243D01*
X-2971013Y15008008D01*
X-2908213Y15416003D01*
X-2859748Y15742754D01*
X-2825690Y15987782D01*
X-2806115Y16150611D01*
X-2801095Y16230764D01*
X-2803990Y16239710D01*
X-2841382Y16208637D01*
X-2934079Y16122452D01*
X-3077363Y15985754D01*
X-3266518Y15803146D01*
X-3496824Y15579226D01*
X-3763566Y15318598D01*
X-4062024Y15025860D01*
X-4387481Y14705614D01*
X-4735221Y14362461D01*
X-5100524Y14001002D01*
X-5160566Y13941500D01*
X-7466851Y11655500D01*
X-18114553Y11655500D01*
X-18130839Y13962667D01*
X-18134614Y14458836D01*
X-18138752Y14933585D01*
X-18143156Y15379579D01*
X-18147572Y15775441D01*
X-11438353Y15775441D01*
X-11413623Y15742368D01*
X-11335118Y15655722D01*
X-11208992Y15521738D01*
X-11041402Y15346648D01*
X-10838505Y15136686D01*
X-10606455Y14898085D01*
X-10351408Y14637077D01*
X-10079522Y14359897D01*
X-9796951Y14072776D01*
X-9509852Y13781948D01*
X-9224381Y13493646D01*
X-8946693Y13214104D01*
X-8682944Y12949554D01*
X-8439291Y12706229D01*
X-8221890Y12490362D01*
X-8036896Y12308188D01*
X-7890465Y12165938D01*
X-7788753Y12069845D01*
X-7737916Y12026144D01*
X-7733515Y12024178D01*
X-7698885Y12055289D01*
X-7609060Y12141226D01*
X-7468944Y12277178D01*
X-7283441Y12458331D01*
X-7057453Y12679875D01*
X-6795885Y12936996D01*
X-6503640Y13224883D01*
X-6185621Y13538724D01*
X-5846732Y13873706D01*
X-5596465Y14121417D01*
X-5186604Y14527639D01*
X-4833456Y14878491D01*
X-4533293Y15177891D01*
X-4282383Y15429757D01*
X-4076996Y15638005D01*
X-3913402Y15806551D01*
X-3787869Y15939315D01*
X-3696667Y16040211D01*
X-3636066Y16113159D01*
X-3602335Y16162073D01*
X-3591744Y16190873D01*
X-3600561Y16203474D01*
X-3612184Y16204921D01*
X-3697875Y16202142D01*
X-3857056Y16195155D01*
X-4082534Y16184355D01*
X-4367116Y16170136D01*
X-4703611Y16152893D01*
X-5084827Y16133021D01*
X-5503570Y16110914D01*
X-5952649Y16086968D01*
X-6424872Y16061577D01*
X-6913046Y16035135D01*
X-7409978Y16008037D01*
X-7908478Y15980678D01*
X-8401351Y15953453D01*
X-8881407Y15926757D01*
X-9341453Y15900983D01*
X-9774296Y15876527D01*
X-10172745Y15853784D01*
X-10529606Y15833147D01*
X-10837689Y15815013D01*
X-11089799Y15799775D01*
X-11278746Y15787828D01*
X-11397337Y15779567D01*
X-11438353Y15775441D01*
X-18147572Y15775441D01*
X-18147729Y15789486D01*
X-18152375Y16155971D01*
X-18156996Y16471700D01*
X-18161495Y16729341D01*
X-18165775Y16921558D01*
X-18169740Y17041018D01*
X-18172010Y17075440D01*
X-18193058Y17165026D01*
X-18240842Y17268715D01*
X-18323555Y17400108D01*
X-18449392Y17572802D01*
X-18551047Y17704516D01*
X-18909683Y18162984D01*
X-18909683Y18180103D01*
X-17639683Y18180103D01*
X-17439333Y17923468D01*
X-17355228Y17816296D01*
X-17228823Y17655955D01*
X-17070491Y17455565D01*
X-16890604Y17228247D01*
X-16699532Y16987121D01*
X-16592279Y16851917D01*
X-15945575Y16037000D01*
X-15142016Y16037000D01*
X-15142016Y17107919D01*
X-3981918Y17107919D01*
X-3923683Y17102018D01*
X-3863585Y17108671D01*
X-3870766Y17123370D01*
X-3957437Y17128962D01*
X-3976599Y17123370D01*
X-3981918Y17107919D01*
X-15142016Y17107919D01*
X-15142016Y17590834D01*
X-15860575Y18094500D01*
X-16579133Y18598167D01*
X-16569658Y19909111D01*
X-16560183Y21220054D01*
X-15851099Y21722140D01*
X-15330596Y22090697D01*
X-11242776Y22090697D01*
X-11204377Y22017750D01*
X-11121130Y21888350D01*
X-10991737Y21700640D01*
X-10814906Y21452764D01*
X-10589340Y21142865D01*
X-10313745Y20769087D01*
X-10136954Y20531013D01*
X-8940183Y18922776D01*
X-7373849Y18061972D01*
X-5807516Y17201167D01*
X-5341849Y17177264D01*
X-5109706Y17166721D01*
X-4873505Y17158374D01*
X-4646972Y17152416D01*
X-4443831Y17149041D01*
X-4277809Y17148441D01*
X-4162631Y17150810D01*
X-4112021Y17156341D01*
X-4114183Y17159993D01*
X-4167190Y17171965D01*
X-4290191Y17196187D01*
X-4469813Y17230135D01*
X-4692680Y17271289D01*
X-4945420Y17317124D01*
X-4986187Y17324446D01*
X-5815857Y17473257D01*
X-6433004Y17851014D01*
X-1808693Y17851014D01*
X-1480758Y17471572D01*
X-1344558Y17320441D01*
X-1220371Y17194312D01*
X-1122436Y17106927D01*
X-1067169Y17072421D01*
X-983020Y17062089D01*
X-835766Y17052411D01*
X-646969Y17044021D01*
X-438190Y17037553D01*
X-230991Y17033641D01*
X-46935Y17032917D01*
X92417Y17036016D01*
X119151Y17037560D01*
X211552Y17042404D01*
X373277Y17049161D01*
X589018Y17057263D01*
X843469Y17066144D01*
X1121321Y17075234D01*
X1209234Y17077988D01*
X1478094Y17087465D01*
X1715965Y17098042D01*
X1891543Y17107919D01*
X4019082Y17107919D01*
X4077317Y17102018D01*
X4137415Y17108671D01*
X4130234Y17123370D01*
X4043563Y17128962D01*
X4024401Y17123370D01*
X4019082Y17107919D01*
X1891543Y17107919D01*
X1910707Y17108997D01*
X2050181Y17119610D01*
X2122250Y17129159D01*
X2129499Y17132677D01*
X2114150Y17175444D01*
X2069981Y17290344D01*
X1999557Y17470875D01*
X1905444Y17710536D01*
X1790207Y18002826D01*
X1656412Y18341242D01*
X1506623Y18719284D01*
X1343407Y19130449D01*
X1169328Y19568236D01*
X1075199Y19804667D01*
X866013Y20329279D01*
X685604Y20780168D01*
X531779Y21162411D01*
X402349Y21481084D01*
X295122Y21741265D01*
X207906Y21948029D01*
X138511Y22106455D01*
X84745Y22221619D01*
X44418Y22298598D01*
X15338Y22342468D01*
X-4686Y22358307D01*
X-17845Y22351191D01*
X-21056Y22344667D01*
X-44316Y22286349D01*
X-95876Y22156871D01*
X-172745Y21963744D01*
X-271935Y21714481D01*
X-390457Y21416596D01*
X-525322Y21077600D01*
X-673541Y20705005D01*
X-832124Y20306326D01*
X-936095Y20044924D01*
X-1808693Y17851014D01*
X-6433004Y17851014D01*
X-7283065Y18371338D01*
X-8750272Y19269419D01*
X-9199782Y20050171D01*
X-9362358Y20333781D01*
X-9485955Y20553223D01*
X-9574667Y20717214D01*
X-9632590Y20834477D01*
X-9663818Y20913730D01*
X-9672449Y20963695D01*
X-9662575Y20993092D01*
X-9648311Y21005217D01*
X-9599792Y20999791D01*
X-9479083Y20973543D01*
X-9295426Y20928843D01*
X-9058058Y20868059D01*
X-8776220Y20793561D01*
X-8459150Y20707718D01*
X-8116089Y20612901D01*
X-8088873Y20605299D01*
X-7650912Y20481730D01*
X-7288876Y20376911D01*
X-6996598Y20288865D01*
X-6767914Y20215616D01*
X-6596656Y20155186D01*
X-6476660Y20105599D01*
X-6401759Y20064876D01*
X-6400183Y20063797D01*
X-6329062Y20012894D01*
X-6198518Y19917591D01*
X-6016988Y19784117D01*
X-5792909Y19618704D01*
X-5534718Y19427582D01*
X-5250851Y19216980D01*
X-4949745Y18993130D01*
X-4876183Y18938373D01*
X-4584697Y18722125D01*
X-4318818Y18526381D01*
X-4085130Y18355875D01*
X-3890217Y18215340D01*
X-3740663Y18109509D01*
X-3643054Y18043115D01*
X-3603972Y18020891D01*
X-3606183Y18025409D01*
X-3654568Y18075441D01*
X-3756622Y18177530D01*
X-3905289Y18324733D01*
X-4093514Y18510104D01*
X-4314242Y18726699D01*
X-4560418Y18967576D01*
X-4824987Y19225789D01*
X-4900360Y19299234D01*
X-6109870Y20477415D01*
X-8625693Y21278131D01*
X-9071338Y21419961D01*
X-9494817Y21554726D01*
X-9573239Y21579680D01*
X-6085135Y21579680D01*
X-6078513Y21559809D01*
X-6025869Y21531346D01*
X-5919089Y21490977D01*
X-5750058Y21435391D01*
X-5510663Y21361275D01*
X-5403205Y21328667D01*
X-4633229Y21095834D01*
X-3677533Y19995167D01*
X-3436993Y19718407D01*
X-3200525Y19446829D01*
X-2977331Y19190964D01*
X-2776612Y18961342D01*
X-2607567Y18768493D01*
X-2479398Y18622949D01*
X-2427128Y18564036D01*
X-2132419Y18233571D01*
X-1844506Y18966203D01*
X-1758216Y19185742D01*
X-1647133Y19468306D01*
X-1517454Y19798131D01*
X-1375379Y20159452D01*
X-1227106Y20536504D01*
X-1078835Y20913521D01*
X-990481Y21138167D01*
X-842765Y21517354D01*
X-716930Y21847815D01*
X-614873Y22124236D01*
X-538488Y22341303D01*
X-489669Y22493701D01*
X-470311Y22576116D01*
X-472915Y22589690D01*
X-520742Y22584249D01*
X-643445Y22565119D01*
X-832606Y22533800D01*
X-1079808Y22491795D01*
X-1376635Y22440604D01*
X-1714668Y22381729D01*
X-2085491Y22316671D01*
X-2480687Y22246931D01*
X-2891839Y22174011D01*
X-3310529Y22099412D01*
X-3728340Y22024635D01*
X-4136855Y21951182D01*
X-4527657Y21880553D01*
X-4892328Y21814251D01*
X-5222453Y21753775D01*
X-5509612Y21700629D01*
X-5745390Y21656313D01*
X-5921369Y21622327D01*
X-6029132Y21600175D01*
X-6053848Y21594270D01*
X-6085135Y21579680D01*
X-9573239Y21579680D01*
X-9888941Y21680136D01*
X-10246517Y21793906D01*
X-10560355Y21893746D01*
X-10823262Y21977370D01*
X-11028049Y22042489D01*
X-11167524Y22086816D01*
X-11234496Y22108063D01*
X-11237621Y22109048D01*
X-11242776Y22090697D01*
X-15330596Y22090697D01*
X-15142016Y22224226D01*
X-15142016Y23741667D01*
X-15975133Y23741667D01*
X-16806851Y22693917D01*
X-17638570Y21646167D01*
X-17639126Y19913135D01*
X-17639683Y18180103D01*
X-18909683Y18180103D01*
X-18909683Y19139083D01*
X-20586512Y22268703D01*
X-22263341Y25398322D01*
X-22302130Y25635094D01*
X-16099034Y25635094D01*
X-16097586Y25591954D01*
X-16087148Y25479319D01*
X-16069240Y25311708D01*
X-16045382Y25103638D01*
X-16029302Y24969194D01*
X-16001779Y24739973D01*
X-15978158Y24538672D01*
X-15960250Y24381099D01*
X-15949868Y24283062D01*
X-15948023Y24260250D01*
X-15924759Y24238052D01*
X-15850437Y24222398D01*
X-15715820Y24212464D01*
X-15511671Y24207429D01*
X-15343099Y24206402D01*
X-14739849Y24205470D01*
X-10929849Y23025947D01*
X-10380839Y22856334D01*
X-9854203Y22694322D01*
X-9355641Y22541624D01*
X-8890849Y22399955D01*
X-8465525Y22271029D01*
X-8085367Y22156559D01*
X-7756073Y22058259D01*
X-7483341Y21977844D01*
X-7272867Y21917027D01*
X-7130350Y21877522D01*
X-7061487Y21861043D01*
X-7056349Y21860742D01*
X-7005487Y21870362D01*
X-6877812Y21893798D01*
X-6679841Y21929870D01*
X-6418088Y21977399D01*
X-6099070Y22035205D01*
X-5729304Y22102108D01*
X-5315303Y22176930D01*
X-4863584Y22258490D01*
X-4380664Y22345608D01*
X-3873057Y22437106D01*
X-3775516Y22454680D01*
X-3264941Y22546927D01*
X-2818525Y22628051D01*
X447457Y22628051D01*
X582181Y22285276D01*
X872775Y21546137D01*
X1133986Y20882222D01*
X1367267Y20289899D01*
X1574069Y19765538D01*
X1755843Y19305510D01*
X1914041Y18906184D01*
X2050114Y18563930D01*
X2165514Y18275118D01*
X2261691Y18036118D01*
X2340098Y17843300D01*
X2402186Y17693034D01*
X2449407Y17581689D01*
X2483211Y17505636D01*
X2505050Y17461244D01*
X2516376Y17444884D01*
X2517602Y17444686D01*
X2551709Y17475416D01*
X2641095Y17560732D01*
X2780769Y17695758D01*
X2965737Y17875619D01*
X3068165Y17975569D01*
X3717484Y17975569D01*
X4712317Y18712150D01*
X4996795Y18922827D01*
X5286758Y19137652D01*
X5567291Y19345568D01*
X5823480Y19535522D01*
X6040412Y19696456D01*
X6193984Y19810487D01*
X6680817Y20172244D01*
X8162484Y20586922D01*
X8504715Y20682692D01*
X8823057Y20771755D01*
X9107849Y20851411D01*
X9349427Y20918956D01*
X9538131Y20971690D01*
X9664297Y21006912D01*
X9717719Y21021770D01*
X9776551Y21026867D01*
X9803724Y20997598D01*
X9796946Y20927901D01*
X9753928Y20811714D01*
X9672377Y20642975D01*
X9550002Y20415621D01*
X9384512Y20123592D01*
X9366244Y20091882D01*
X8892092Y19269794D01*
X7468399Y18397892D01*
X7150861Y18203952D01*
X6852645Y18022824D01*
X6582206Y17859568D01*
X6347999Y17719243D01*
X6158478Y17606910D01*
X6022099Y17527629D01*
X5947314Y17486460D01*
X5939428Y17482795D01*
X5865168Y17462005D01*
X5722710Y17430453D01*
X5527383Y17391224D01*
X5294517Y17347400D01*
X5050984Y17304062D01*
X4803861Y17260447D01*
X4586507Y17220475D01*
X4412294Y17186738D01*
X4294596Y17161827D01*
X4246784Y17148333D01*
X4246651Y17148214D01*
X4280209Y17143490D01*
X4386124Y17142074D01*
X4552159Y17143818D01*
X4766072Y17148576D01*
X5015627Y17156199D01*
X5072151Y17158176D01*
X5918817Y17188445D01*
X7485151Y18045283D01*
X9051484Y18902121D01*
X10250197Y20500653D01*
X10491259Y20822733D01*
X10715567Y21123621D01*
X10918228Y21396665D01*
X11094346Y21635213D01*
X11239024Y21832613D01*
X11347368Y21982211D01*
X11414482Y22077356D01*
X11435531Y22111361D01*
X11393964Y22100985D01*
X11278554Y22066942D01*
X11096103Y22011354D01*
X10853411Y21936344D01*
X10557279Y21844032D01*
X10214507Y21736542D01*
X9831898Y21615996D01*
X9416251Y21484514D01*
X8974369Y21344220D01*
X8846254Y21303452D01*
X6270357Y20483368D01*
X5988754Y20231498D01*
X5889267Y20139080D01*
X5740077Y19995909D01*
X5550908Y19811535D01*
X5331485Y19595511D01*
X5091530Y19357390D01*
X4840769Y19106723D01*
X4712317Y18977598D01*
X3717484Y17975569D01*
X3068165Y17975569D01*
X3191007Y18095439D01*
X3451585Y18350343D01*
X3742480Y18635455D01*
X4058699Y18945899D01*
X4395249Y19276801D01*
X4585865Y19464427D01*
X4994385Y19867147D01*
X5345871Y20214746D01*
X5644030Y20511083D01*
X5892573Y20760018D01*
X6095205Y20965410D01*
X6255637Y21131119D01*
X6377575Y21261005D01*
X6464729Y21358927D01*
X6520805Y21428746D01*
X6549514Y21474321D01*
X6554562Y21499511D01*
X6547746Y21506460D01*
X6493626Y21519374D01*
X6363205Y21545881D01*
X6163526Y21584665D01*
X5901631Y21634411D01*
X5584563Y21693802D01*
X5219366Y21761525D01*
X4813081Y21836262D01*
X4372752Y21916699D01*
X3905422Y22001521D01*
X3653984Y22046941D01*
X3171544Y22133968D01*
X2709458Y22217364D01*
X2275153Y22295785D01*
X1876058Y22367888D01*
X1519601Y22432329D01*
X1213211Y22487766D01*
X964317Y22532856D01*
X780347Y22566254D01*
X668729Y22586619D01*
X643137Y22591350D01*
X447457Y22628051D01*
X-2818525Y22628051D01*
X-2778568Y22635312D01*
X-2322828Y22718638D01*
X-1904150Y22795704D01*
X-1528963Y22865311D01*
X-1203699Y22926259D01*
X-934785Y22977348D01*
X-728653Y23017379D01*
X-591732Y23045152D01*
X-530452Y23059468D01*
X-527846Y23060603D01*
X-542464Y23085500D01*
X560831Y23085500D01*
X582954Y23042723D01*
X608994Y23033922D01*
X704607Y23018076D01*
X870871Y22989120D01*
X1100294Y22948426D01*
X1385383Y22897367D01*
X1718645Y22837317D01*
X2092587Y22769648D01*
X2499716Y22695735D01*
X2932540Y22616949D01*
X3383566Y22534664D01*
X3845300Y22450254D01*
X4310250Y22365092D01*
X4770924Y22280549D01*
X5219828Y22198001D01*
X5649469Y22118820D01*
X6052354Y22044378D01*
X6420991Y21976050D01*
X6747887Y21915208D01*
X7025549Y21863226D01*
X7246484Y21821476D01*
X7403200Y21791333D01*
X7488202Y21774168D01*
X7501667Y21770762D01*
X7483088Y21733710D01*
X7416060Y21650796D01*
X7312238Y21535787D01*
X7228824Y21448577D01*
X7112575Y21325620D01*
X7030849Y21231319D01*
X6993044Y21177065D01*
X6998317Y21169200D01*
X7137855Y21215725D01*
X7339272Y21281403D01*
X7594666Y21363750D01*
X7896133Y21460284D01*
X8235774Y21568520D01*
X8605684Y21685975D01*
X8997963Y21810165D01*
X9404707Y21938605D01*
X9818016Y22068814D01*
X10229986Y22198306D01*
X10632716Y22324598D01*
X11018303Y22445207D01*
X11378846Y22557648D01*
X11706441Y22659438D01*
X11993188Y22748093D01*
X12231184Y22821130D01*
X12412527Y22876065D01*
X12529315Y22910414D01*
X12573645Y22921693D01*
X12573802Y22921626D01*
X12552446Y22885361D01*
X12484424Y22787126D01*
X12373926Y22632643D01*
X12225147Y22427632D01*
X12042276Y22177814D01*
X11829507Y21888910D01*
X11591031Y21566639D01*
X11331040Y21216723D01*
X11053725Y20844882D01*
X10967263Y20729219D01*
X9341701Y18555834D01*
X8794426Y18261004D01*
X8356615Y18024348D01*
X7990427Y17824570D01*
X7692315Y17659589D01*
X7458730Y17527326D01*
X7286124Y17425699D01*
X7170949Y17352631D01*
X7109658Y17306039D01*
X7098701Y17283845D01*
X7125317Y17282465D01*
X7234020Y17294425D01*
X7398723Y17308686D01*
X7590889Y17322867D01*
X7675651Y17328396D01*
X7754155Y17334782D01*
X7840436Y17345384D01*
X7940138Y17361679D01*
X8058904Y17385148D01*
X8202379Y17417270D01*
X8376207Y17459523D01*
X8586031Y17513387D01*
X8837496Y17580342D01*
X9136245Y17661865D01*
X9487923Y17759437D01*
X9898173Y17874536D01*
X10372640Y18008641D01*
X10916966Y18163233D01*
X11536798Y18339789D01*
X11559426Y18346241D01*
X12086263Y18496193D01*
X12590797Y18639266D01*
X13066950Y18773769D01*
X13508642Y18898007D01*
X13909791Y19010289D01*
X14264320Y19108920D01*
X14566148Y19192208D01*
X14809194Y19258461D01*
X14987380Y19305983D01*
X15094625Y19333084D01*
X15124481Y19339000D01*
X15180708Y19316021D01*
X15296568Y19251254D01*
X15461980Y19150954D01*
X15666863Y19021376D01*
X15901134Y18868776D01*
X16147874Y18704030D01*
X16396919Y18536485D01*
X16622037Y18386368D01*
X16814036Y18259702D01*
X16963721Y18162509D01*
X17061901Y18100810D01*
X17099382Y18080630D01*
X17099427Y18080666D01*
X17088024Y18121621D01*
X17050870Y18234627D01*
X16990635Y18411982D01*
X16909988Y18645983D01*
X16811598Y18928928D01*
X16698134Y19253112D01*
X16572266Y19610835D01*
X16436661Y19994392D01*
X16421008Y20038554D01*
X15730982Y21984834D01*
X15939256Y23799033D01*
X15982777Y24181099D01*
X16022592Y24536423D01*
X16057782Y24856348D01*
X16087424Y25132218D01*
X16110595Y25355377D01*
X16126376Y25517168D01*
X16133843Y25608935D01*
X16133877Y25626885D01*
X16090506Y25625554D01*
X15969715Y25617226D01*
X15778413Y25602480D01*
X15523507Y25581890D01*
X15211905Y25556034D01*
X14850515Y25525488D01*
X14446245Y25490828D01*
X14006003Y25452631D01*
X13536696Y25411474D01*
X13268546Y25387771D01*
X12786180Y25345236D01*
X12329066Y25305354D01*
X11904115Y25268703D01*
X11518236Y25235856D01*
X11178336Y25207391D01*
X10891327Y25183882D01*
X10664116Y25165904D01*
X10503613Y25154035D01*
X10416726Y25148848D01*
X10402821Y25149052D01*
X10385506Y25190229D01*
X10341200Y25302984D01*
X10272824Y25479692D01*
X10183300Y25712725D01*
X10075550Y25994457D01*
X9952496Y26317260D01*
X9817059Y26673508D01*
X9672162Y27055574D01*
X9650019Y27114041D01*
X8911452Y29064487D01*
X9376636Y29064487D01*
X9923449Y27620160D01*
X10049259Y27287819D01*
X10166052Y26979231D01*
X10270327Y26703656D01*
X10358581Y26470353D01*
X10427311Y26288581D01*
X10473014Y26167601D01*
X10492119Y26116858D01*
X10520110Y26073638D01*
X10530311Y26074525D01*
X10546821Y26115685D01*
X10590603Y26231168D01*
X10659749Y26415818D01*
X10752352Y26664480D01*
X10866503Y26971998D01*
X10932248Y27149500D01*
X21518651Y27149500D01*
X21539817Y27128334D01*
X21560984Y27149500D01*
X21539817Y27170667D01*
X21518651Y27149500D01*
X10932248Y27149500D01*
X11000295Y27333216D01*
X11151820Y27742978D01*
X11319169Y28196127D01*
X11500435Y28687509D01*
X11693709Y29211967D01*
X11897084Y29764346D01*
X12108652Y30339489D01*
X12118707Y30366834D01*
X12331913Y30945622D01*
X12538232Y31503594D01*
X12735649Y32035420D01*
X12922150Y32535765D01*
X13095723Y32999299D01*
X13254354Y33420688D01*
X13396028Y33794600D01*
X13518733Y34115703D01*
X13620455Y34378664D01*
X13699181Y34578151D01*
X13752896Y34708831D01*
X13779587Y34765373D01*
X13779710Y34765545D01*
X13816078Y34808309D01*
X13904824Y34909207D01*
X14041660Y35063465D01*
X14222298Y35266310D01*
X14442452Y35512967D01*
X14697832Y35798662D01*
X14951281Y36081890D01*
X15557331Y36081890D01*
X15592704Y36104449D01*
X15692043Y36173529D01*
X15850827Y36285878D01*
X16064529Y36438243D01*
X16328628Y36627373D01*
X16638599Y36850013D01*
X16989918Y37102913D01*
X17378062Y37382819D01*
X17798507Y37686479D01*
X18246729Y38010641D01*
X18718204Y38352051D01*
X19124156Y38646343D01*
X19611449Y38999623D01*
X20079175Y39338411D01*
X20522817Y39659452D01*
X20937856Y39959489D01*
X21319774Y40235267D01*
X21664051Y40483530D01*
X21966172Y40701021D01*
X22221616Y40884484D01*
X22425865Y41030664D01*
X22574402Y41136304D01*
X22662708Y41198148D01*
X22687024Y41213884D01*
X22684644Y41171353D01*
X22675621Y41048884D01*
X22660316Y40850915D01*
X22639089Y40581885D01*
X22612299Y40246232D01*
X22580307Y39848394D01*
X22543474Y39392811D01*
X22502159Y38883919D01*
X22456723Y38326159D01*
X22407526Y37723967D01*
X22354927Y37081783D01*
X22299289Y36404045D01*
X22240969Y35695192D01*
X22180330Y34959661D01*
X22129659Y34346167D01*
X22067319Y33591274D01*
X22006957Y32858872D01*
X21948936Y32153446D01*
X21893622Y31479481D01*
X21841377Y30841461D01*
X21792566Y30243872D01*
X21747553Y29691199D01*
X21706703Y29187926D01*
X21670380Y28738538D01*
X21638947Y28347521D01*
X21612769Y28019358D01*
X21592210Y27758536D01*
X21577635Y27569539D01*
X21569407Y27456851D01*
X21567639Y27424667D01*
X21567994Y27412260D01*
X21567871Y27398236D01*
X21567877Y27386220D01*
X21568620Y27379836D01*
X21570710Y27382711D01*
X21574754Y27398469D01*
X21581361Y27430736D01*
X21591139Y27483136D01*
X21604696Y27559295D01*
X21622641Y27662837D01*
X21645582Y27797388D01*
X21674128Y27966574D01*
X21708886Y28174018D01*
X21750465Y28423347D01*
X21799474Y28718186D01*
X21856520Y29062159D01*
X21922213Y29458891D01*
X21997160Y29912009D01*
X22081969Y30425136D01*
X22177250Y31001898D01*
X22283610Y31645921D01*
X22401658Y32360829D01*
X22532002Y33150247D01*
X22675250Y34017801D01*
X22750154Y34471418D01*
X22874450Y35224468D01*
X22994932Y35955075D01*
X23110883Y36658853D01*
X23221584Y37331412D01*
X23326316Y37968365D01*
X23424360Y38565323D01*
X23514997Y39117900D01*
X23597510Y39621707D01*
X23671178Y40072356D01*
X23735284Y40465459D01*
X23789109Y40796629D01*
X23831934Y41061477D01*
X23863041Y41255615D01*
X23881710Y41374655D01*
X23887283Y41414085D01*
X23855239Y41448253D01*
X23766501Y41526285D01*
X23630827Y41640395D01*
X23457976Y41782796D01*
X23257705Y41945702D01*
X23039773Y42121327D01*
X22813937Y42301885D01*
X22589956Y42479589D01*
X22377588Y42646655D01*
X22186590Y42795295D01*
X22026721Y42917723D01*
X21907739Y43006153D01*
X21839401Y43052800D01*
X21827099Y43057947D01*
X21794680Y43024559D01*
X21710446Y42933302D01*
X21578788Y42789062D01*
X21404095Y42596722D01*
X21190760Y42361170D01*
X20943172Y42087289D01*
X20665723Y41779965D01*
X20362803Y41444084D01*
X20038802Y41084531D01*
X19698111Y40706191D01*
X19345121Y40313948D01*
X18984223Y39912690D01*
X18619807Y39507300D01*
X18256264Y39102664D01*
X17897984Y38703668D01*
X17549358Y38315195D01*
X17214777Y37942133D01*
X16898632Y37589366D01*
X16605312Y37261779D01*
X16339210Y36964258D01*
X16104715Y36701688D01*
X15906218Y36478953D01*
X15748109Y36300940D01*
X15634780Y36172534D01*
X15570621Y36098619D01*
X15557331Y36081890D01*
X14951281Y36081890D01*
X14984152Y36118622D01*
X15297123Y36468073D01*
X15632459Y36842239D01*
X15985871Y37236348D01*
X16353072Y37645626D01*
X16729774Y38065297D01*
X17111690Y38490589D01*
X17494531Y38916727D01*
X17874010Y39338938D01*
X18245840Y39752446D01*
X18605732Y40152479D01*
X18949400Y40534263D01*
X19272555Y40893022D01*
X19570910Y41223984D01*
X19840177Y41522374D01*
X20076068Y41783418D01*
X20274296Y42002342D01*
X20430574Y42174372D01*
X20540612Y42294735D01*
X20583185Y42340731D01*
X20609128Y42368639D01*
X20629345Y42391697D01*
X20640470Y42407735D01*
X20639139Y42414585D01*
X20621989Y42410077D01*
X20585653Y42392044D01*
X20526768Y42358316D01*
X20441969Y42306724D01*
X20327891Y42235101D01*
X20181171Y42141277D01*
X19998442Y42023084D01*
X19776341Y41878352D01*
X19511503Y41704913D01*
X19200564Y41500599D01*
X18840158Y41263241D01*
X18426922Y40990669D01*
X17957491Y40680716D01*
X17428500Y40331212D01*
X16836585Y39939990D01*
X16178380Y39504879D01*
X15974188Y39369891D01*
X12398226Y37005895D01*
X9376636Y29064487D01*
X8911452Y29064487D01*
X8911264Y29064982D01*
X10198588Y32446408D01*
X10393271Y32957898D01*
X10579501Y33447403D01*
X10755047Y33909044D01*
X10917676Y34336943D01*
X11065159Y34725220D01*
X11195262Y35067997D01*
X11305754Y35359395D01*
X11394404Y35593535D01*
X11458980Y35764538D01*
X11497250Y35866526D01*
X11507259Y35893909D01*
X11481502Y35874985D01*
X11400435Y35800309D01*
X11268434Y35674186D01*
X11089873Y35500917D01*
X10869126Y35284805D01*
X10610568Y35030152D01*
X10318571Y34741261D01*
X9997512Y34422435D01*
X9651764Y34077975D01*
X9285702Y33712184D01*
X9097026Y33523242D01*
X6665446Y31086500D01*
X3619302Y27107167D01*
X3227510Y26595132D01*
X2850155Y26101540D01*
X2490425Y25630582D01*
X2151506Y25186451D01*
X1836588Y24773337D01*
X1548858Y24395433D01*
X1291503Y24056930D01*
X1067712Y23762021D01*
X880672Y23514897D01*
X733572Y23319749D01*
X629599Y23180770D01*
X571941Y23102152D01*
X560831Y23085500D01*
X-542464Y23085500D01*
X-549162Y23096906D01*
X-618949Y23196151D01*
X-734065Y23354169D01*
X-891365Y23566789D01*
X-1087707Y23829838D01*
X-1319948Y24139145D01*
X-1584944Y24490541D01*
X-1879551Y24879852D01*
X-2200628Y25302909D01*
X-2545030Y25755540D01*
X-2909615Y26233574D01*
X-3291239Y26732840D01*
X-3533513Y27049245D01*
X-6217240Y30551822D01*
X-5638798Y30551822D01*
X-5626474Y30515110D01*
X-5575633Y30437229D01*
X-5481631Y30309756D01*
X-5339821Y30124267D01*
X-5339512Y30123866D01*
X-5257470Y30017104D01*
X-5128521Y29849070D01*
X-4957227Y29625715D01*
X-4748151Y29352994D01*
X-4505854Y29036860D01*
X-4234898Y28683266D01*
X-3939847Y28298166D01*
X-3625261Y27887513D01*
X-3295703Y27457260D01*
X-2955736Y27013361D01*
X-2745574Y26738922D01*
X-2411837Y26303334D01*
X-2093045Y25887715D01*
X-1792919Y25496888D01*
X-1515175Y25135672D01*
X-1263534Y24808891D01*
X-1041715Y24521365D01*
X-853436Y24277916D01*
X-702416Y24083366D01*
X-592374Y23942536D01*
X-527030Y23860247D01*
X-509423Y23839816D01*
X-516119Y23881741D01*
X-538633Y23999201D01*
X-575472Y24184851D01*
X-625143Y24431348D01*
X-686155Y24731348D01*
X-757014Y25077507D01*
X-836228Y25462482D01*
X-922305Y25878928D01*
X-996835Y26238135D01*
X-1493388Y28627315D01*
X-3459952Y29548811D01*
X-3845782Y29729595D01*
X-4211984Y29901166D01*
X-4550699Y30059842D01*
X-4854064Y30201941D01*
X-5114220Y30323781D01*
X-5323306Y30421682D01*
X-5473460Y30491960D01*
X-5556823Y30530935D01*
X-5566478Y30535436D01*
X-5617251Y30555790D01*
X-5638798Y30551822D01*
X-6217240Y30551822D01*
X-6569516Y31011583D01*
X-6654531Y31097488D01*
X-5653472Y31097488D01*
X-5626705Y31078127D01*
X-5529603Y31026145D01*
X-5368581Y30944661D01*
X-5150057Y30836796D01*
X-4880447Y30705671D01*
X-4566167Y30554405D01*
X-4213635Y30386120D01*
X-3829266Y30203935D01*
X-3419478Y30010970D01*
X-3411020Y30007000D01*
X-1110946Y28927500D01*
X-572731Y26348422D01*
X-457311Y25795407D01*
X-357932Y25319714D01*
X-273331Y24915786D01*
X-202247Y24578066D01*
X-143416Y24300997D01*
X-95577Y24079020D01*
X-57467Y23906580D01*
X-27824Y23778117D01*
X-5386Y23688076D01*
X11108Y23630898D01*
X22923Y23601027D01*
X31318Y23592905D01*
X37558Y23600975D01*
X42904Y23619678D01*
X45008Y23628607D01*
X56664Y23682751D01*
X84096Y23812497D01*
X91461Y23847500D01*
X535336Y23847500D01*
X557918Y23872123D01*
X627821Y23958546D01*
X740878Y24101359D01*
X892919Y24295153D01*
X1079776Y24534520D01*
X1297279Y24814050D01*
X1541258Y25128334D01*
X1807546Y25471962D01*
X2091973Y25839526D01*
X2390370Y26225615D01*
X2698567Y26624822D01*
X3012396Y27031736D01*
X3327689Y27440948D01*
X3640274Y27847049D01*
X3945985Y28244631D01*
X4240651Y28628283D01*
X4520103Y28992596D01*
X4780174Y29332161D01*
X5016692Y29641570D01*
X5225490Y29915412D01*
X5402398Y30148278D01*
X5543247Y30334760D01*
X5643869Y30469448D01*
X5700093Y30546932D01*
X5708564Y30559621D01*
X5697415Y30575378D01*
X5630973Y30551764D01*
X5616560Y30544603D01*
X5555333Y30514910D01*
X5425162Y30453039D01*
X5233815Y30362643D01*
X4989060Y30247375D01*
X4698663Y30110889D01*
X4370394Y29956838D01*
X4012018Y29788874D01*
X3631303Y29610651D01*
X3526984Y29561852D01*
X3146045Y29383605D01*
X2788947Y29216365D01*
X2462914Y29063525D01*
X2175169Y28928478D01*
X1932936Y28814618D01*
X1743438Y28725338D01*
X1613898Y28664031D01*
X1551540Y28634091D01*
X1546957Y28631692D01*
X1536467Y28589684D01*
X1510402Y28472183D01*
X1470332Y28286609D01*
X1417828Y28040380D01*
X1354463Y27740916D01*
X1281806Y27395637D01*
X1201429Y27011961D01*
X1114904Y26597308D01*
X1048321Y26277195D01*
X957718Y25841704D01*
X871684Y25429507D01*
X791854Y25048344D01*
X719861Y24705952D01*
X657339Y24410070D01*
X605923Y24168437D01*
X567245Y23988792D01*
X542941Y23878872D01*
X535336Y23847500D01*
X91461Y23847500D01*
X125776Y24010568D01*
X180179Y24269686D01*
X245780Y24582572D01*
X321052Y24941949D01*
X404470Y25340539D01*
X494509Y25771063D01*
X589642Y26226245D01*
X607312Y26310823D01*
X702872Y26767485D01*
X793495Y27199067D01*
X877681Y27598524D01*
X953930Y27958811D01*
X1020742Y28272884D01*
X1076618Y28533697D01*
X1120059Y28734204D01*
X1149564Y28867362D01*
X1163634Y28926124D01*
X1164478Y28928344D01*
X1204236Y28948164D01*
X1315075Y29001256D01*
X1491400Y29084987D01*
X1727616Y29196724D01*
X2018129Y29333832D01*
X2357342Y29493679D01*
X2739661Y29673629D01*
X3159492Y29871051D01*
X3611238Y30083311D01*
X4089307Y30307774D01*
X4588101Y30541807D01*
X5102026Y30782777D01*
X5567588Y31000928D01*
X5766692Y31094195D01*
X5186588Y31164394D01*
X5031333Y31183117D01*
X4802442Y31210628D01*
X4510347Y31245678D01*
X4165480Y31287017D01*
X3778274Y31333396D01*
X3359162Y31383563D01*
X2918576Y31436270D01*
X2466950Y31490266D01*
X2318978Y31507951D01*
X31473Y31781307D01*
X-2782188Y31444892D01*
X-3261990Y31387464D01*
X-3717686Y31332806D01*
X-4142208Y31281773D01*
X-4528488Y31235219D01*
X-4869459Y31193999D01*
X-5158053Y31158970D01*
X-5387202Y31130986D01*
X-5549837Y31110902D01*
X-5638893Y31099573D01*
X-5653472Y31097488D01*
X-6654531Y31097488D01*
X-9036510Y33504375D01*
X-9477205Y33949506D01*
X-9862070Y34337746D01*
X-10194688Y34672521D01*
X-10478645Y34957257D01*
X-10717525Y35195381D01*
X-10914912Y35390318D01*
X-11074392Y35545495D01*
X-11199550Y35664338D01*
X-11293970Y35750273D01*
X-11361236Y35806727D01*
X-11404934Y35837126D01*
X-11428648Y35844896D01*
X-11435963Y35833463D01*
X-11430464Y35806253D01*
X-11423161Y35785500D01*
X-11395850Y35713604D01*
X-11340871Y35568925D01*
X-11260642Y35357822D01*
X-11157579Y35086652D01*
X-11034100Y34761776D01*
X-10892620Y34389551D01*
X-10735557Y33976337D01*
X-10565328Y33528491D01*
X-10384350Y33052372D01*
X-10195038Y32554339D01*
X-10105584Y32319008D01*
X-8868349Y29064182D01*
X-9608724Y27112008D01*
X-10349100Y25159834D01*
X-10597141Y25169288D01*
X-10683101Y25174689D01*
X-10845297Y25186996D01*
X-11075641Y25205524D01*
X-11366043Y25229591D01*
X-11708416Y25258512D01*
X-12094669Y25291604D01*
X-12516714Y25328183D01*
X-12966462Y25367566D01*
X-13435823Y25409068D01*
X-13467172Y25411854D01*
X-13929125Y25452757D01*
X-14365446Y25491064D01*
X-14768942Y25526166D01*
X-15132418Y25557451D01*
X-15448679Y25584311D01*
X-15710532Y25606133D01*
X-15910782Y25622310D01*
X-16042234Y25632229D01*
X-16097695Y25635281D01*
X-16099034Y25635094D01*
X-22302130Y25635094D01*
X-22578548Y27322362D01*
X-21531007Y27322362D01*
X-21523224Y27267455D01*
X-21508773Y27266799D01*
X-21498667Y27323458D01*
X-21505431Y27347938D01*
X-21524228Y27363973D01*
X-21531007Y27322362D01*
X-22578548Y27322362D01*
X-23655137Y33893911D01*
X-23792264Y34731354D01*
X-23925703Y35547084D01*
X-24054808Y36337124D01*
X-24178935Y37097499D01*
X-24297439Y37824230D01*
X-24409675Y38513343D01*
X-24514997Y39160861D01*
X-24612761Y39762807D01*
X-24702322Y40315204D01*
X-24783036Y40814077D01*
X-24854255Y41255449D01*
X-24870774Y41358189D01*
X-23846095Y41358189D01*
X-23837215Y41309478D01*
X-23815331Y41181633D01*
X-23781175Y40979064D01*
X-23735478Y40706183D01*
X-23678971Y40367400D01*
X-23612385Y39967127D01*
X-23536452Y39509773D01*
X-23451903Y38999750D01*
X-23359469Y38441469D01*
X-23259881Y37839341D01*
X-23153871Y37197777D01*
X-23042170Y36521187D01*
X-22925509Y35813982D01*
X-22804620Y35080574D01*
X-22691159Y34391731D01*
X-22567345Y33640543D01*
X-22447166Y32912917D01*
X-22331343Y32213154D01*
X-22220598Y31545558D01*
X-22115653Y30914430D01*
X-22017230Y30324073D01*
X-21926051Y29778789D01*
X-21842837Y29282880D01*
X-21768310Y28840648D01*
X-21703193Y28456396D01*
X-21648207Y28134425D01*
X-21604073Y27879038D01*
X-21571515Y27694538D01*
X-21551253Y27585226D01*
X-21544059Y27554898D01*
X-21546212Y27603133D01*
X-21555016Y27731204D01*
X-21570108Y27934572D01*
X-21591122Y28208695D01*
X-21617696Y28549035D01*
X-21649466Y28951052D01*
X-21686067Y29410207D01*
X-21727136Y29921958D01*
X-21772309Y30481768D01*
X-21821221Y31085095D01*
X-21873510Y31727400D01*
X-21928811Y32404144D01*
X-21986759Y33110787D01*
X-22046993Y33842789D01*
X-22085033Y34303834D01*
X-22146537Y35050067D01*
X-22205972Y35774273D01*
X-22262975Y36471866D01*
X-22317181Y37138266D01*
X-22368225Y37768887D01*
X-22415743Y38359149D01*
X-22459370Y38904466D01*
X-22498741Y39400257D01*
X-22533493Y39841939D01*
X-22563260Y40224928D01*
X-22587679Y40544641D01*
X-22606384Y40796495D01*
X-22619011Y40975908D01*
X-22625195Y41078295D01*
X-22625657Y41100895D01*
X-22619879Y41117021D01*
X-22604128Y41123426D01*
X-22574232Y41117248D01*
X-22526022Y41095619D01*
X-22455325Y41055674D01*
X-22357970Y40994549D01*
X-22229787Y40909377D01*
X-22066604Y40797293D01*
X-21864250Y40655432D01*
X-21618554Y40480929D01*
X-21325345Y40270918D01*
X-20980451Y40022533D01*
X-20579703Y39732909D01*
X-20118928Y39399181D01*
X-19593955Y39018483D01*
X-19587016Y39013449D01*
X-19121621Y38675842D01*
X-18664528Y38344292D01*
X-18221957Y38023308D01*
X-17800127Y37717398D01*
X-17405258Y37431073D01*
X-17043568Y37168842D01*
X-16721278Y36935214D01*
X-16444606Y36734699D01*
X-16219773Y36571804D01*
X-16052997Y36451041D01*
X-15975604Y36395056D01*
X-15391025Y35972503D01*
X-18577286Y39509085D01*
X-18997591Y39975286D01*
X-19402252Y40423518D01*
X-19787649Y40849803D01*
X-20150161Y41250164D01*
X-20486169Y41620625D01*
X-20792054Y41957209D01*
X-21064196Y42255938D01*
X-21238909Y42447112D01*
X-20609673Y42447112D01*
X-20587327Y42418274D01*
X-20511615Y42330367D01*
X-20385906Y42187161D01*
X-20213574Y41992429D01*
X-19997988Y41749945D01*
X-19742521Y41463479D01*
X-19450544Y41136806D01*
X-19125428Y40773696D01*
X-18770545Y40377923D01*
X-18389266Y39953258D01*
X-17984962Y39503475D01*
X-17561005Y39032345D01*
X-17168030Y38596084D01*
X-13683709Y34729778D01*
X-12130599Y30516306D01*
X-11918863Y29941953D01*
X-11714719Y29388336D01*
X-11520152Y28860829D01*
X-11337145Y28364804D01*
X-11167684Y27905634D01*
X-11013752Y27488694D01*
X-10877333Y27119355D01*
X-10760411Y26802992D01*
X-10664971Y26544977D01*
X-10592997Y26350684D01*
X-10546472Y26225486D01*
X-10527808Y26175834D01*
X-10478128Y26048834D01*
X-10396812Y26260500D01*
X-10362004Y26351690D01*
X-10301559Y26510684D01*
X-10219794Y26726097D01*
X-10121030Y26986544D01*
X-10009583Y27280638D01*
X-9889772Y27596995D01*
X-9824477Y27769483D01*
X-9333457Y29066799D01*
X-12160296Y36491401D01*
X-11374349Y36491401D01*
X-11345126Y36458265D01*
X-11260378Y36369731D01*
X-11124487Y36230233D01*
X-10941838Y36044202D01*
X-10716813Y35816069D01*
X-10453796Y35550266D01*
X-10157169Y35251226D01*
X-9831316Y34923380D01*
X-9480619Y34571159D01*
X-9109462Y34198996D01*
X-8866848Y33956035D01*
X-8420562Y33509476D01*
X-8030056Y33119187D01*
X-7691377Y32781435D01*
X-7400572Y32492487D01*
X-7153688Y32248610D01*
X-6946772Y32046070D01*
X-6775871Y31881134D01*
X-6637033Y31750069D01*
X-6526303Y31649142D01*
X-6439730Y31574619D01*
X-6373359Y31522768D01*
X-6323239Y31489854D01*
X-6285416Y31472146D01*
X-6255938Y31465909D01*
X-6231598Y31467285D01*
X-6160639Y31476864D01*
X-6016064Y31494656D01*
X-5808392Y31519427D01*
X-5548146Y31549943D01*
X-5245846Y31584967D01*
X-4912014Y31623267D01*
X-4601016Y31658641D01*
X-3911816Y31736883D01*
X-3305527Y31806057D01*
X-2780898Y31866311D01*
X-2336676Y31917791D01*
X-1971609Y31960645D01*
X-1684446Y31995021D01*
X-1473932Y32021066D01*
X-1338818Y32038927D01*
X-1299423Y32045275D01*
X1370328Y32045275D01*
X1417940Y32038222D01*
X1540971Y32022424D01*
X1730742Y31998907D01*
X1978570Y31968699D01*
X2275775Y31932829D01*
X2613676Y31892324D01*
X2983592Y31848213D01*
X3376842Y31801524D01*
X3784746Y31753285D01*
X4198623Y31704523D01*
X4609791Y31656267D01*
X5009570Y31609545D01*
X5389278Y31565384D01*
X5740236Y31524814D01*
X6053762Y31488861D01*
X6321175Y31458555D01*
X6386242Y31451261D01*
X6422016Y31479943D01*
X6512748Y31564586D01*
X6654015Y31700799D01*
X6841393Y31884193D01*
X7070458Y32110376D01*
X7336788Y32374959D01*
X7635959Y32673550D01*
X7963548Y33001760D01*
X8315130Y33355198D01*
X8686284Y33729473D01*
X8942181Y33988169D01*
X9386629Y34438087D01*
X9774768Y34831481D01*
X10109935Y35171918D01*
X10395466Y35462965D01*
X10634698Y35708187D01*
X10830967Y35911153D01*
X10987610Y36075428D01*
X11107963Y36204580D01*
X11195363Y36302176D01*
X11253146Y36371781D01*
X11284648Y36416963D01*
X11293207Y36441289D01*
X11282158Y36448326D01*
X11254838Y36441640D01*
X11226423Y36430093D01*
X10369533Y36053727D01*
X9531475Y35685191D01*
X8715560Y35325960D01*
X7925100Y34977506D01*
X7163407Y34641302D01*
X6433793Y34318824D01*
X5739570Y34011543D01*
X5084048Y33720933D01*
X4470542Y33448467D01*
X3902361Y33195620D01*
X3382819Y32963863D01*
X2915227Y32754672D01*
X2502897Y32569518D01*
X2149140Y32409877D01*
X1857269Y32277219D01*
X1630596Y32173021D01*
X1472432Y32098754D01*
X1386089Y32055892D01*
X1370328Y32045275D01*
X-1299423Y32045275D01*
X-1277850Y32048751D01*
X-1273877Y32050100D01*
X-1309931Y32068371D01*
X-1417377Y32117976D01*
X-1590094Y32196186D01*
X-1821962Y32300273D01*
X-2106861Y32427508D01*
X-2438670Y32575160D01*
X-2811268Y32740503D01*
X-3218536Y32920805D01*
X-3654353Y33113339D01*
X-4022532Y33275696D01*
X-4563235Y33513959D01*
X-5146649Y33771070D01*
X-5757466Y34040280D01*
X-6380375Y34314843D01*
X-7000070Y34588009D01*
X-7601242Y34853032D01*
X-8168583Y35103162D01*
X-8686783Y35331653D01*
X-9077766Y35504072D01*
X-9491400Y35686077D01*
X-9881110Y35856745D01*
X-10240169Y36013185D01*
X-10561854Y36152506D01*
X-10839437Y36271817D01*
X-11066194Y36368226D01*
X-11235400Y36438841D01*
X-11340329Y36480772D01*
X-11374349Y36491401D01*
X-12160296Y36491401D01*
X-12358953Y37013167D01*
X-16462974Y39722500D01*
X-16996013Y40074285D01*
X-17509607Y40413025D01*
X-17999310Y40735798D01*
X-18460674Y41039681D01*
X-18889251Y41321752D01*
X-19280595Y41579090D01*
X-19630258Y41808772D01*
X-19933792Y42007876D01*
X-20186750Y42173479D01*
X-20384685Y42302661D01*
X-20523150Y42392497D01*
X-20597696Y42440067D01*
X-20609673Y42447112D01*
X-21238909Y42447112D01*
X-21298974Y42512835D01*
X-21492769Y42723925D01*
X-21641962Y42885229D01*
X-21742932Y42992771D01*
X-21792060Y43042573D01*
X-21796217Y43045667D01*
X-21836273Y43020284D01*
X-21934116Y42948401D01*
X-22081430Y42836424D01*
X-22269897Y42690753D01*
X-22491200Y42517794D01*
X-22737023Y42323948D01*
X-22847138Y42236606D01*
X-23161807Y41984736D01*
X-23412214Y41780020D01*
X-23602098Y41619173D01*
X-23735196Y41498907D01*
X-23815247Y41415934D01*
X-23845990Y41366968D01*
X-23846095Y41358189D01*
X-24870774Y41358189D01*
X-24915337Y41635344D01*
X-24965636Y41949785D01*
X-25004507Y42194796D01*
X-25031305Y42366400D01*
X-25045385Y42460620D01*
X-25047474Y42478020D01*
X-25029806Y42516295D01*
X-24973374Y42579692D01*
X-24873535Y42672102D01*
X-24725645Y42797415D01*
X-24525061Y42959524D01*
X-24267139Y43162320D01*
X-23947234Y43409693D01*
X-23809766Y43515186D01*
X-23527064Y43730804D01*
X-23264759Y43929011D01*
X-23030570Y44104114D01*
X-22832216Y44250424D01*
X-22677414Y44362248D01*
X-22573883Y44433896D01*
X-22529340Y44459675D01*
X-22528922Y44459675D01*
X-22489116Y44436289D01*
X-22382734Y44368916D01*
X-22213851Y44260224D01*
X-21986543Y44112880D01*
X-21704886Y43929552D01*
X-21372957Y43712905D01*
X-20994830Y43465608D01*
X-20574584Y43190328D01*
X-20116292Y42889732D01*
X-19624033Y42566487D01*
X-19101881Y42223260D01*
X-18553913Y41862719D01*
X-17984205Y41487531D01*
X-17618255Y41246354D01*
X-17035185Y40862035D01*
X-16470220Y40489757D01*
X-15927534Y40132266D01*
X-15411300Y39792307D01*
X-14925691Y39472624D01*
X-14474881Y39175962D01*
X-14063043Y38905066D01*
X-13694350Y38662679D01*
X-13372976Y38451548D01*
X-13103093Y38274416D01*
X-12888875Y38134028D01*
X-12734495Y38033129D01*
X-12644127Y37974464D01*
X-12622410Y37960704D01*
X-12569598Y37935112D01*
X-12443639Y37877334D01*
X-12248874Y37789298D01*
X-11989646Y37672934D01*
X-11670297Y37530171D01*
X-11295167Y37362940D01*
X-10868600Y37173168D01*
X-10394936Y36962788D01*
X-9878517Y36733726D01*
X-9323686Y36487914D01*
X-8734784Y36227280D01*
X-8116152Y35953755D01*
X-7472133Y35669267D01*
X-6807068Y35375746D01*
X-6635967Y35300274D01*
X-777295Y32716334D01*
X823452Y32716334D01*
X12607484Y37915358D01*
X22581466Y44487712D01*
X23847828Y43523273D01*
X23847828Y43523273D01*
G37*
X23847828Y43523273D02*
X24175483Y43273249D01*
X24441564Y43068750D01*
X24652227Y42904497D01*
X24813626Y42775211D01*
X24931919Y42675612D01*
X25013261Y42600420D01*
X25063807Y42544358D01*
X25089715Y42502144D01*
X25097138Y42468501D01*
X25095800Y42453000D01*
X25087247Y42401315D01*
X25065697Y42270064D01*
X25031802Y42063245D01*
X24986218Y41784852D01*
X24929596Y41438880D01*
X24862590Y41029323D01*
X24785853Y40560178D01*
X24700039Y40035438D01*
X24605801Y39459099D01*
X24503791Y38835155D01*
X24394664Y38167603D01*
X24279072Y37460436D01*
X24157670Y36717650D01*
X24031109Y35943240D01*
X23900043Y35141200D01*
X23765126Y34315526D01*
X23694046Y33880500D01*
X22310681Y25413834D01*
X20266335Y21595888D01*
X18221989Y17777941D01*
X18181837Y14483888D01*
X18141685Y11189834D01*
X18391638Y9035165D01*
X18439797Y8617972D01*
X18484468Y8226989D01*
X18524780Y7870131D01*
X18559861Y7555314D01*
X18588839Y7290451D01*
X18610841Y7083456D01*
X18624997Y6942245D01*
X18630433Y6874731D01*
X18630204Y6869996D01*
X18591374Y6850138D01*
X18482182Y6795690D01*
X18308242Y6709424D01*
X18075171Y6594113D01*
X17788583Y6452527D01*
X17454093Y6287439D01*
X17077318Y6101620D01*
X16663870Y5897844D01*
X16219367Y5678880D01*
X15749423Y5447502D01*
X15472068Y5310999D01*
X12325320Y3762502D01*
X3336484Y1247238D01*
X2659151Y599388D01*
X1981817Y-48461D01*
X13144Y-49064D01*
X-1955530Y-49666D01*
X-3235481Y1230285D01*
X-6859076Y2243426D01*
X-1961873Y2243426D01*
X-1556361Y2150168D01*
X-1384417Y2110233D01*
X-1151421Y2055560D01*
X-878650Y1991172D01*
X-587381Y1922090D01*
X-304183Y1854601D01*
X-47967Y1793500D01*
X179931Y1739381D01*
X366799Y1695246D01*
X499925Y1664093D01*
X566595Y1648922D01*
X571381Y1647980D01*
X605035Y1678626D01*
X620405Y1717750D01*
X668182Y1904418D01*
X710148Y2087903D01*
X742553Y2249286D01*
X761648Y2369651D01*
X763683Y2430078D01*
X762156Y2432939D01*
X714616Y2450071D01*
X597577Y2482203D01*
X423347Y2526501D01*
X204232Y2580130D01*
X-47459Y2640258D01*
X-319418Y2704049D01*
X-599339Y2768670D01*
X-874913Y2831287D01*
X-1133833Y2889066D01*
X-1363791Y2939173D01*
X-1552480Y2978775D01*
X-1687591Y3005036D01*
X-1756818Y3015124D01*
X-1763120Y3014408D01*
X-1782267Y2965809D01*
X-1814424Y2854461D01*
X-1854047Y2700220D01*
X-1873861Y2617752D01*
X-1961873Y2243426D01*
X-6859076Y2243426D01*
X-7759999Y2495320D01*
X-12284516Y3760355D01*
X-15224163Y5207376D01*
X-2079912Y5207376D01*
X-2068490Y5165754D01*
X-2055908Y5153924D01*
X-2007278Y5121552D01*
X-1898753Y5046936D01*
X-1739665Y4936569D01*
X-1539348Y4796948D01*
X-1307137Y4634568D01*
X-1052366Y4455923D01*
X-1002683Y4421032D01*
X-746169Y4242309D01*
X-511236Y4081422D01*
X-306976Y3944374D01*
X-142481Y3837170D01*
X-26842Y3765812D01*
X30849Y3736303D01*
X34765Y3735989D01*
X79198Y3762835D01*
X183968Y3831989D01*
X339999Y3937280D01*
X538214Y4072537D01*
X769538Y4231587D01*
X1024894Y4408260D01*
X1093099Y4455622D01*
X1352109Y4636694D01*
X1587778Y4803518D01*
X1791281Y4949680D01*
X1953791Y5068768D01*
X2066483Y5154368D01*
X2120532Y5200067D01*
X2123889Y5204617D01*
X2120145Y5259411D01*
X2099929Y5378173D01*
X2067316Y5542738D01*
X2026384Y5734941D01*
X1981210Y5936615D01*
X1935871Y6129595D01*
X1894444Y6295715D01*
X1861006Y6416809D01*
X1839634Y6474711D01*
X1838521Y6476119D01*
X1790414Y6488265D01*
X1670765Y6506503D01*
X1492350Y6529236D01*
X1267946Y6554870D01*
X1010328Y6581809D01*
X923484Y6590393D01*
X626338Y6619003D01*
X392910Y6639399D01*
X202660Y6651646D01*
X35044Y6655807D01*
X-130479Y6651946D01*
X-314452Y6640126D01*
X-537417Y6620412D01*
X-791016Y6595715D01*
X-1051911Y6570400D01*
X-1288523Y6548173D01*
X-1486157Y6530358D01*
X-1630115Y6518275D01*
X-1705701Y6513248D01*
X-1708348Y6513190D01*
X-1744393Y6506167D01*
X-1775570Y6478307D01*
X-1806283Y6417869D01*
X-1840940Y6313115D01*
X-1883945Y6152303D01*
X-1939704Y5923695D01*
X-1957239Y5849997D01*
X-2016396Y5595103D01*
X-2055482Y5410641D01*
X-2076115Y5285202D01*
X-2079912Y5207376D01*
X-15224163Y5207376D01*
X-15396016Y5291969D01*
X-15876312Y5528659D01*
X-16335066Y5755252D01*
X-16766540Y5968885D01*
X-17164999Y6166694D01*
X-17524707Y6345813D01*
X-17839928Y6503378D01*
X-18104925Y6636527D01*
X-18309477Y6740122D01*
X-3880982Y6740122D01*
X-3845377Y6711229D01*
X-3748120Y6651770D01*
X-3603225Y6569171D01*
X-3424704Y6470858D01*
X-3226570Y6364258D01*
X-3022836Y6256796D01*
X-2827515Y6155899D01*
X-2654619Y6068993D01*
X-2518160Y6003504D01*
X-2432153Y5966859D01*
X-2412079Y5961667D01*
X-2385549Y6000167D01*
X-2349703Y6103151D01*
X-2310605Y6251844D01*
X-2293595Y6328522D01*
X-2257608Y6497868D01*
X-2222305Y6631346D01*
X-2177669Y6734206D01*
X-2113683Y6811698D01*
X-2020328Y6869070D01*
X-1887588Y6911573D01*
X-1705444Y6944455D01*
X-1463878Y6972967D01*
X-1152874Y7002357D01*
X-977494Y7018181D01*
X42528Y7110426D01*
X1033339Y7017429D01*
X1369871Y6984614D01*
X1631588Y6955980D01*
X1828152Y6930046D01*
X1969225Y6905331D01*
X2064469Y6880355D01*
X2123547Y6853635D01*
X2129984Y6849315D01*
X2184782Y6796402D01*
X2230704Y6713654D01*
X2274750Y6583965D01*
X2323918Y6390226D01*
X2331898Y6355756D01*
X2427979Y5937313D01*
X3188548Y6319907D01*
X3469159Y6463357D01*
X3678103Y6575710D01*
X3821031Y6660361D01*
X3903598Y6720709D01*
X3931456Y6760150D01*
X3930912Y6766000D01*
X3921782Y6815212D01*
X3899741Y6942722D01*
X3865665Y7143292D01*
X3820427Y7411683D01*
X3764902Y7742657D01*
X3699964Y8130975D01*
X3626487Y8571399D01*
X3545347Y9058690D01*
X3457416Y9587608D01*
X3363571Y10152917D01*
X3264684Y10749377D01*
X3161630Y11371750D01*
X3098285Y11754687D01*
X2342221Y16326940D01*
X2781977Y16326940D01*
X3512682Y11916887D01*
X3633726Y11186156D01*
X3741636Y10534493D01*
X3837193Y9957451D01*
X3921180Y9450581D01*
X3994377Y9009436D01*
X4057565Y8629569D01*
X4111527Y8306531D01*
X4157043Y8035877D01*
X4194895Y7813157D01*
X4225865Y7633924D01*
X4250734Y7493731D01*
X4270282Y7388130D01*
X4285293Y7312675D01*
X4296546Y7262916D01*
X4304824Y7234406D01*
X4310908Y7222699D01*
X4315579Y7223347D01*
X4319618Y7231901D01*
X4323808Y7243914D01*
X4328929Y7254940D01*
X4331241Y7257903D01*
X4361742Y7297944D01*
X4437396Y7400808D01*
X4553924Y7560585D01*
X4707041Y7771364D01*
X4892465Y8027235D01*
X5105914Y8322287D01*
X5343106Y8650609D01*
X5599759Y9006290D01*
X5871589Y9383420D01*
X5937027Y9474266D01*
X7506460Y11653366D01*
X7199472Y11964532D01*
X7116578Y12047703D01*
X6979270Y12184425D01*
X6793462Y12368847D01*
X6565070Y12595115D01*
X6300010Y12857379D01*
X6004197Y13149786D01*
X5683547Y13466485D01*
X5343975Y13801624D01*
X4991398Y14149351D01*
X4837230Y14301319D01*
X2781977Y16326940D01*
X2342221Y16326940D01*
X2294494Y16615566D01*
X3160105Y16615566D01*
X3185832Y16583284D01*
X3266497Y16497341D01*
X3396503Y16363272D01*
X3570254Y16186612D01*
X3782153Y15972895D01*
X4026603Y15727656D01*
X4298009Y15456429D01*
X4590773Y15164748D01*
X4899299Y14858148D01*
X5217991Y14542164D01*
X5541250Y14222330D01*
X5863483Y13904180D01*
X6179090Y13593249D01*
X6482477Y13295072D01*
X6768046Y13015182D01*
X7030200Y12759115D01*
X7263344Y12532404D01*
X7461881Y12340585D01*
X7620213Y12189191D01*
X7732745Y12083757D01*
X7793880Y12029819D01*
X7803351Y12023853D01*
X7837038Y12055084D01*
X7926296Y12142791D01*
X8067294Y12283116D01*
X8256204Y12472199D01*
X8489197Y12706182D01*
X8762443Y12981208D01*
X9072113Y13293418D01*
X9414379Y13638954D01*
X9785410Y14013957D01*
X10181377Y14414569D01*
X10598452Y14836932D01*
X11032805Y15277188D01*
X11129777Y15375531D01*
X11572330Y15825013D01*
X11994455Y16254986D01*
X12392645Y16661813D01*
X12763394Y17041859D01*
X13103193Y17391488D01*
X13408535Y17707063D01*
X13675914Y17984948D01*
X13901822Y18221508D01*
X14082751Y18413106D01*
X14215195Y18556107D01*
X14295645Y18646873D01*
X14320595Y18681770D01*
X14319050Y18681880D01*
X14262411Y18665173D01*
X14130973Y18627138D01*
X13931355Y18569671D01*
X13670176Y18494669D01*
X13354056Y18404029D01*
X12989614Y18299648D01*
X12583468Y18183422D01*
X12142240Y18057249D01*
X11672547Y17923025D01*
X11196844Y17787168D01*
X8177538Y16925138D01*
X7027011Y16842108D01*
X6667756Y16817429D01*
X6249343Y16790745D01*
X5797207Y16763549D01*
X5336783Y16737333D01*
X4893508Y16713590D01*
X4526357Y16695385D01*
X4197184Y16679392D01*
X3896025Y16663871D01*
X3633061Y16649415D01*
X3418474Y16636620D01*
X3262444Y16626080D01*
X3175153Y16618390D01*
X3160105Y16615566D01*
X2294494Y16615566D01*
X2283860Y16679874D01*
X1328505Y16644187D01*
X1007802Y16633752D01*
X674230Y16625597D01*
X351303Y16620108D01*
X62537Y16617673D01*
X-168556Y16618677D01*
X-195729Y16619128D01*
X-764609Y16629756D01*
X-647914Y16507954D01*
X-531220Y16386151D01*
X-798702Y16361105D01*
X-940863Y16349961D01*
X-1143162Y16336955D01*
X-1381138Y16323533D01*
X-1630325Y16311140D01*
X-1690599Y16308412D01*
X-1909548Y16297018D01*
X-2094941Y16284129D01*
X-2232037Y16271027D01*
X-2306096Y16258993D01*
X-2314937Y16254133D01*
X-2321713Y16209695D01*
X-2341479Y16087030D01*
X-2373363Y15891434D01*
X-2416491Y15628201D01*
X-2469992Y15302628D01*
X-2532991Y14920012D01*
X-2604616Y14485649D01*
X-2683995Y14004834D01*
X-2770253Y13482863D01*
X-2862519Y12925033D01*
X-2959919Y12336639D01*
X-3061580Y11722978D01*
X-3098104Y11502622D01*
X-3201076Y10881101D01*
X-3300087Y10282820D01*
X-3394262Y9713090D01*
X-3482729Y9177225D01*
X-3564614Y8680536D01*
X-3639044Y8228336D01*
X-3705146Y7825936D01*
X-3762046Y7478650D01*
X-3808871Y7191790D01*
X-3844749Y6970668D01*
X-3868805Y6820596D01*
X-3880166Y6746886D01*
X-3880982Y6740122D01*
X-18309477Y6740122D01*
X-18313962Y6742393D01*
X-18461304Y6818114D01*
X-18541214Y6860825D01*
X-18554058Y6868875D01*
X-18562469Y6906709D01*
X-18562372Y6998627D01*
X-18553368Y7148837D01*
X-18535058Y7361552D01*
X-18507044Y7640980D01*
X-18468927Y7991332D01*
X-18420307Y8416818D01*
X-18360788Y8921649D01*
X-18355335Y8967334D01*
X-18110071Y11020500D01*
X-18114553Y11655500D01*
X-7466851Y11655500D01*
X-5875183Y9447450D01*
X-5599214Y9065362D01*
X-5337771Y8704842D01*
X-5095040Y8371569D01*
X-4875207Y8071220D01*
X-4682457Y7809474D01*
X-4520978Y7592008D01*
X-4394955Y7424501D01*
X-4308574Y7312630D01*
X-4266020Y7262073D01*
X-4262349Y7259766D01*
X-4252713Y7303423D01*
X-4230221Y7425189D01*
X-4195796Y7619635D01*
X-4150358Y7881334D01*
X-4094830Y8204856D01*
X-4030133Y8584773D01*
X-3957188Y9015655D01*
X-3876917Y9492073D01*
X-3790242Y10008600D01*
X-3698083Y10559806D01*
X-3601363Y11140263D01*
X-3501003Y11744541D01*
X-3497441Y11766026D01*
X-3364078Y12573100D01*
X-3244680Y13301312D01*
X-3139320Y13950185D01*
X-3048073Y14519243D01*
X-2971013Y15008008D01*
X-2908213Y15416003D01*
X-2859748Y15742754D01*
X-2825690Y15987782D01*
X-2806115Y16150611D01*
X-2801095Y16230764D01*
X-2803990Y16239710D01*
X-2841382Y16208637D01*
X-2934079Y16122452D01*
X-3077363Y15985754D01*
X-3266518Y15803146D01*
X-3496824Y15579226D01*
X-3763566Y15318598D01*
X-4062024Y15025860D01*
X-4387481Y14705614D01*
X-4735221Y14362461D01*
X-5100524Y14001002D01*
X-5160566Y13941500D01*
X-7466851Y11655500D01*
X-18114553Y11655500D01*
X-18130839Y13962667D01*
X-18134614Y14458836D01*
X-18138752Y14933585D01*
X-18143156Y15379579D01*
X-18147572Y15775441D01*
X-11438353Y15775441D01*
X-11413623Y15742368D01*
X-11335118Y15655722D01*
X-11208992Y15521738D01*
X-11041402Y15346648D01*
X-10838505Y15136686D01*
X-10606455Y14898085D01*
X-10351408Y14637077D01*
X-10079522Y14359897D01*
X-9796951Y14072776D01*
X-9509852Y13781948D01*
X-9224381Y13493646D01*
X-8946693Y13214104D01*
X-8682944Y12949554D01*
X-8439291Y12706229D01*
X-8221890Y12490362D01*
X-8036896Y12308188D01*
X-7890465Y12165938D01*
X-7788753Y12069845D01*
X-7737916Y12026144D01*
X-7733515Y12024178D01*
X-7698885Y12055289D01*
X-7609060Y12141226D01*
X-7468944Y12277178D01*
X-7283441Y12458331D01*
X-7057453Y12679875D01*
X-6795885Y12936996D01*
X-6503640Y13224883D01*
X-6185621Y13538724D01*
X-5846732Y13873706D01*
X-5596465Y14121417D01*
X-5186604Y14527639D01*
X-4833456Y14878491D01*
X-4533293Y15177891D01*
X-4282383Y15429757D01*
X-4076996Y15638005D01*
X-3913402Y15806551D01*
X-3787869Y15939315D01*
X-3696667Y16040211D01*
X-3636066Y16113159D01*
X-3602335Y16162073D01*
X-3591744Y16190873D01*
X-3600561Y16203474D01*
X-3612184Y16204921D01*
X-3697875Y16202142D01*
X-3857056Y16195155D01*
X-4082534Y16184355D01*
X-4367116Y16170136D01*
X-4703611Y16152893D01*
X-5084827Y16133021D01*
X-5503570Y16110914D01*
X-5952649Y16086968D01*
X-6424872Y16061577D01*
X-6913046Y16035135D01*
X-7409978Y16008037D01*
X-7908478Y15980678D01*
X-8401351Y15953453D01*
X-8881407Y15926757D01*
X-9341453Y15900983D01*
X-9774296Y15876527D01*
X-10172745Y15853784D01*
X-10529606Y15833147D01*
X-10837689Y15815013D01*
X-11089799Y15799775D01*
X-11278746Y15787828D01*
X-11397337Y15779567D01*
X-11438353Y15775441D01*
X-18147572Y15775441D01*
X-18147729Y15789486D01*
X-18152375Y16155971D01*
X-18156996Y16471700D01*
X-18161495Y16729341D01*
X-18165775Y16921558D01*
X-18169740Y17041018D01*
X-18172010Y17075440D01*
X-18193058Y17165026D01*
X-18240842Y17268715D01*
X-18323555Y17400108D01*
X-18449392Y17572802D01*
X-18551047Y17704516D01*
X-18909683Y18162984D01*
X-18909683Y18180103D01*
X-17639683Y18180103D01*
X-17439333Y17923468D01*
X-17355228Y17816296D01*
X-17228823Y17655955D01*
X-17070491Y17455565D01*
X-16890604Y17228247D01*
X-16699532Y16987121D01*
X-16592279Y16851917D01*
X-15945575Y16037000D01*
X-15142016Y16037000D01*
X-15142016Y17107919D01*
X-3981918Y17107919D01*
X-3923683Y17102018D01*
X-3863585Y17108671D01*
X-3870766Y17123370D01*
X-3957437Y17128962D01*
X-3976599Y17123370D01*
X-3981918Y17107919D01*
X-15142016Y17107919D01*
X-15142016Y17590834D01*
X-15860575Y18094500D01*
X-16579133Y18598167D01*
X-16569658Y19909111D01*
X-16560183Y21220054D01*
X-15851099Y21722140D01*
X-15330596Y22090697D01*
X-11242776Y22090697D01*
X-11204377Y22017750D01*
X-11121130Y21888350D01*
X-10991737Y21700640D01*
X-10814906Y21452764D01*
X-10589340Y21142865D01*
X-10313745Y20769087D01*
X-10136954Y20531013D01*
X-8940183Y18922776D01*
X-7373849Y18061972D01*
X-5807516Y17201167D01*
X-5341849Y17177264D01*
X-5109706Y17166721D01*
X-4873505Y17158374D01*
X-4646972Y17152416D01*
X-4443831Y17149041D01*
X-4277809Y17148441D01*
X-4162631Y17150810D01*
X-4112021Y17156341D01*
X-4114183Y17159993D01*
X-4167190Y17171965D01*
X-4290191Y17196187D01*
X-4469813Y17230135D01*
X-4692680Y17271289D01*
X-4945420Y17317124D01*
X-4986187Y17324446D01*
X-5815857Y17473257D01*
X-6433004Y17851014D01*
X-1808693Y17851014D01*
X-1480758Y17471572D01*
X-1344558Y17320441D01*
X-1220371Y17194312D01*
X-1122436Y17106927D01*
X-1067169Y17072421D01*
X-983020Y17062089D01*
X-835766Y17052411D01*
X-646969Y17044021D01*
X-438190Y17037553D01*
X-230991Y17033641D01*
X-46935Y17032917D01*
X92417Y17036016D01*
X119151Y17037560D01*
X211552Y17042404D01*
X373277Y17049161D01*
X589018Y17057263D01*
X843469Y17066144D01*
X1121321Y17075234D01*
X1209234Y17077988D01*
X1478094Y17087465D01*
X1715965Y17098042D01*
X1891543Y17107919D01*
X4019082Y17107919D01*
X4077317Y17102018D01*
X4137415Y17108671D01*
X4130234Y17123370D01*
X4043563Y17128962D01*
X4024401Y17123370D01*
X4019082Y17107919D01*
X1891543Y17107919D01*
X1910707Y17108997D01*
X2050181Y17119610D01*
X2122250Y17129159D01*
X2129499Y17132677D01*
X2114150Y17175444D01*
X2069981Y17290344D01*
X1999557Y17470875D01*
X1905444Y17710536D01*
X1790207Y18002826D01*
X1656412Y18341242D01*
X1506623Y18719284D01*
X1343407Y19130449D01*
X1169328Y19568236D01*
X1075199Y19804667D01*
X866013Y20329279D01*
X685604Y20780168D01*
X531779Y21162411D01*
X402349Y21481084D01*
X295122Y21741265D01*
X207906Y21948029D01*
X138511Y22106455D01*
X84745Y22221619D01*
X44418Y22298598D01*
X15338Y22342468D01*
X-4686Y22358307D01*
X-17845Y22351191D01*
X-21056Y22344667D01*
X-44316Y22286349D01*
X-95876Y22156871D01*
X-172745Y21963744D01*
X-271935Y21714481D01*
X-390457Y21416596D01*
X-525322Y21077600D01*
X-673541Y20705005D01*
X-832124Y20306326D01*
X-936095Y20044924D01*
X-1808693Y17851014D01*
X-6433004Y17851014D01*
X-7283065Y18371338D01*
X-8750272Y19269419D01*
X-9199782Y20050171D01*
X-9362358Y20333781D01*
X-9485955Y20553223D01*
X-9574667Y20717214D01*
X-9632590Y20834477D01*
X-9663818Y20913730D01*
X-9672449Y20963695D01*
X-9662575Y20993092D01*
X-9648311Y21005217D01*
X-9599792Y20999791D01*
X-9479083Y20973543D01*
X-9295426Y20928843D01*
X-9058058Y20868059D01*
X-8776220Y20793561D01*
X-8459150Y20707718D01*
X-8116089Y20612901D01*
X-8088873Y20605299D01*
X-7650912Y20481730D01*
X-7288876Y20376911D01*
X-6996598Y20288865D01*
X-6767914Y20215616D01*
X-6596656Y20155186D01*
X-6476660Y20105599D01*
X-6401759Y20064876D01*
X-6400183Y20063797D01*
X-6329062Y20012894D01*
X-6198518Y19917591D01*
X-6016988Y19784117D01*
X-5792909Y19618704D01*
X-5534718Y19427582D01*
X-5250851Y19216980D01*
X-4949745Y18993130D01*
X-4876183Y18938373D01*
X-4584697Y18722125D01*
X-4318818Y18526381D01*
X-4085130Y18355875D01*
X-3890217Y18215340D01*
X-3740663Y18109509D01*
X-3643054Y18043115D01*
X-3603972Y18020891D01*
X-3606183Y18025409D01*
X-3654568Y18075441D01*
X-3756622Y18177530D01*
X-3905289Y18324733D01*
X-4093514Y18510104D01*
X-4314242Y18726699D01*
X-4560418Y18967576D01*
X-4824987Y19225789D01*
X-4900360Y19299234D01*
X-6109870Y20477415D01*
X-8625693Y21278131D01*
X-9071338Y21419961D01*
X-9494817Y21554726D01*
X-9573239Y21579680D01*
X-6085135Y21579680D01*
X-6078513Y21559809D01*
X-6025869Y21531346D01*
X-5919089Y21490977D01*
X-5750058Y21435391D01*
X-5510663Y21361275D01*
X-5403205Y21328667D01*
X-4633229Y21095834D01*
X-3677533Y19995167D01*
X-3436993Y19718407D01*
X-3200525Y19446829D01*
X-2977331Y19190964D01*
X-2776612Y18961342D01*
X-2607567Y18768493D01*
X-2479398Y18622949D01*
X-2427128Y18564036D01*
X-2132419Y18233571D01*
X-1844506Y18966203D01*
X-1758216Y19185742D01*
X-1647133Y19468306D01*
X-1517454Y19798131D01*
X-1375379Y20159452D01*
X-1227106Y20536504D01*
X-1078835Y20913521D01*
X-990481Y21138167D01*
X-842765Y21517354D01*
X-716930Y21847815D01*
X-614873Y22124236D01*
X-538488Y22341303D01*
X-489669Y22493701D01*
X-470311Y22576116D01*
X-472915Y22589690D01*
X-520742Y22584249D01*
X-643445Y22565119D01*
X-832606Y22533800D01*
X-1079808Y22491795D01*
X-1376635Y22440604D01*
X-1714668Y22381729D01*
X-2085491Y22316671D01*
X-2480687Y22246931D01*
X-2891839Y22174011D01*
X-3310529Y22099412D01*
X-3728340Y22024635D01*
X-4136855Y21951182D01*
X-4527657Y21880553D01*
X-4892328Y21814251D01*
X-5222453Y21753775D01*
X-5509612Y21700629D01*
X-5745390Y21656313D01*
X-5921369Y21622327D01*
X-6029132Y21600175D01*
X-6053848Y21594270D01*
X-6085135Y21579680D01*
X-9573239Y21579680D01*
X-9888941Y21680136D01*
X-10246517Y21793906D01*
X-10560355Y21893746D01*
X-10823262Y21977370D01*
X-11028049Y22042489D01*
X-11167524Y22086816D01*
X-11234496Y22108063D01*
X-11237621Y22109048D01*
X-11242776Y22090697D01*
X-15330596Y22090697D01*
X-15142016Y22224226D01*
X-15142016Y23741667D01*
X-15975133Y23741667D01*
X-16806851Y22693917D01*
X-17638570Y21646167D01*
X-17639126Y19913135D01*
X-17639683Y18180103D01*
X-18909683Y18180103D01*
X-18909683Y19139083D01*
X-20586512Y22268703D01*
X-22263341Y25398322D01*
X-22302130Y25635094D01*
X-16099034Y25635094D01*
X-16097586Y25591954D01*
X-16087148Y25479319D01*
X-16069240Y25311708D01*
X-16045382Y25103638D01*
X-16029302Y24969194D01*
X-16001779Y24739973D01*
X-15978158Y24538672D01*
X-15960250Y24381099D01*
X-15949868Y24283062D01*
X-15948023Y24260250D01*
X-15924759Y24238052D01*
X-15850437Y24222398D01*
X-15715820Y24212464D01*
X-15511671Y24207429D01*
X-15343099Y24206402D01*
X-14739849Y24205470D01*
X-10929849Y23025947D01*
X-10380839Y22856334D01*
X-9854203Y22694322D01*
X-9355641Y22541624D01*
X-8890849Y22399955D01*
X-8465525Y22271029D01*
X-8085367Y22156559D01*
X-7756073Y22058259D01*
X-7483341Y21977844D01*
X-7272867Y21917027D01*
X-7130350Y21877522D01*
X-7061487Y21861043D01*
X-7056349Y21860742D01*
X-7005487Y21870362D01*
X-6877812Y21893798D01*
X-6679841Y21929870D01*
X-6418088Y21977399D01*
X-6099070Y22035205D01*
X-5729304Y22102108D01*
X-5315303Y22176930D01*
X-4863584Y22258490D01*
X-4380664Y22345608D01*
X-3873057Y22437106D01*
X-3775516Y22454680D01*
X-3264941Y22546927D01*
X-2818525Y22628051D01*
X447457Y22628051D01*
X582181Y22285276D01*
X872775Y21546137D01*
X1133986Y20882222D01*
X1367267Y20289899D01*
X1574069Y19765538D01*
X1755843Y19305510D01*
X1914041Y18906184D01*
X2050114Y18563930D01*
X2165514Y18275118D01*
X2261691Y18036118D01*
X2340098Y17843300D01*
X2402186Y17693034D01*
X2449407Y17581689D01*
X2483211Y17505636D01*
X2505050Y17461244D01*
X2516376Y17444884D01*
X2517602Y17444686D01*
X2551709Y17475416D01*
X2641095Y17560732D01*
X2780769Y17695758D01*
X2965737Y17875619D01*
X3068165Y17975569D01*
X3717484Y17975569D01*
X4712317Y18712150D01*
X4996795Y18922827D01*
X5286758Y19137652D01*
X5567291Y19345568D01*
X5823480Y19535522D01*
X6040412Y19696456D01*
X6193984Y19810487D01*
X6680817Y20172244D01*
X8162484Y20586922D01*
X8504715Y20682692D01*
X8823057Y20771755D01*
X9107849Y20851411D01*
X9349427Y20918956D01*
X9538131Y20971690D01*
X9664297Y21006912D01*
X9717719Y21021770D01*
X9776551Y21026867D01*
X9803724Y20997598D01*
X9796946Y20927901D01*
X9753928Y20811714D01*
X9672377Y20642975D01*
X9550002Y20415621D01*
X9384512Y20123592D01*
X9366244Y20091882D01*
X8892092Y19269794D01*
X7468399Y18397892D01*
X7150861Y18203952D01*
X6852645Y18022824D01*
X6582206Y17859568D01*
X6347999Y17719243D01*
X6158478Y17606910D01*
X6022099Y17527629D01*
X5947314Y17486460D01*
X5939428Y17482795D01*
X5865168Y17462005D01*
X5722710Y17430453D01*
X5527383Y17391224D01*
X5294517Y17347400D01*
X5050984Y17304062D01*
X4803861Y17260447D01*
X4586507Y17220475D01*
X4412294Y17186738D01*
X4294596Y17161827D01*
X4246784Y17148333D01*
X4246651Y17148214D01*
X4280209Y17143490D01*
X4386124Y17142074D01*
X4552159Y17143818D01*
X4766072Y17148576D01*
X5015627Y17156199D01*
X5072151Y17158176D01*
X5918817Y17188445D01*
X7485151Y18045283D01*
X9051484Y18902121D01*
X10250197Y20500653D01*
X10491259Y20822733D01*
X10715567Y21123621D01*
X10918228Y21396665D01*
X11094346Y21635213D01*
X11239024Y21832613D01*
X11347368Y21982211D01*
X11414482Y22077356D01*
X11435531Y22111361D01*
X11393964Y22100985D01*
X11278554Y22066942D01*
X11096103Y22011354D01*
X10853411Y21936344D01*
X10557279Y21844032D01*
X10214507Y21736542D01*
X9831898Y21615996D01*
X9416251Y21484514D01*
X8974369Y21344220D01*
X8846254Y21303452D01*
X6270357Y20483368D01*
X5988754Y20231498D01*
X5889267Y20139080D01*
X5740077Y19995909D01*
X5550908Y19811535D01*
X5331485Y19595511D01*
X5091530Y19357390D01*
X4840769Y19106723D01*
X4712317Y18977598D01*
X3717484Y17975569D01*
X3068165Y17975569D01*
X3191007Y18095439D01*
X3451585Y18350343D01*
X3742480Y18635455D01*
X4058699Y18945899D01*
X4395249Y19276801D01*
X4585865Y19464427D01*
X4994385Y19867147D01*
X5345871Y20214746D01*
X5644030Y20511083D01*
X5892573Y20760018D01*
X6095205Y20965410D01*
X6255637Y21131119D01*
X6377575Y21261005D01*
X6464729Y21358927D01*
X6520805Y21428746D01*
X6549514Y21474321D01*
X6554562Y21499511D01*
X6547746Y21506460D01*
X6493626Y21519374D01*
X6363205Y21545881D01*
X6163526Y21584665D01*
X5901631Y21634411D01*
X5584563Y21693802D01*
X5219366Y21761525D01*
X4813081Y21836262D01*
X4372752Y21916699D01*
X3905422Y22001521D01*
X3653984Y22046941D01*
X3171544Y22133968D01*
X2709458Y22217364D01*
X2275153Y22295785D01*
X1876058Y22367888D01*
X1519601Y22432329D01*
X1213211Y22487766D01*
X964317Y22532856D01*
X780347Y22566254D01*
X668729Y22586619D01*
X643137Y22591350D01*
X447457Y22628051D01*
X-2818525Y22628051D01*
X-2778568Y22635312D01*
X-2322828Y22718638D01*
X-1904150Y22795704D01*
X-1528963Y22865311D01*
X-1203699Y22926259D01*
X-934785Y22977348D01*
X-728653Y23017379D01*
X-591732Y23045152D01*
X-530452Y23059468D01*
X-527846Y23060603D01*
X-542464Y23085500D01*
X560831Y23085500D01*
X582954Y23042723D01*
X608994Y23033922D01*
X704607Y23018076D01*
X870871Y22989120D01*
X1100294Y22948426D01*
X1385383Y22897367D01*
X1718645Y22837317D01*
X2092587Y22769648D01*
X2499716Y22695735D01*
X2932540Y22616949D01*
X3383566Y22534664D01*
X3845300Y22450254D01*
X4310250Y22365092D01*
X4770924Y22280549D01*
X5219828Y22198001D01*
X5649469Y22118820D01*
X6052354Y22044378D01*
X6420991Y21976050D01*
X6747887Y21915208D01*
X7025549Y21863226D01*
X7246484Y21821476D01*
X7403200Y21791333D01*
X7488202Y21774168D01*
X7501667Y21770762D01*
X7483088Y21733710D01*
X7416060Y21650796D01*
X7312238Y21535787D01*
X7228824Y21448577D01*
X7112575Y21325620D01*
X7030849Y21231319D01*
X6993044Y21177065D01*
X6998317Y21169200D01*
X7137855Y21215725D01*
X7339272Y21281403D01*
X7594666Y21363750D01*
X7896133Y21460284D01*
X8235774Y21568520D01*
X8605684Y21685975D01*
X8997963Y21810165D01*
X9404707Y21938605D01*
X9818016Y22068814D01*
X10229986Y22198306D01*
X10632716Y22324598D01*
X11018303Y22445207D01*
X11378846Y22557648D01*
X11706441Y22659438D01*
X11993188Y22748093D01*
X12231184Y22821130D01*
X12412527Y22876065D01*
X12529315Y22910414D01*
X12573645Y22921693D01*
X12573802Y22921626D01*
X12552446Y22885361D01*
X12484424Y22787126D01*
X12373926Y22632643D01*
X12225147Y22427632D01*
X12042276Y22177814D01*
X11829507Y21888910D01*
X11591031Y21566639D01*
X11331040Y21216723D01*
X11053725Y20844882D01*
X10967263Y20729219D01*
X9341701Y18555834D01*
X8794426Y18261004D01*
X8356615Y18024348D01*
X7990427Y17824570D01*
X7692315Y17659589D01*
X7458730Y17527326D01*
X7286124Y17425699D01*
X7170949Y17352631D01*
X7109658Y17306039D01*
X7098701Y17283845D01*
X7125317Y17282465D01*
X7234020Y17294425D01*
X7398723Y17308686D01*
X7590889Y17322867D01*
X7675651Y17328396D01*
X7754155Y17334782D01*
X7840436Y17345384D01*
X7940138Y17361679D01*
X8058904Y17385148D01*
X8202379Y17417270D01*
X8376207Y17459523D01*
X8586031Y17513387D01*
X8837496Y17580342D01*
X9136245Y17661865D01*
X9487923Y17759437D01*
X9898173Y17874536D01*
X10372640Y18008641D01*
X10916966Y18163233D01*
X11536798Y18339789D01*
X11559426Y18346241D01*
X12086263Y18496193D01*
X12590797Y18639266D01*
X13066950Y18773769D01*
X13508642Y18898007D01*
X13909791Y19010289D01*
X14264320Y19108920D01*
X14566148Y19192208D01*
X14809194Y19258461D01*
X14987380Y19305983D01*
X15094625Y19333084D01*
X15124481Y19339000D01*
X15180708Y19316021D01*
X15296568Y19251254D01*
X15461980Y19150954D01*
X15666863Y19021376D01*
X15901134Y18868776D01*
X16147874Y18704030D01*
X16396919Y18536485D01*
X16622037Y18386368D01*
X16814036Y18259702D01*
X16963721Y18162509D01*
X17061901Y18100810D01*
X17099382Y18080630D01*
X17099427Y18080666D01*
X17088024Y18121621D01*
X17050870Y18234627D01*
X16990635Y18411982D01*
X16909988Y18645983D01*
X16811598Y18928928D01*
X16698134Y19253112D01*
X16572266Y19610835D01*
X16436661Y19994392D01*
X16421008Y20038554D01*
X15730982Y21984834D01*
X15939256Y23799033D01*
X15982777Y24181099D01*
X16022592Y24536423D01*
X16057782Y24856348D01*
X16087424Y25132218D01*
X16110595Y25355377D01*
X16126376Y25517168D01*
X16133843Y25608935D01*
X16133877Y25626885D01*
X16090506Y25625554D01*
X15969715Y25617226D01*
X15778413Y25602480D01*
X15523507Y25581890D01*
X15211905Y25556034D01*
X14850515Y25525488D01*
X14446245Y25490828D01*
X14006003Y25452631D01*
X13536696Y25411474D01*
X13268546Y25387771D01*
X12786180Y25345236D01*
X12329066Y25305354D01*
X11904115Y25268703D01*
X11518236Y25235856D01*
X11178336Y25207391D01*
X10891327Y25183882D01*
X10664116Y25165904D01*
X10503613Y25154035D01*
X10416726Y25148848D01*
X10402821Y25149052D01*
X10385506Y25190229D01*
X10341200Y25302984D01*
X10272824Y25479692D01*
X10183300Y25712725D01*
X10075550Y25994457D01*
X9952496Y26317260D01*
X9817059Y26673508D01*
X9672162Y27055574D01*
X9650019Y27114041D01*
X8911452Y29064487D01*
X9376636Y29064487D01*
X9923449Y27620160D01*
X10049259Y27287819D01*
X10166052Y26979231D01*
X10270327Y26703656D01*
X10358581Y26470353D01*
X10427311Y26288581D01*
X10473014Y26167601D01*
X10492119Y26116858D01*
X10520110Y26073638D01*
X10530311Y26074525D01*
X10546821Y26115685D01*
X10590603Y26231168D01*
X10659749Y26415818D01*
X10752352Y26664480D01*
X10866503Y26971998D01*
X10932248Y27149500D01*
X21518651Y27149500D01*
X21539817Y27128334D01*
X21560984Y27149500D01*
X21539817Y27170667D01*
X21518651Y27149500D01*
X10932248Y27149500D01*
X11000295Y27333216D01*
X11151820Y27742978D01*
X11319169Y28196127D01*
X11500435Y28687509D01*
X11693709Y29211967D01*
X11897084Y29764346D01*
X12108652Y30339489D01*
X12118707Y30366834D01*
X12331913Y30945622D01*
X12538232Y31503594D01*
X12735649Y32035420D01*
X12922150Y32535765D01*
X13095723Y32999299D01*
X13254354Y33420688D01*
X13396028Y33794600D01*
X13518733Y34115703D01*
X13620455Y34378664D01*
X13699181Y34578151D01*
X13752896Y34708831D01*
X13779587Y34765373D01*
X13779710Y34765545D01*
X13816078Y34808309D01*
X13904824Y34909207D01*
X14041660Y35063465D01*
X14222298Y35266310D01*
X14442452Y35512967D01*
X14697832Y35798662D01*
X14951281Y36081890D01*
X15557331Y36081890D01*
X15592704Y36104449D01*
X15692043Y36173529D01*
X15850827Y36285878D01*
X16064529Y36438243D01*
X16328628Y36627373D01*
X16638599Y36850013D01*
X16989918Y37102913D01*
X17378062Y37382819D01*
X17798507Y37686479D01*
X18246729Y38010641D01*
X18718204Y38352051D01*
X19124156Y38646343D01*
X19611449Y38999623D01*
X20079175Y39338411D01*
X20522817Y39659452D01*
X20937856Y39959489D01*
X21319774Y40235267D01*
X21664051Y40483530D01*
X21966172Y40701021D01*
X22221616Y40884484D01*
X22425865Y41030664D01*
X22574402Y41136304D01*
X22662708Y41198148D01*
X22687024Y41213884D01*
X22684644Y41171353D01*
X22675621Y41048884D01*
X22660316Y40850915D01*
X22639089Y40581885D01*
X22612299Y40246232D01*
X22580307Y39848394D01*
X22543474Y39392811D01*
X22502159Y38883919D01*
X22456723Y38326159D01*
X22407526Y37723967D01*
X22354927Y37081783D01*
X22299289Y36404045D01*
X22240969Y35695192D01*
X22180330Y34959661D01*
X22129659Y34346167D01*
X22067319Y33591274D01*
X22006957Y32858872D01*
X21948936Y32153446D01*
X21893622Y31479481D01*
X21841377Y30841461D01*
X21792566Y30243872D01*
X21747553Y29691199D01*
X21706703Y29187926D01*
X21670380Y28738538D01*
X21638947Y28347521D01*
X21612769Y28019358D01*
X21592210Y27758536D01*
X21577635Y27569539D01*
X21569407Y27456851D01*
X21567639Y27424667D01*
X21567994Y27412260D01*
X21567871Y27398236D01*
X21567877Y27386220D01*
X21568620Y27379836D01*
X21570710Y27382711D01*
X21574754Y27398469D01*
X21581361Y27430736D01*
X21591139Y27483136D01*
X21604696Y27559295D01*
X21622641Y27662837D01*
X21645582Y27797388D01*
X21674128Y27966574D01*
X21708886Y28174018D01*
X21750465Y28423347D01*
X21799474Y28718186D01*
X21856520Y29062159D01*
X21922213Y29458891D01*
X21997160Y29912009D01*
X22081969Y30425136D01*
X22177250Y31001898D01*
X22283610Y31645921D01*
X22401658Y32360829D01*
X22532002Y33150247D01*
X22675250Y34017801D01*
X22750154Y34471418D01*
X22874450Y35224468D01*
X22994932Y35955075D01*
X23110883Y36658853D01*
X23221584Y37331412D01*
X23326316Y37968365D01*
X23424360Y38565323D01*
X23514997Y39117900D01*
X23597510Y39621707D01*
X23671178Y40072356D01*
X23735284Y40465459D01*
X23789109Y40796629D01*
X23831934Y41061477D01*
X23863041Y41255615D01*
X23881710Y41374655D01*
X23887283Y41414085D01*
X23855239Y41448253D01*
X23766501Y41526285D01*
X23630827Y41640395D01*
X23457976Y41782796D01*
X23257705Y41945702D01*
X23039773Y42121327D01*
X22813937Y42301885D01*
X22589956Y42479589D01*
X22377588Y42646655D01*
X22186590Y42795295D01*
X22026721Y42917723D01*
X21907739Y43006153D01*
X21839401Y43052800D01*
X21827099Y43057947D01*
X21794680Y43024559D01*
X21710446Y42933302D01*
X21578788Y42789062D01*
X21404095Y42596722D01*
X21190760Y42361170D01*
X20943172Y42087289D01*
X20665723Y41779965D01*
X20362803Y41444084D01*
X20038802Y41084531D01*
X19698111Y40706191D01*
X19345121Y40313948D01*
X18984223Y39912690D01*
X18619807Y39507300D01*
X18256264Y39102664D01*
X17897984Y38703668D01*
X17549358Y38315195D01*
X17214777Y37942133D01*
X16898632Y37589366D01*
X16605312Y37261779D01*
X16339210Y36964258D01*
X16104715Y36701688D01*
X15906218Y36478953D01*
X15748109Y36300940D01*
X15634780Y36172534D01*
X15570621Y36098619D01*
X15557331Y36081890D01*
X14951281Y36081890D01*
X14984152Y36118622D01*
X15297123Y36468073D01*
X15632459Y36842239D01*
X15985871Y37236348D01*
X16353072Y37645626D01*
X16729774Y38065297D01*
X17111690Y38490589D01*
X17494531Y38916727D01*
X17874010Y39338938D01*
X18245840Y39752446D01*
X18605732Y40152479D01*
X18949400Y40534263D01*
X19272555Y40893022D01*
X19570910Y41223984D01*
X19840177Y41522374D01*
X20076068Y41783418D01*
X20274296Y42002342D01*
X20430574Y42174372D01*
X20540612Y42294735D01*
X20583185Y42340731D01*
X20609128Y42368639D01*
X20629345Y42391697D01*
X20640470Y42407735D01*
X20639139Y42414585D01*
X20621989Y42410077D01*
X20585653Y42392044D01*
X20526768Y42358316D01*
X20441969Y42306724D01*
X20327891Y42235101D01*
X20181171Y42141277D01*
X19998442Y42023084D01*
X19776341Y41878352D01*
X19511503Y41704913D01*
X19200564Y41500599D01*
X18840158Y41263241D01*
X18426922Y40990669D01*
X17957491Y40680716D01*
X17428500Y40331212D01*
X16836585Y39939990D01*
X16178380Y39504879D01*
X15974188Y39369891D01*
X12398226Y37005895D01*
X9376636Y29064487D01*
X8911452Y29064487D01*
X8911264Y29064982D01*
X10198588Y32446408D01*
X10393271Y32957898D01*
X10579501Y33447403D01*
X10755047Y33909044D01*
X10917676Y34336943D01*
X11065159Y34725220D01*
X11195262Y35067997D01*
X11305754Y35359395D01*
X11394404Y35593535D01*
X11458980Y35764538D01*
X11497250Y35866526D01*
X11507259Y35893909D01*
X11481502Y35874985D01*
X11400435Y35800309D01*
X11268434Y35674186D01*
X11089873Y35500917D01*
X10869126Y35284805D01*
X10610568Y35030152D01*
X10318571Y34741261D01*
X9997512Y34422435D01*
X9651764Y34077975D01*
X9285702Y33712184D01*
X9097026Y33523242D01*
X6665446Y31086500D01*
X3619302Y27107167D01*
X3227510Y26595132D01*
X2850155Y26101540D01*
X2490425Y25630582D01*
X2151506Y25186451D01*
X1836588Y24773337D01*
X1548858Y24395433D01*
X1291503Y24056930D01*
X1067712Y23762021D01*
X880672Y23514897D01*
X733572Y23319749D01*
X629599Y23180770D01*
X571941Y23102152D01*
X560831Y23085500D01*
X-542464Y23085500D01*
X-549162Y23096906D01*
X-618949Y23196151D01*
X-734065Y23354169D01*
X-891365Y23566789D01*
X-1087707Y23829838D01*
X-1319948Y24139145D01*
X-1584944Y24490541D01*
X-1879551Y24879852D01*
X-2200628Y25302909D01*
X-2545030Y25755540D01*
X-2909615Y26233574D01*
X-3291239Y26732840D01*
X-3533513Y27049245D01*
X-6217240Y30551822D01*
X-5638798Y30551822D01*
X-5626474Y30515110D01*
X-5575633Y30437229D01*
X-5481631Y30309756D01*
X-5339821Y30124267D01*
X-5339512Y30123866D01*
X-5257470Y30017104D01*
X-5128521Y29849070D01*
X-4957227Y29625715D01*
X-4748151Y29352994D01*
X-4505854Y29036860D01*
X-4234898Y28683266D01*
X-3939847Y28298166D01*
X-3625261Y27887513D01*
X-3295703Y27457260D01*
X-2955736Y27013361D01*
X-2745574Y26738922D01*
X-2411837Y26303334D01*
X-2093045Y25887715D01*
X-1792919Y25496888D01*
X-1515175Y25135672D01*
X-1263534Y24808891D01*
X-1041715Y24521365D01*
X-853436Y24277916D01*
X-702416Y24083366D01*
X-592374Y23942536D01*
X-527030Y23860247D01*
X-509423Y23839816D01*
X-516119Y23881741D01*
X-538633Y23999201D01*
X-575472Y24184851D01*
X-625143Y24431348D01*
X-686155Y24731348D01*
X-757014Y25077507D01*
X-836228Y25462482D01*
X-922305Y25878928D01*
X-996835Y26238135D01*
X-1493388Y28627315D01*
X-3459952Y29548811D01*
X-3845782Y29729595D01*
X-4211984Y29901166D01*
X-4550699Y30059842D01*
X-4854064Y30201941D01*
X-5114220Y30323781D01*
X-5323306Y30421682D01*
X-5473460Y30491960D01*
X-5556823Y30530935D01*
X-5566478Y30535436D01*
X-5617251Y30555790D01*
X-5638798Y30551822D01*
X-6217240Y30551822D01*
X-6569516Y31011583D01*
X-6654531Y31097488D01*
X-5653472Y31097488D01*
X-5626705Y31078127D01*
X-5529603Y31026145D01*
X-5368581Y30944661D01*
X-5150057Y30836796D01*
X-4880447Y30705671D01*
X-4566167Y30554405D01*
X-4213635Y30386120D01*
X-3829266Y30203935D01*
X-3419478Y30010970D01*
X-3411020Y30007000D01*
X-1110946Y28927500D01*
X-572731Y26348422D01*
X-457311Y25795407D01*
X-357932Y25319714D01*
X-273331Y24915786D01*
X-202247Y24578066D01*
X-143416Y24300997D01*
X-95577Y24079020D01*
X-57467Y23906580D01*
X-27824Y23778117D01*
X-5386Y23688076D01*
X11108Y23630898D01*
X22923Y23601027D01*
X31318Y23592905D01*
X37558Y23600975D01*
X42904Y23619678D01*
X45008Y23628607D01*
X56664Y23682751D01*
X84096Y23812497D01*
X91461Y23847500D01*
X535336Y23847500D01*
X557918Y23872123D01*
X627821Y23958546D01*
X740878Y24101359D01*
X892919Y24295153D01*
X1079776Y24534520D01*
X1297279Y24814050D01*
X1541258Y25128334D01*
X1807546Y25471962D01*
X2091973Y25839526D01*
X2390370Y26225615D01*
X2698567Y26624822D01*
X3012396Y27031736D01*
X3327689Y27440948D01*
X3640274Y27847049D01*
X3945985Y28244631D01*
X4240651Y28628283D01*
X4520103Y28992596D01*
X4780174Y29332161D01*
X5016692Y29641570D01*
X5225490Y29915412D01*
X5402398Y30148278D01*
X5543247Y30334760D01*
X5643869Y30469448D01*
X5700093Y30546932D01*
X5708564Y30559621D01*
X5697415Y30575378D01*
X5630973Y30551764D01*
X5616560Y30544603D01*
X5555333Y30514910D01*
X5425162Y30453039D01*
X5233815Y30362643D01*
X4989060Y30247375D01*
X4698663Y30110889D01*
X4370394Y29956838D01*
X4012018Y29788874D01*
X3631303Y29610651D01*
X3526984Y29561852D01*
X3146045Y29383605D01*
X2788947Y29216365D01*
X2462914Y29063525D01*
X2175169Y28928478D01*
X1932936Y28814618D01*
X1743438Y28725338D01*
X1613898Y28664031D01*
X1551540Y28634091D01*
X1546957Y28631692D01*
X1536467Y28589684D01*
X1510402Y28472183D01*
X1470332Y28286609D01*
X1417828Y28040380D01*
X1354463Y27740916D01*
X1281806Y27395637D01*
X1201429Y27011961D01*
X1114904Y26597308D01*
X1048321Y26277195D01*
X957718Y25841704D01*
X871684Y25429507D01*
X791854Y25048344D01*
X719861Y24705952D01*
X657339Y24410070D01*
X605923Y24168437D01*
X567245Y23988792D01*
X542941Y23878872D01*
X535336Y23847500D01*
X91461Y23847500D01*
X125776Y24010568D01*
X180179Y24269686D01*
X245780Y24582572D01*
X321052Y24941949D01*
X404470Y25340539D01*
X494509Y25771063D01*
X589642Y26226245D01*
X607312Y26310823D01*
X702872Y26767485D01*
X793495Y27199067D01*
X877681Y27598524D01*
X953930Y27958811D01*
X1020742Y28272884D01*
X1076618Y28533697D01*
X1120059Y28734204D01*
X1149564Y28867362D01*
X1163634Y28926124D01*
X1164478Y28928344D01*
X1204236Y28948164D01*
X1315075Y29001256D01*
X1491400Y29084987D01*
X1727616Y29196724D01*
X2018129Y29333832D01*
X2357342Y29493679D01*
X2739661Y29673629D01*
X3159492Y29871051D01*
X3611238Y30083311D01*
X4089307Y30307774D01*
X4588101Y30541807D01*
X5102026Y30782777D01*
X5567588Y31000928D01*
X5766692Y31094195D01*
X5186588Y31164394D01*
X5031333Y31183117D01*
X4802442Y31210628D01*
X4510347Y31245678D01*
X4165480Y31287017D01*
X3778274Y31333396D01*
X3359162Y31383563D01*
X2918576Y31436270D01*
X2466950Y31490266D01*
X2318978Y31507951D01*
X31473Y31781307D01*
X-2782188Y31444892D01*
X-3261990Y31387464D01*
X-3717686Y31332806D01*
X-4142208Y31281773D01*
X-4528488Y31235219D01*
X-4869459Y31193999D01*
X-5158053Y31158970D01*
X-5387202Y31130986D01*
X-5549837Y31110902D01*
X-5638893Y31099573D01*
X-5653472Y31097488D01*
X-6654531Y31097488D01*
X-9036510Y33504375D01*
X-9477205Y33949506D01*
X-9862070Y34337746D01*
X-10194688Y34672521D01*
X-10478645Y34957257D01*
X-10717525Y35195381D01*
X-10914912Y35390318D01*
X-11074392Y35545495D01*
X-11199550Y35664338D01*
X-11293970Y35750273D01*
X-11361236Y35806727D01*
X-11404934Y35837126D01*
X-11428648Y35844896D01*
X-11435963Y35833463D01*
X-11430464Y35806253D01*
X-11423161Y35785500D01*
X-11395850Y35713604D01*
X-11340871Y35568925D01*
X-11260642Y35357822D01*
X-11157579Y35086652D01*
X-11034100Y34761776D01*
X-10892620Y34389551D01*
X-10735557Y33976337D01*
X-10565328Y33528491D01*
X-10384350Y33052372D01*
X-10195038Y32554339D01*
X-10105584Y32319008D01*
X-8868349Y29064182D01*
X-9608724Y27112008D01*
X-10349100Y25159834D01*
X-10597141Y25169288D01*
X-10683101Y25174689D01*
X-10845297Y25186996D01*
X-11075641Y25205524D01*
X-11366043Y25229591D01*
X-11708416Y25258512D01*
X-12094669Y25291604D01*
X-12516714Y25328183D01*
X-12966462Y25367566D01*
X-13435823Y25409068D01*
X-13467172Y25411854D01*
X-13929125Y25452757D01*
X-14365446Y25491064D01*
X-14768942Y25526166D01*
X-15132418Y25557451D01*
X-15448679Y25584311D01*
X-15710532Y25606133D01*
X-15910782Y25622310D01*
X-16042234Y25632229D01*
X-16097695Y25635281D01*
X-16099034Y25635094D01*
X-22302130Y25635094D01*
X-22578548Y27322362D01*
X-21531007Y27322362D01*
X-21523224Y27267455D01*
X-21508773Y27266799D01*
X-21498667Y27323458D01*
X-21505431Y27347938D01*
X-21524228Y27363973D01*
X-21531007Y27322362D01*
X-22578548Y27322362D01*
X-23655137Y33893911D01*
X-23792264Y34731354D01*
X-23925703Y35547084D01*
X-24054808Y36337124D01*
X-24178935Y37097499D01*
X-24297439Y37824230D01*
X-24409675Y38513343D01*
X-24514997Y39160861D01*
X-24612761Y39762807D01*
X-24702322Y40315204D01*
X-24783036Y40814077D01*
X-24854255Y41255449D01*
X-24870774Y41358189D01*
X-23846095Y41358189D01*
X-23837215Y41309478D01*
X-23815331Y41181633D01*
X-23781175Y40979064D01*
X-23735478Y40706183D01*
X-23678971Y40367400D01*
X-23612385Y39967127D01*
X-23536452Y39509773D01*
X-23451903Y38999750D01*
X-23359469Y38441469D01*
X-23259881Y37839341D01*
X-23153871Y37197777D01*
X-23042170Y36521187D01*
X-22925509Y35813982D01*
X-22804620Y35080574D01*
X-22691159Y34391731D01*
X-22567345Y33640543D01*
X-22447166Y32912917D01*
X-22331343Y32213154D01*
X-22220598Y31545558D01*
X-22115653Y30914430D01*
X-22017230Y30324073D01*
X-21926051Y29778789D01*
X-21842837Y29282880D01*
X-21768310Y28840648D01*
X-21703193Y28456396D01*
X-21648207Y28134425D01*
X-21604073Y27879038D01*
X-21571515Y27694538D01*
X-21551253Y27585226D01*
X-21544059Y27554898D01*
X-21546212Y27603133D01*
X-21555016Y27731204D01*
X-21570108Y27934572D01*
X-21591122Y28208695D01*
X-21617696Y28549035D01*
X-21649466Y28951052D01*
X-21686067Y29410207D01*
X-21727136Y29921958D01*
X-21772309Y30481768D01*
X-21821221Y31085095D01*
X-21873510Y31727400D01*
X-21928811Y32404144D01*
X-21986759Y33110787D01*
X-22046993Y33842789D01*
X-22085033Y34303834D01*
X-22146537Y35050067D01*
X-22205972Y35774273D01*
X-22262975Y36471866D01*
X-22317181Y37138266D01*
X-22368225Y37768887D01*
X-22415743Y38359149D01*
X-22459370Y38904466D01*
X-22498741Y39400257D01*
X-22533493Y39841939D01*
X-22563260Y40224928D01*
X-22587679Y40544641D01*
X-22606384Y40796495D01*
X-22619011Y40975908D01*
X-22625195Y41078295D01*
X-22625657Y41100895D01*
X-22619879Y41117021D01*
X-22604128Y41123426D01*
X-22574232Y41117248D01*
X-22526022Y41095619D01*
X-22455325Y41055674D01*
X-22357970Y40994549D01*
X-22229787Y40909377D01*
X-22066604Y40797293D01*
X-21864250Y40655432D01*
X-21618554Y40480929D01*
X-21325345Y40270918D01*
X-20980451Y40022533D01*
X-20579703Y39732909D01*
X-20118928Y39399181D01*
X-19593955Y39018483D01*
X-19587016Y39013449D01*
X-19121621Y38675842D01*
X-18664528Y38344292D01*
X-18221957Y38023308D01*
X-17800127Y37717398D01*
X-17405258Y37431073D01*
X-17043568Y37168842D01*
X-16721278Y36935214D01*
X-16444606Y36734699D01*
X-16219773Y36571804D01*
X-16052997Y36451041D01*
X-15975604Y36395056D01*
X-15391025Y35972503D01*
X-18577286Y39509085D01*
X-18997591Y39975286D01*
X-19402252Y40423518D01*
X-19787649Y40849803D01*
X-20150161Y41250164D01*
X-20486169Y41620625D01*
X-20792054Y41957209D01*
X-21064196Y42255938D01*
X-21238909Y42447112D01*
X-20609673Y42447112D01*
X-20587327Y42418274D01*
X-20511615Y42330367D01*
X-20385906Y42187161D01*
X-20213574Y41992429D01*
X-19997988Y41749945D01*
X-19742521Y41463479D01*
X-19450544Y41136806D01*
X-19125428Y40773696D01*
X-18770545Y40377923D01*
X-18389266Y39953258D01*
X-17984962Y39503475D01*
X-17561005Y39032345D01*
X-17168030Y38596084D01*
X-13683709Y34729778D01*
X-12130599Y30516306D01*
X-11918863Y29941953D01*
X-11714719Y29388336D01*
X-11520152Y28860829D01*
X-11337145Y28364804D01*
X-11167684Y27905634D01*
X-11013752Y27488694D01*
X-10877333Y27119355D01*
X-10760411Y26802992D01*
X-10664971Y26544977D01*
X-10592997Y26350684D01*
X-10546472Y26225486D01*
X-10527808Y26175834D01*
X-10478128Y26048834D01*
X-10396812Y26260500D01*
X-10362004Y26351690D01*
X-10301559Y26510684D01*
X-10219794Y26726097D01*
X-10121030Y26986544D01*
X-10009583Y27280638D01*
X-9889772Y27596995D01*
X-9824477Y27769483D01*
X-9333457Y29066799D01*
X-12160296Y36491401D01*
X-11374349Y36491401D01*
X-11345126Y36458265D01*
X-11260378Y36369731D01*
X-11124487Y36230233D01*
X-10941838Y36044202D01*
X-10716813Y35816069D01*
X-10453796Y35550266D01*
X-10157169Y35251226D01*
X-9831316Y34923380D01*
X-9480619Y34571159D01*
X-9109462Y34198996D01*
X-8866848Y33956035D01*
X-8420562Y33509476D01*
X-8030056Y33119187D01*
X-7691377Y32781435D01*
X-7400572Y32492487D01*
X-7153688Y32248610D01*
X-6946772Y32046070D01*
X-6775871Y31881134D01*
X-6637033Y31750069D01*
X-6526303Y31649142D01*
X-6439730Y31574619D01*
X-6373359Y31522768D01*
X-6323239Y31489854D01*
X-6285416Y31472146D01*
X-6255938Y31465909D01*
X-6231598Y31467285D01*
X-6160639Y31476864D01*
X-6016064Y31494656D01*
X-5808392Y31519427D01*
X-5548146Y31549943D01*
X-5245846Y31584967D01*
X-4912014Y31623267D01*
X-4601016Y31658641D01*
X-3911816Y31736883D01*
X-3305527Y31806057D01*
X-2780898Y31866311D01*
X-2336676Y31917791D01*
X-1971609Y31960645D01*
X-1684446Y31995021D01*
X-1473932Y32021066D01*
X-1338818Y32038927D01*
X-1299423Y32045275D01*
X1370328Y32045275D01*
X1417940Y32038222D01*
X1540971Y32022424D01*
X1730742Y31998907D01*
X1978570Y31968699D01*
X2275775Y31932829D01*
X2613676Y31892324D01*
X2983592Y31848213D01*
X3376842Y31801524D01*
X3784746Y31753285D01*
X4198623Y31704523D01*
X4609791Y31656267D01*
X5009570Y31609545D01*
X5389278Y31565384D01*
X5740236Y31524814D01*
X6053762Y31488861D01*
X6321175Y31458555D01*
X6386242Y31451261D01*
X6422016Y31479943D01*
X6512748Y31564586D01*
X6654015Y31700799D01*
X6841393Y31884193D01*
X7070458Y32110376D01*
X7336788Y32374959D01*
X7635959Y32673550D01*
X7963548Y33001760D01*
X8315130Y33355198D01*
X8686284Y33729473D01*
X8942181Y33988169D01*
X9386629Y34438087D01*
X9774768Y34831481D01*
X10109935Y35171918D01*
X10395466Y35462965D01*
X10634698Y35708187D01*
X10830967Y35911153D01*
X10987610Y36075428D01*
X11107963Y36204580D01*
X11195363Y36302176D01*
X11253146Y36371781D01*
X11284648Y36416963D01*
X11293207Y36441289D01*
X11282158Y36448326D01*
X11254838Y36441640D01*
X11226423Y36430093D01*
X10369533Y36053727D01*
X9531475Y35685191D01*
X8715560Y35325960D01*
X7925100Y34977506D01*
X7163407Y34641302D01*
X6433793Y34318824D01*
X5739570Y34011543D01*
X5084048Y33720933D01*
X4470542Y33448467D01*
X3902361Y33195620D01*
X3382819Y32963863D01*
X2915227Y32754672D01*
X2502897Y32569518D01*
X2149140Y32409877D01*
X1857269Y32277219D01*
X1630596Y32173021D01*
X1472432Y32098754D01*
X1386089Y32055892D01*
X1370328Y32045275D01*
X-1299423Y32045275D01*
X-1277850Y32048751D01*
X-1273877Y32050100D01*
X-1309931Y32068371D01*
X-1417377Y32117976D01*
X-1590094Y32196186D01*
X-1821962Y32300273D01*
X-2106861Y32427508D01*
X-2438670Y32575160D01*
X-2811268Y32740503D01*
X-3218536Y32920805D01*
X-3654353Y33113339D01*
X-4022532Y33275696D01*
X-4563235Y33513959D01*
X-5146649Y33771070D01*
X-5757466Y34040280D01*
X-6380375Y34314843D01*
X-7000070Y34588009D01*
X-7601242Y34853032D01*
X-8168583Y35103162D01*
X-8686783Y35331653D01*
X-9077766Y35504072D01*
X-9491400Y35686077D01*
X-9881110Y35856745D01*
X-10240169Y36013185D01*
X-10561854Y36152506D01*
X-10839437Y36271817D01*
X-11066194Y36368226D01*
X-11235400Y36438841D01*
X-11340329Y36480772D01*
X-11374349Y36491401D01*
X-12160296Y36491401D01*
X-12358953Y37013167D01*
X-16462974Y39722500D01*
X-16996013Y40074285D01*
X-17509607Y40413025D01*
X-17999310Y40735798D01*
X-18460674Y41039681D01*
X-18889251Y41321752D01*
X-19280595Y41579090D01*
X-19630258Y41808772D01*
X-19933792Y42007876D01*
X-20186750Y42173479D01*
X-20384685Y42302661D01*
X-20523150Y42392497D01*
X-20597696Y42440067D01*
X-20609673Y42447112D01*
X-21238909Y42447112D01*
X-21298974Y42512835D01*
X-21492769Y42723925D01*
X-21641962Y42885229D01*
X-21742932Y42992771D01*
X-21792060Y43042573D01*
X-21796217Y43045667D01*
X-21836273Y43020284D01*
X-21934116Y42948401D01*
X-22081430Y42836424D01*
X-22269897Y42690753D01*
X-22491200Y42517794D01*
X-22737023Y42323948D01*
X-22847138Y42236606D01*
X-23161807Y41984736D01*
X-23412214Y41780020D01*
X-23602098Y41619173D01*
X-23735196Y41498907D01*
X-23815247Y41415934D01*
X-23845990Y41366968D01*
X-23846095Y41358189D01*
X-24870774Y41358189D01*
X-24915337Y41635344D01*
X-24965636Y41949785D01*
X-25004507Y42194796D01*
X-25031305Y42366400D01*
X-25045385Y42460620D01*
X-25047474Y42478020D01*
X-25029806Y42516295D01*
X-24973374Y42579692D01*
X-24873535Y42672102D01*
X-24725645Y42797415D01*
X-24525061Y42959524D01*
X-24267139Y43162320D01*
X-23947234Y43409693D01*
X-23809766Y43515186D01*
X-23527064Y43730804D01*
X-23264759Y43929011D01*
X-23030570Y44104114D01*
X-22832216Y44250424D01*
X-22677414Y44362248D01*
X-22573883Y44433896D01*
X-22529340Y44459675D01*
X-22528922Y44459675D01*
X-22489116Y44436289D01*
X-22382734Y44368916D01*
X-22213851Y44260224D01*
X-21986543Y44112880D01*
X-21704886Y43929552D01*
X-21372957Y43712905D01*
X-20994830Y43465608D01*
X-20574584Y43190328D01*
X-20116292Y42889732D01*
X-19624033Y42566487D01*
X-19101881Y42223260D01*
X-18553913Y41862719D01*
X-17984205Y41487531D01*
X-17618255Y41246354D01*
X-17035185Y40862035D01*
X-16470220Y40489757D01*
X-15927534Y40132266D01*
X-15411300Y39792307D01*
X-14925691Y39472624D01*
X-14474881Y39175962D01*
X-14063043Y38905066D01*
X-13694350Y38662679D01*
X-13372976Y38451548D01*
X-13103093Y38274416D01*
X-12888875Y38134028D01*
X-12734495Y38033129D01*
X-12644127Y37974464D01*
X-12622410Y37960704D01*
X-12569598Y37935112D01*
X-12443639Y37877334D01*
X-12248874Y37789298D01*
X-11989646Y37672934D01*
X-11670297Y37530171D01*
X-11295167Y37362940D01*
X-10868600Y37173168D01*
X-10394936Y36962788D01*
X-9878517Y36733726D01*
X-9323686Y36487914D01*
X-8734784Y36227280D01*
X-8116152Y35953755D01*
X-7472133Y35669267D01*
X-6807068Y35375746D01*
X-6635967Y35300274D01*
X-777295Y32716334D01*
X823452Y32716334D01*
X12607484Y37915358D01*
X22581466Y44487712D01*
X23847828Y43523273D01*
M02*
